<?xml version="1.0" encoding="utf-8"?>
<!-- Generator: Adobe Illustrator 25.0.1, SVG Export Plug-In . SVG Version: 6.00 Build 0)  -->
<svg version="1.1" id="Capa_1" xmlns="http://www.w3.org/2000/svg" xmlns:xlink="http://www.w3.org/1999/xlink" x="0px" y="0px"
	 viewBox="0 0 500 500" style="enable-background:new 0 0 500 500;" xml:space="preserve">
<style type="text/css">
	.st0{fill:#EBEBEB;}
	.st1{fill:#263238;}
	.st2{fill:#DBDBDB;}
	.st3{fill:#FFFFFF;}
	.st4{opacity:0.5;fill:#EBEBEB;enable-background:new    ;}
	.st5{fill:#C7C7C7;}
	.st6{fill:#A6A6A6;}
	.st7{fill:#455A64;}
	.st8{fill:#37474F;}
	.st9{fill:#AD6359;}
	.st10{fill:#D35B31;}
	.st11{opacity:0.2;fill:#263238;enable-background:new    ;}
</style>
<g id="freepik--background-complete--inject-28">
	<rect x="414.8" y="336.4" class="st0" width="26.5" height="11.2"/>
	<rect x="429.6" y="350.5" class="st0" width="26.5" height="11.2"/>
	<rect x="400" y="350.5" class="st0" width="26.5" height="11.2"/>
	<rect x="58.7" y="350.5" class="st0" width="26.5" height="11.2"/>
	<rect x="58.7" y="48.6" class="st0" width="26.5" height="11.2"/>
	<rect x="43.9" y="62.7" class="st0" width="26.5" height="11.2"/>
	<rect x="438.2" y="220.1" class="st0" width="26.5" height="11.2"/>
	<rect x="356.6" y="181.7" class="st0" width="26.5" height="11.2"/>
	<rect x="341.8" y="167.6" class="st0" width="26.5" height="11.2"/>
	<path class="st0" d="M68.5,77.7h175.7V323H68.5V77.7z M239,82.9H73.7v235H239V82.9z"/>
	<rect x="153.8" y="84.2" class="st0" width="5.2" height="236.2"/>
	<rect x="63.8" y="88.2" class="st0" width="185.2" height="7.3"/>
	<rect x="63.8" y="96.4" class="st0" width="185.2" height="7.3"/>
	<rect x="63.8" y="104.5" class="st0" width="185.2" height="7.3"/>
	<rect x="63.8" y="112.7" class="st0" width="185.2" height="7.3"/>
	<rect x="63.8" y="120.9" class="st0" width="185.2" height="7.3"/>
	<rect x="63.8" y="129" class="st0" width="185.2" height="7.3"/>
	<rect x="63.8" y="137.2" class="st0" width="185.2" height="7.3"/>
	<rect x="63.8" y="145.4" class="st0" width="185.2" height="7.3"/>
	<rect x="63.8" y="153.5" class="st0" width="185.2" height="7.3"/>
	<rect x="79.3" y="86.7" class="st1" width="1.3" height="141.3"/>
	<polygon class="st1" points="77.6,234.1 82.2,234.1 81.1,227.4 78.8,227.4 	"/>
	<rect x="74.6" y="86.7" class="st1" width="1.3" height="176.9"/>
	<polygon class="st1" points="72.9,268.5 77.6,268.5 76.4,261.9 74.1,261.9 	"/>
	<rect x="55.7" y="76.6" class="st2" width="201.4" height="15.2"/>
	<circle class="st0" cx="415.3" cy="285.8" r="37.6"/>
	<circle class="st2" cx="417" cy="286.6" r="35.9"/>
	
		<ellipse transform="matrix(0.8142 -0.5806 0.5806 0.8142 -88.9325 295.3617)" class="st3" cx="417" cy="286.6" rx="33.6" ry="33.6"/>
	<path class="st4" d="M449.9,279.5c-15.3,9.3-40.5,24.5-54.5,32.8c-4-3.4-7.1-7.6-9.2-12.4l46.5-43.1
		C441.5,261.5,447.8,269.8,449.9,279.5z"/>
	<path class="st4" d="M450.6,287.8c-0.1,3.7-0.9,7.4-2.2,10.9l-41.9,19.8c-1.8-0.6-3.6-1.4-5.3-2.3C413.8,309,437,295.6,450.6,287.8
		z"/>
	<rect x="416.7" y="255.5" class="st5" width="0.6" height="5.1"/>
	<rect x="402.4" y="259.3" transform="matrix(0.866 -0.5 0.5 0.866 -76.9564 236.4225)" class="st5" width="0.6" height="5.1"/>
	<rect x="391.9" y="269.8" transform="matrix(0.5 -0.866 0.866 0.5 -39.7183 475.8148)" class="st5" width="0.6" height="5.1"/>
	<rect x="385.8" y="286.3" class="st5" width="5.1" height="0.7"/>
	
		<rect x="389.7" y="300.6" transform="matrix(0.8659 -0.5003 0.5003 0.8659 -97.9273 236.5964)" class="st5" width="5.1" height="0.6"/>
	
		<rect x="400.2" y="311.1" transform="matrix(0.4997 -0.8662 0.8662 0.4997 -68.2789 504.6399)" class="st5" width="5.1" height="0.6"/>
	<rect x="416.7" y="312.7" class="st5" width="0.6" height="5.1"/>
	<rect x="431" y="308.9" transform="matrix(0.866 -0.5 0.5 0.866 -97.9151 257.3788)" class="st5" width="0.6" height="5.1"/>
	
		<rect x="441.5" y="298.4" transform="matrix(0.5002 -0.8659 0.8659 0.5002 -39.7654 533.019)" class="st5" width="0.6" height="5.1"/>
	<rect x="443.1" y="286.3" class="st5" width="5.1" height="0.7"/>
	
		<rect x="439.3" y="272" transform="matrix(0.8659 -0.5003 0.5003 0.8659 -76.9747 257.5695)" class="st5" width="5.1" height="0.7"/>
	
		<rect x="428.8" y="261.5" transform="matrix(0.4995 -0.8663 0.8663 0.4995 -10.9755 504.7039)" class="st5" width="5.1" height="0.7"/>
	<polygon class="st5" points="417.5,257.8 418.6,288.9 415.4,288.9 416.6,257.7 	"/>
	<polygon class="st6" points="436.9,275.8 415.9,289.1 414.4,286.3 436.5,275 	"/>
	<path class="st5" d="M418.1,286.6c0,0.6-0.5,1.1-1.1,1.1c-0.6,0-1.1-0.5-1.1-1.1s0.5-1.1,1.1-1.1c0,0,0,0,0,0
		C417.6,285.5,418.1,286,418.1,286.6C418.1,286.6,418.1,286.6,418.1,286.6z"/>
</g>
<g id="freepik--Table--inject-28">
	<polygon class="st1" points="30.7,440 85.5,439.8 140.3,439.7 250,439.5 359.7,439.7 414.5,439.8 469.3,440 414.5,440.2 
		359.7,440.3 250,440.5 140.3,440.3 85.5,440.2 	"/>
</g>
<g id="freepik--Character--inject-28">
	<path class="st7" d="M201.1,360v0.1c0,0,0,0.1,0,0.1s0,0.2,0.1,0.3v0.2c0,0.1,0.1,0.3,0.1,0.4c0,0.1,0,0.2,0.1,0.3s0.1,0.4,0.1,0.7
		s0.1,0.8,0.2,1.3l0.4,2.4c0.1,0.3,0.1,0.5,0.1,0.8s0.1,0.8,0.2,1.2s0.2,0.9,0.2,1.4l0,0c0.1,0.3,0.1,0.7,0.2,1
		c0.2,1.1,0.4,2.2,0.6,3.4c0,0,0,0.1,0,0.1c0.2,1.4,0.5,2.8,0.8,4.4c0.1,0.4,0.1,0.8,0.2,1.2s0.2,0.8,0.2,1.3l0,0
		c0,0.3,0.1,0.5,0.1,0.8l0,0c0.4,2.1,0.8,4.4,1.2,6.8c0.1,0.8,0.3,1.6,0.4,2.4c0.3,1.6,0.6,3.2,0.9,4.9c0.1,0.4,0.1,0.8,0.2,1.2
		c0.4,2.4,0.9,5,1.4,7.6c0.1,0.3,0.1,0.5,0.1,0.8c0.2,1.2,0.5,2.5,0.7,3.8c0,0.1,0,0.2,0.1,0.3l0.3,1.8c0.4,2.4,0.9,4.9,1.4,7.5
		c0.1,0.6,0.2,1.3,0.4,1.9c0.2,1.3,0.5,2.6,0.7,3.9c0.3,1.6,0.6,3.3,0.9,4.9s0.6,3.3,0.9,5c0.2,0.9,0.3,1.7,0.5,2.5
		c0.2,1,0.4,2,0.6,3.1H302c-10.7-44.3-19.6-80-19.6-80L201.1,360z"/>
	<path class="st8" d="M214.2,370c4.3,23.3,8.7,46.7,13.1,70h1.2c-4.6-23.4-9.3-46.7-14-70.1C214.5,369.7,214.2,369.8,214.2,370z"/>
	<path class="st1" d="M201.2,360c0,0,0,0,0,0.1s0,0.1,0,0.1s0,0.2,0.1,0.3v0.2c0,0.1,0.1,0.3,0.1,0.4c0,0.1,0,0.2,0.1,0.3
		s0.1,0.4,0.1,0.7s0.1,0.8,0.2,1.3c0.1,0.7,0.3,1.5,0.4,2.4c0.1,0.3,0.1,0.5,0.1,0.8s0.1,0.8,0.2,1.2s0.2,0.9,0.2,1.4l0,0
		c0.1,0.3,0.1,0.7,0.2,1c0.2,1.1,0.4,2.2,0.6,3.4c0,0,0,0.1,0,0.1c0.2,1.4,0.5,2.8,0.8,4.3c0.1,0.4,0.1,0.8,0.2,1.2s0.2,0.8,0.2,1.3
		l0,0c0.1,0.3,0.1,0.5,0.1,0.8l0,0c0.4,2.1,0.8,4.4,1.2,6.8c0.1,0.8,0.3,1.6,0.4,2.4c0.3,1.6,0.6,3.2,0.9,4.9
		c0.1,0.4,0.1,0.8,0.2,1.2c0.5,2.5,0.9,5,1.4,7.6c0.1,0.3,0.1,0.5,0.1,0.8c0.2,1.2,0.5,2.5,0.7,3.8c0,0.1,0,0.2,0.1,0.3l0.3,1.8
		c0.4,2.4,0.9,4.9,1.4,7.5c0.1,0.6,0.2,1.3,0.4,1.9c0.2,1.3,0.5,2.6,0.7,3.9c0.3,1.6,0.6,3.3,0.9,4.9s0.6,3.3,0.9,5
		c0.2,0.9,0.3,1.7,0.5,2.5c0.2,1,0.4,2,0.6,3.1H259l3.5-35.5l0.1-1.3l0.1-1.4l0,0l0.7-7l0,0l0.6-6l2.8-28.8H201.2z"/>
	<path class="st7" d="M152.1,440h93.2c0.2-8.6,0.3-16.9,0.5-24.7l0,0c0-0.2,0-0.4,0-0.6c0,0,10.9-6.4,16.7-11.5
		c1-0.8,1.9-1.7,2.7-2.7l0,0l0,0c3.8-4.8,7.5-23.2,15.3-40.5h-114C148.1,396,149.4,424.9,152.1,440z"/>
	<path class="st1" d="M268,399.2c-5.5,2.3-10.5,5.8-15.5,9.1c-5.1,3.5-9.8,7.5-14.7,11.3c-0.2,0.1,0,0.5,0.2,0.3
		c5.2-3.3,10.6-6.2,15.7-9.6c5.1-3.4,10.2-6.5,14.5-10.7C268.4,399.5,268.2,399.1,268,399.2z"/>
	<path class="st1" d="M268.7,367.2c-0.7,3.5-1.5,7.1-2.3,10.6c-0.7,3.3-1.2,6.7-2.1,10c-0.7,3.2-2.3,6.1-4.6,8.3
		c-1.3,1.2-2.7,2.3-4.1,3.4c-0.7,0.6-1.6,1.2-2.3,1.8c0.1-0.5,0.2-1,0.3-1.4c0.2-1.4,0.5-2.7,0.7-4c0.5-3,1-6,1.4-9
		c0.9-5.9,1.7-11.8,3-17.7c0-0.1,0-0.2-0.1-0.2c-0.1,0-0.2,0-0.2,0.1c-1.5,5.8-3.1,11.5-4.4,17.3c-0.6,2.9-2.9,17-3,18
		s-0.2,2.1-0.2,3.1c-0.1,1.1-0.1,2.1,0,3.2c0.1,0.1,0.2,0.2,0.4,0.1c0.1,0,0.1-0.1,0.1-0.1l0,0c0.4-1,0.7-2,0.9-3.1
		c0.3-1,0.5-2,0.7-3.1c0.1-0.4,0.1-0.7,0.2-1.1c1.4-0.9,2.7-2,4-2.9c1.3-0.9,2.8-2,4.1-3.1c2.4-2.1,4.2-4.8,5.1-7.9
		c0.9-3.3,1.4-6.7,1.7-10.1c0.5-4,0.8-8,1.3-12C269.1,367,268.7,366.9,268.7,367.2z"/>
	<path class="st1" d="M173.9,391.9c1.5-0.8,7.2,0.6,17.7-1.2c2.1-0.3,4-1.1,5.7-2.3c2.7-2.2,4.8-5.8,6.5-8.9c2-3.5,3.5-7.2,4.5-11
		c0.1-0.2,0.4-0.1,0.4,0.1c-0.4,2.2-0.6,4.3-1.2,6.5c-0.6,2-1.3,4-2.2,5.9c-1.6,3.6-3.4,7.4-6.6,9.8c-3.4,2.5-8,3-12.1,3.3
		c-2.4,0.2-11.6-0.1-12.8-1.4C173.5,392.4,173.6,392.1,173.9,391.9C173.8,391.9,173.8,391.9,173.9,391.9z"/>
	<path class="st9" d="M246.3,224.6C269,237.2,353.1,269.5,372,258c14.1-8.6,12.1-26.9,0.1-38.8c-10.4-10.3-88.4-13.2-110.2-13.8
		C241.1,204.8,224,212.2,246.3,224.6z"/>
	<path class="st10" d="M302.2,253.1l33.9-46.5c0,0-58.7-5.7-83.4-3.6c-25.8,2.2-31.1,12.3,0.1,26.7
		C283.4,243.8,302.2,253.1,302.2,253.1z"/>
	<path class="st1" d="M296.5,244.1c0.7-1.2,1.5-2.3,2.3-3.4s1.6-2.3,2.4-3.5c1.6-2.4,3.3-4.7,5-7c3.4-4.6,6.7-9.3,10.1-13.9
		c0.9-1.3,1.9-2.5,2.9-3.8s2.1-2.5,3.2-3.8c0.1-0.1,0.2,0,0.1,0.1c-0.8,1.2-1.5,2.4-2.3,3.6s-1.6,2.4-2.5,3.6c-1.7,2.3-3.3,4.7-5,7
		c-3.3,4.5-6.7,9.1-10.1,13.6l-2.9,3.7c-1,1.3-2,2.7-3.1,3.9C296.5,244.2,296.4,244.2,296.5,244.1z"/>
	<path class="st3" d="M273.8,210.3c-0.6,1.3-1.1,2.8-1.3,4.2c1-1.1,1.8-2.4,2.4-3.8c0.6-1.3,1.1-2.8,1.3-4.2
		C275.2,207.7,274.4,208.9,273.8,210.3z M286.6,232.4c-1.3-0.6-2.8-1.1-4.2-1.3c2.3,1.9,5.1,3.2,8,3.7
		C289.2,233.7,287.9,232.9,286.6,232.4L286.6,232.4z M251.4,216.5c-1.3-0.6-2.8-1.1-4.2-1.3c2.3,1.9,5.1,3.2,8,3.7
		C254,217.9,252.7,217.1,251.4,216.5L251.4,216.5z M302.5,214.2c-0.5-1.4-1.2-2.7-2.1-3.9c0.3,3,1.3,5.8,3,8.2
		C303.4,217,303.1,215.6,302.5,214.2L302.5,214.2z M312.8,231.2c-1.4,0.5-2.7,1.2-3.9,2.1c3-0.3,5.8-1.3,8.2-3
		C315.7,230.3,314.2,230.7,312.8,231.2L312.8,231.2z"/>
	<path class="st1" d="M252.7,229.7c30.7,14.1,49.5,23.4,49.5,23.4l10.8-14.9l-81.3-27.8C229.4,215.1,235.5,221.7,252.7,229.7z"/>
	<path class="st9" d="M324.4,122.1c-6.3-8.8-22.4-21-38.4-30.4c-7.8-4.6-31.5-15.5-35.5-9.8s2.7,9.5,2.7,9.5s-10.7-3.1-14.2,3
		s7,11.7,7,11.7s-11.2-2.4-14.3,4s8.5,10.1,8.5,10.1s-10.2-2.6-10.5,3.6c-0.4,7.6,18.9,10.3,27.3,15.8c1.9,1.2,36.6,28.2,36.6,28.2
		L324.4,122.1z"/>
	<path class="st1" d="M240.3,120.3c14.2,2.1,20,5.4,30.8,14.6c0.2,0.2,0.5-0.1,0.3-0.3c-9.7-9.9-16.4-15.2-31-15
		C239.7,119.6,239.7,120.2,240.3,120.3z"/>
	<path class="st1" d="M245.5,105.8c14.6,3.4,20.9,7,32.9,15.8c0.2,0.1,0.4-0.2,0.2-0.3c-11-9.6-17.8-14.7-32.8-16.2
		C245.1,105,244.8,105.6,245.5,105.8z"/>
	<path class="st1" d="M254.4,91.7c13.8,4.3,21,8,31.5,18c0.1,0.1,0.3,0.1,0.4,0c0.1-0.1,0.1-0.2,0-0.3c-9.7-11.2-18.6-15.8-31.7-18
		C253.6,91.1,253.5,91.4,254.4,91.7z"/>
	<path class="st9" d="M299,176.4c0,0-17.5-3.9-24.9-7.3s-30-26.1-25.4-31.3c6-6.7,21.6,3.9,28.6,10c0,0,13.8-15.5,26.7-10.3
		S299,176.4,299,176.4z"/>
	<path class="st1" d="M251.1,136.6c9.8-2.2,18.5,6.5,25.7,12c0.3,0.3,0.9,0.3,1.2-0.1c0.1-0.1,0.1-0.2,0.2-0.3
		c6.2-6.1,16.8-12.9,25.8-11.2c0.1,0,0.2-0.1,0.2-0.2c0-0.1,0-0.2-0.1-0.2c-9.4-3.2-20.4,2.7-26.7,9.8
		C270,140.7,260.9,132.4,251.1,136.6C251,136.5,251,136.5,251.1,136.6C251,136.6,251,136.6,251.1,136.6z"/>
	<path class="st9" d="M381.8,241.7c-0.6,19.4-23.7,18.1-33.6,8.9c-23.4-21.7-57.8-65.9-67.2-93.1c-3-8.8,32.3-47.3,39.1-40.2
		C332.4,129.9,383.1,202.2,381.8,241.7z"/>
	<path class="st1" d="M322.7,223c1.7,1.8,3.4,3.5,5,5.4s3.3,3.6,4.9,5.4l4.8,5.5c0.8,0.9,1.6,1.8,2.4,2.7s1.6,1.8,2.5,2.7
		c-1.9-1.5-3.7-3.2-5.4-4.9c-1.7-1.7-3.4-3.5-5-5.4s-3.2-3.7-4.7-5.6S324.1,225,322.7,223z"/>
	<path class="st1" d="M332.5,234.4c0.8,1.2,1.5,2.3,2.2,3.5c0.3,0.6,0.7,1.2,1,1.8c0.3,0.6,0.6,1.3,0.9,1.9c-1.1-0.9-2.1-2-2.8-3.2
		c-0.4-0.6-0.7-1.2-0.9-1.9C332.6,235.8,332.5,235.1,332.5,234.4z"/>
	<path class="st10" d="M290.9,379.2H156c0,0,20.6-128.7,70.3-172.7c6.1-5.4,20-4.2,29,0.3c3.2,1.6,14.8,17.8,18.1,33.2
		S291.3,378.7,290.9,379.2z"/>
	<path class="st3" d="M210.8,243.6c-1.4,0.5-2.7,1.2-3.9,2.1c3-0.3,5.8-1.3,8.2-3.1C213.6,242.7,212.2,243,210.8,243.6z
		 M276.4,258.5c-0.1,0-0.1,0.1-0.2,0.1h0.2C276.4,258.7,276.4,258.5,276.4,258.5L276.4,258.5z M241.4,278.8
		c-1.4,0.5-2.7,1.2-3.9,2.1c3-0.3,5.8-1.3,8.2-3C244.2,278,242.8,278.3,241.4,278.8L241.4,278.8z M223,334.7
		c-1.4,0.5-2.7,1.2-3.9,2.1c1.5-0.1,2.9-0.5,4.3-1c1.4-0.5,2.7-1.2,3.9-2.1C225.8,333.8,224.4,334.2,223,334.7z M192.1,295.7
		c-1.4,0.5-2.7,1.2-3.9,2.1c3-0.3,5.8-1.3,8.2-3C195,294.9,193.5,295.2,192.1,295.7L192.1,295.7z M164.5,373.4
		c-1.4,0.5-2.7,1.2-3.9,2.1c3-0.3,5.8-1.3,8.2-3.1C167.3,372.6,165.9,372.9,164.5,373.4L164.5,373.4z M224,368.6
		c-1.4,0.5-2.7,1.2-3.9,2.1c3-0.3,5.8-1.3,8.2-3.1C226.9,367.7,225.4,368.1,224,368.6L224,368.6z M290.4,374.1
		c-1,0.2-1.9,0.5-2.8,0.8c-1.4,0.5-2.7,1.2-3.9,2.1c1.5-0.1,2.9-0.5,4.3-1c0.9-0.3,1.7-0.7,2.5-1.1
		C290.5,374.6,290.5,374.3,290.4,374.1L290.4,374.1z M262.5,333.2c-1.4,0.5-2.7,1.2-3.9,2.1c3-0.3,5.8-1.3,8.2-3
		C265.4,332.3,263.9,332.6,262.5,333.2L262.5,333.2z M224.7,222.7c-0.5-1.4-1.2-2.7-2.1-3.9c0.3,3,1.3,5.8,3.1,8.2
		C225.6,225.6,225.2,224.1,224.7,222.7z M195,373.7c-0.5-1.4-1.2-2.7-2.1-3.9c0.3,3,1.3,5.8,3.1,8.2
		C195.9,376.5,195.5,375.1,195,373.7z M189.1,336.1c-0.5-1.4-1.2-2.7-2.1-3.9c0.1,1.5,0.5,2.9,1,4.3c0.5,1.4,1.2,2.7,2.1,3.9
		C189.9,339,189.6,337.5,189.1,336.1L189.1,336.1z M240.4,313.8c-0.5-1.4-1.2-2.7-2.1-3.9c0.3,3,1.3,5.8,3.1,8.2
		C241.3,316.6,240.9,315.2,240.4,313.8L240.4,313.8z M222.2,265.6c-0.5-1.4-1.2-2.7-2.1-3.9c0.3,3,1.3,5.8,3.1,8.2
		C223.1,268.4,222.8,267,222.2,265.6L222.2,265.6z M247.1,375.6c0.1,1.2,0.3,2.5,0.8,3.6h1.2C248.6,377.9,247.9,376.7,247.1,375.6
		L247.1,375.6z M285.3,347.6c-0.5-1.4-1.2-2.7-2.1-3.9c0.1,1.5,0.5,2.9,1,4.3c0.5,1.4,1.2,2.7,2.1,3.9
		C286.2,350.4,285.9,348.9,285.3,347.6L285.3,347.6z M262,238.1c-0.5-1.4-1.2-2.7-2.1-3.9c0.1,1.5,0.5,2.9,1,4.3
		c0.5,1.4,1.2,2.7,2.1,3.9C262.9,240.9,262.5,239.4,262,238.1z M251.4,216.5c-1.3-0.6-2.8-1.1-4.2-1.3c2.3,1.9,5.1,3.2,8,3.7
		C254,217.9,252.7,217.1,251.4,216.5L251.4,216.5z M207.2,317.6c-1.3-0.6-2.8-1.1-4.2-1.3c1.1,1,2.4,1.8,3.8,2.4
		c1.3,0.6,2.8,1.1,4.2,1.3C209.9,319,208.6,318.2,207.2,317.6z M172.3,352.7c-1.3-0.6-2.8-1.1-4.2-1.3c2.3,1.9,5.1,3.2,8,3.7
		C175,354.1,173.7,353.3,172.3,352.7z M263.6,361.5c-1.3-0.6-2.8-1.1-4.2-1.3c2.3,1.9,5.1,3.2,8,3.7
		C266.2,362.9,264.9,362.1,263.6,361.5z M260.7,305.7c-1.3-0.6-2.8-1.1-4.2-1.3c1.1,1,2.4,1.8,3.8,2.4c1.3,0.6,2.8,1.1,4.2,1.3
		C263.3,307.1,262,306.3,260.7,305.7z M251.4,258.4c-1.3-0.6-2.8-1.1-4.2-1.3c2.3,1.9,5.1,3.2,8,3.7
		C254,259.8,252.7,259,251.4,258.4z M195.8,271.5c-0.6,1.3-1.1,2.8-1.3,4.2c1.9-2.3,3.2-5.1,3.7-8
		C197.2,268.9,196.4,270.2,195.8,271.5z M240.6,349.2c-0.6,1.3-1.1,2.8-1.3,4.2c1-1.1,1.8-2.4,2.4-3.8c0.6-1.3,1.1-2.8,1.3-4.2
		C242,346.6,241.2,347.8,240.6,349.2L240.6,349.2z M268,280.6c-0.6,1.3-1.1,2.8-1.3,4.2c1-1.1,1.7-2.4,2.4-3.8
		c0.6-1.3,1.1-2.8,1.3-4.2C269.4,278,268.6,279.3,268,280.6z M206.7,353.2c-0.6,1.3-1.1,2.8-1.3,4.2c1.9-2.3,3.2-5.1,3.7-8
		C208.1,350.6,207.3,351.8,206.7,353.2z M171.6,315.6c-0.6,1.3-1.1,2.8-1.3,4.2c1-1.1,1.7-2.4,2.4-3.8c0.6-1.3,1.1-2.8,1.3-4.2
		C173,313,172.2,314.3,171.6,315.6z M219.4,294.6c-0.6,1.3-1.1,2.8-1.3,4.2c1-1.1,1.7-2.4,2.4-3.8c0.6-1.3,1.1-2.8,1.3-4.2
		C220.7,292,220,293.3,219.4,294.6L219.4,294.6z M236.9,239.8c-0.6,1.3-1.1,2.8-1.3,4.2c1-1.1,1.8-2.4,2.4-3.8
		c0.6-1.3,1.1-2.8,1.3-4.2C238.3,237.2,237.5,238.5,236.9,239.8L236.9,239.8z"/>
	<path class="st9" d="M203.2,383.8c0-7.5,2.2-53.2,0.9-68.1c-0.4-5,16.9-60.9,21.4-79.7c4.2-17.6-4.8-25.4-17.9-8.8
		c-10.9,13.8-39.6,67.7-45.4,82.1s-11.8,62.9-11.8,73.1C150.5,390.5,203.2,391.2,203.2,383.8z"/>
	<path class="st9" d="M209,448.8c-5.2,2.6-9.4-1.7-9.4-1.7c-1.5,2.5-3.8,4.3-6.6,5.3c-4.9,1.4-9.3-5.6-9.3-5.6
		c-2.1,2.2-4.8,3.8-7.8,4.5c-4.8,0.9-10.3-5.6-10.3-5.6c-3.1,1-6.4,0.8-9.4-0.4c-7.8-3.7-9.3-16.7-10.4-25s4.2-35.2,4.7-40l52.6-5
		c0,0,15.4,35.8,15.2,45.7C218.2,429.3,214.8,445.8,209,448.8z"/>
	<path class="st1" d="M199.8,446.9c2.2-8.9,1.8-17.9,1.8-27c0-0.1-0.1-0.1-0.2-0.1c-0.1,0-0.1,0.1-0.1,0.1c0.1,9-1.6,17.9-1.9,26.9
		c0,0.1,0,0.2,0.2,0.3C199.7,447,199.8,447,199.8,446.9z"/>
	<path class="st1" d="M184.4,446.4c0.3-2.1,0.4-4.2,0.1-6.2c-0.1-2.2-0.3-4.4-0.4-6.6c-0.4-4.4-0.8-8.8-1.4-13.2
		c0-0.2-0.3-0.2-0.3,0c0.4,4.4,0.6,8.8,0.8,13.2c0.1,2.2,0.1,4.4,0.2,6.6c-0.1,2.1,0.1,4.2,0.4,6.2c0.1,0.2,0.2,0.3,0.4,0.2
		C184.3,446.6,184.4,446.5,184.4,446.4z"/>
	<path class="st1" d="M165.6,445.3c0.5-1.7,0-3.8-0.2-5.6c-0.2-2-0.4-4-0.6-6c-0.4-4-0.7-8-0.9-12c0-0.2-0.3-0.2-0.3,0
		c0.2,4.1,0.4,8.2,0.6,12.3c0.1,2,0.2,4,0.4,6c0.1,1.7,0.1,3.9,0.8,5.4C165.5,445.5,165.6,445.4,165.6,445.3z"/>
	<path class="st10" d="M214.7,293.7l-54.5,0.2c0,0,29.8-50.9,46-69.7c16.9-19.6,28.2-18,21.6,15.7
		C221.3,273.1,214.7,293.7,214.7,293.7z"/>
	<path class="st3" d="M195.8,271.5c-0.6,1.3-1.1,2.8-1.3,4.2c1.9-2.3,3.2-5.1,3.7-8C197.2,268.9,196.4,270.2,195.8,271.5z
		 M203.9,227.1l-0.6,0.7c0.7,0.2,1.4,0.4,2.2,0.5C205,227.8,204.5,227.4,203.9,227.1z M186.5,255.1c-0.3-0.7-0.6-1.4-0.9-2.1l-0.6,1
		l0,0c0.1,0.5,0.3,1,0.5,1.5c0.5,1.4,1.2,2.7,2.1,3.9C187.4,257.9,187,256.4,186.5,255.1L186.5,255.1z M222.2,265.6
		c-0.5-1.4-1.2-2.7-2.1-3.9c0.1,1.5,0.5,2.9,1,4.3c0.2,0.5,0.4,1,0.6,1.5C222,266.9,222.1,266.3,222.2,265.6L222.2,265.6z
		 M224.7,222.8c-0.5-1.4-1.2-2.7-2.1-3.9c0.3,3,1.3,5.8,3.1,8.2C225.6,225.6,225.2,224.1,224.7,222.8L224.7,222.8z M170.1,281.9
		c-1.4,0.5-2.7,1.2-3.9,2l0,0l0,0c3-0.3,5.8-1.3,8.2-3C172.9,281,171.5,281.3,170.1,281.9L170.1,281.9z M210.8,243.6
		c-1.4,0.5-2.7,1.2-3.9,2.1c3-0.3,5.8-1.3,8.2-3.1C213.6,242.7,212.2,243,210.8,243.6L210.8,243.6z"/>
	<path class="st1" d="M169.1,285.1c1.4-0.1,2.8-0.1,4.1-0.1l4.2-0.1c2.9-0.1,5.7-0.1,8.6-0.1c5.7,0,11.5,0,17.2,0.1
		c1.6,0,3.1,0.1,4.7,0.1s3.3,0.3,5,0.3c0.1,0,0.1,0.1,0,0.2c-1.4,0-2.8,0.2-4.3,0.2s-2.9,0.1-4.4,0.1c-2.9,0-5.7,0-8.6,0
		c-5.6,0-11.3-0.1-16.9-0.3l-4.7-0.2c-1.6,0-3.3,0-5-0.2C169.1,285.3,169.1,285.1,169.1,285.1z"/>
	<path class="st1" d="M222,268.5c1.2-1.8,2-3.8,2.4-5.8c0,0-0.1,0-0.1,0c-0.6,1.8-1.3,3.5-2.2,5.2l0.5-2.2c0.6-2.7,1.2-5.4,1.7-8.2
		c0,0-0.1-0.1-0.1,0c-1.4,4.7-2.5,9.4-3.8,14.1s-2.5,9.5-3.8,14.3c-0.7,2.6-1.4,5.2-2,7.8c-0.9,0.1-1.6,0-2.4,0.1
		c-0.2,0-0.2,0.4,0,0.4c1,0.1,2,0.1,3,0C218,285.6,220.1,277,222,268.5z"/>
	<path class="st1" d="M222.9,213.6c3.8,7.1,9.4,13,16.2,17.3c3.3,2.2,7,3.5,10.9,3.8c2,0.2,4.1-0.2,5.8-1.2c1.6-1.2,2.9-2.8,3.8-4.6
		c1-2.1,1.7-4.3,2.1-6.6c0.4-2.6,0.7-5.2,0.8-7.8c0-0.1,0.1-0.1,0.1,0c-0.1,2.5,0.1,5-0.2,7.5c-0.2,2.2-0.6,4.3-1.4,6.4
		c-0.7,2-1.8,3.7-3.3,5.2c-1.5,1.5-3.5,2.3-5.6,2.5c-4.1,0.2-8.2-0.8-11.8-2.9c-3.6-2-6.9-4.6-9.7-7.6c-3.3-3.5-5.9-7.5-7.9-11.8
		c0,0,0-0.1,0-0.2C222.8,213.5,222.8,213.5,222.9,213.6C222.9,213.6,222.9,213.6,222.9,213.6z"/>
	<path class="st9" d="M253.4,229.2c-7.7,2.1-21.5-9.2-27.2-18.6c-0.4-0.6,0.4-7.6,0.8-16.2c0.3-5.2,0.5-11,0.2-16.3
		c-0.1-1.1,33.5,6.7,33.5,6.7s-2.8,11.2-2.4,20.4c0,0.7,0.1,1.5,0.3,2.2c0,0.1,0,0.2,0.1,0.4C259.6,211.9,260.9,227.1,253.4,229.2z"
		/>
	<path class="st1" d="M255.4,208.1c1.1,0,2.3-0.1,3.4-0.3c0-0.1,0-0.2-0.1-0.4c-0.2-0.7-0.3-1.4-0.3-2.2c-0.4-9.2,2.4-20.4,2.4-20.4
		s-27.2-6.3-32.6-6.8C229.5,184.1,235.8,208.5,255.4,208.1z"/>
	<path class="st9" d="M229.8,132.1c-6,10.7-7.2,45.3-0.6,54.5c9.5,13.3,28.7,18.6,40.9,6.3c11.9-11.9,12.6-56.9,4.9-65.7
		C263.7,114.4,238.6,116.3,229.8,132.1z"/>
	<path class="st1" d="M269.5,135.9c-2.9,3.5-7.4,5.3-11.9,4.7c-4.4-0.6-8.8-3.6-10.4-7.8c0-0.1-0.1-0.1-0.2,0c0,0-0.1,0.1,0,0.1
		c1.8,4.5,5.5,8.1,10.4,8.7c4.8,0.5,9.5-1.6,12.3-5.5C269.8,135.9,269.6,135.7,269.5,135.9z"/>
	<path class="st1" d="M256.5,107.9c-5.4-1.5-11.4,1.2-14.6,5.6c-1.9,2.7-3,5.8-3.3,9.1c0,0.1,0.1,0.1,0.1,0.1c0,0,0.1,0,0.1-0.1
		c0.9-5.1,4.1-10.3,8.9-12.7c4.5-2.4,9.9-1.7,13.6,1.8c2,1.9,3.3,4.4,3.7,7.1c0,0.1,0.2,0.2,0.3,0.2c0.1,0,0.2-0.1,0.2-0.2
		C265,113.6,261.4,109.3,256.5,107.9z"/>
	<path class="st1" d="M297.4,120.4c-1.2-3.5-3.7-6.5-6.9-8.4c-4.5-2.6-9.4-2.1-14.3-1.6c-0.1,0-0.1,0.1-0.1,0.1c0,0,0,0.1,0.1,0.1
		c4.2-0.5,8.5-0.8,12.4,1.2c3.2,1.6,5.8,4.2,7.3,7.4c3,6.9,0.5,15-5.9,18.9c-3.7,2.1-8,2.7-12.1,1.5c-0.1,0-0.3,0.2-0.1,0.2
		c8.1,2.7,16.9-1.6,19.6-9.7C298.4,127,298.4,123.6,297.4,120.4L297.4,120.4z"/>
	<path class="st1" d="M227.8,136.8c0,0,0.6-10.6,3.3-13.8s8.8-4,8.8-4s3.5-8.9,12-9.5c7.6-0.5,12.8,6.2,12.8,6.2s10.6-10.5,22.6-4.6
		c11.5,5.7,10,23.1-1,28.7c-7.8,3.9-18.5-2.9-18.5-2.9c-1,0.1-11.4,6.6-19.5-2.6c0,0-7.1,5.6-11.3,1.7
		C237,136,231.5,138.7,227.8,136.8z"/>
	<path class="st11" d="M236.4,124.6c-0.4,5.2-1.6,20.1-3.5,23.3s-6.4,11.8-8.3,12.4c0.2-11.2,2-22.7,5-28.1
		C231.4,129.2,233.7,126.6,236.4,124.6z"/>
	<path class="st9" d="M229.5,160.1c0,0-5.4-12.3-10.9-10.5s-2.8,18.5,2.5,21.8c2.7,1.9,6.5,1.2,8.4-1.5c0,0,0.1-0.1,0.1-0.1
		L229.5,160.1z"/>
	<path class="st1" d="M219.5,154.3c-0.1,0-0.1,0.1-0.1,0.1c3.7,2.4,5.1,6.6,5.8,10.8c-0.9-1.7-2.4-2.9-4.6-1.8
		c-0.1,0.1,0,0.2,0.1,0.2c1.5-0.2,3,0.6,3.7,2c0.6,1.1,1,2.3,1.3,3.6c0.1,0.4,0.8,0.3,0.8-0.1c0,0,0-0.1,0-0.1
		C227.5,163.9,225,155.9,219.5,154.3z"/>
	<path class="st1" d="M253.6,159.5c0-0.1-0.2,0.1-0.2,0.2c0,2.3-0.4,5-2.6,5.7c-0.1,0-0.1,0.1,0,0.1
		C253.4,165.2,254,161.7,253.6,159.5z"/>
	<path class="st1" d="M251.6,157c-3.7-0.4-4.3,7.1-0.9,7.5S254.7,157.4,251.6,157z"/>
	<path class="st1" d="M268.2,160.5c0-0.1,0.2,0.1,0.2,0.2c-0.3,2.3-0.2,5,1.9,6c0.1,0,0,0.1,0,0.1
		C267.7,166.2,267.6,162.6,268.2,160.5z"/>
	<path class="st1" d="M270.5,158.2c3.8,0,3.5,7.5,0,7.5S267.3,158.2,270.5,158.2z"/>
	<path class="st1" d="M247.9,152.3c0.9-0.6,1.8-1,2.7-1.5c0.9-0.7,2-1,3.1-1c0.7,0.2,1.2,0.8,1.2,1.5c0,1.5-1.1,2.5-2.4,3.2
		c-1.2,0.8-2.7,1-4.1,0.8c-0.9-0.3-1.4-1.2-1.2-2.1C247.3,152.9,247.6,152.6,247.9,152.3z"/>
	<path class="st1" d="M275.1,155.3c-0.8-0.7-1.6-1.3-2.4-1.9c-0.8-0.8-1.7-1.3-2.8-1.5c-0.7,0-1.3,0.5-1.5,1.2
		c-0.2,1.5,0.7,2.7,1.8,3.6c1.1,1,2.5,1.5,3.9,1.5c0.9,0,1.6-0.8,1.6-1.8C275.6,156,275.4,155.6,275.1,155.3z"/>
	<path class="st1" d="M254.4,177.6c3-1,6.8-0.3,9.2,0.2c0.3,0,0.5-0.5,0.6-0.8l0,0c0-0.1,0.2-4.9,0.2-4.9c0.6,0.4,3.8,2.1,3.8,1.1
		c0.1-7.7,0.2-16.2-1.4-23.9c0-0.1-0.1-0.2-0.2-0.2c-0.1,0-0.2,0.1-0.2,0.2c-0.4,7.4,0.6,14.8,0.3,22.2c-1.1-0.6-2.3-1.1-3.6-1.4
		c-0.3,0.1,0.1,5.2-0.1,6c0,0-4.6-1.7-8.6,0.4C253.4,177.2,253,178.1,254.4,177.6z"/>
	<path class="st1" d="M249.5,180.7c0.5,0.6,1,1.4,1.9,1.5c0.9,0,1.7-0.1,2.5-0.4c0,0,0.1,0,0.1,0c0,0,0,0.1,0,0.1
		c-0.7,0.9-1.9,1.2-3,1c-0.9-0.3-1.6-1.2-1.7-2.1C249.2,180.7,249.4,180.7,249.5,180.7z"/>
	<path class="st3" d="M239.1,154.2c-3.2,0-1.5-6-0.8-8.1c0.5-2.2,0.7-4.5,0.8-6.7c0.1,2.3,0.3,4.5,0.8,6.7
		C240.6,148.2,242.3,154.2,239.1,154.2z"/>
	<path class="st1" d="M278.8,170.4c0.2-2.8,0.4-5.5,0.6-8.2s0.2-5.5,0.2-8.2s-0.1-5.5-0.2-8.2c0-1.4-0.1-2.7-0.2-4.1
		s-0.2-2.8-0.3-4.1c0.6,2.7,1.1,5.4,1.3,8.2c0.3,2.8,0.4,5.5,0.4,8.3c0,2.8-0.1,5.5-0.4,8.3c-0.1,1.4-0.3,2.7-0.5,4.1
		S279.1,169,278.8,170.4z"/>
	<path class="st0" d="M217.8,451.5c0.1,0.4,0.1,0.8,0.2,1.2C217.9,452.3,217.9,451.9,217.8,451.5L217.8,451.5z"/>
</g>
<g id="freepik--speech-bubble--inject-28">
	<path class="st3" d="M213.7,127c2.7-4,4.2-8.8,4.3-13.7c0-17.4-19.1-31.5-42.6-31.5s-42.6,14.1-42.6,31.5s19.1,31.5,42.6,31.5
		c11.4,0,21.8-3.3,29.4-8.7l14.7,3.7L213.7,127z"/>
	<path class="st1" d="M213.7,127c2.5-3.9,3.9-8.4,4-13c0.1-4.6-1.2-9.1-3.6-13c-2.4-3.9-5.6-7.2-9.3-9.8c-3.7-2.6-7.8-4.6-12.2-6
		c-4.3-1.4-8.8-2.2-13.4-2.5c-4.5-0.3-9.1,0-13.6,0.8c-4.5,0.8-8.8,2.1-12.9,4.1c-4.1,1.9-7.8,4.5-11,7.7c-3.2,3.1-5.6,7-6.9,11.2
		c-1.3,4.2-1.4,8.8-0.2,13.1c1.3,4.3,3.6,8.2,6.7,11.4c3.2,3.2,6.9,5.9,10.9,7.8c4.1,2,8.4,3.4,12.9,4.2c4.5,0.9,9,1.2,13.6,0.9
		c9.2-0.3,18.1-3.2,25.7-8.2l0.2-0.1l0.2,0.1l14.6,3.9l-0.3,0.3L213.7,127z M213.7,127l5.9,12.7l0.2,0.4l-0.5-0.1l-14.7-3.5l0.4-0.1
		c-3.8,2.7-8,4.8-12.4,6.3c-4.4,1.5-9,2.4-13.7,2.7c-4.7,0.3-9.4,0.1-14-0.7c-4.6-0.8-9.1-2.3-13.4-4.3c-4.3-2-8.2-4.8-11.5-8.1
		c-3.4-3.4-5.9-7.5-7.3-12.1c-1.4-4.6-1.3-9.6,0.1-14.2c1.5-4.6,4.1-8.7,7.5-12c3.4-3.3,7.3-6,11.7-7.9c4.3-2,8.8-3.4,13.4-4.2
		c9.3-1.6,18.8-0.9,27.7,2.1c4.4,1.5,8.6,3.6,12.4,6.4c3.8,2.7,7,6.2,9.4,10.3C219.8,108.9,219.3,119.3,213.7,127L213.7,127z"/>
	<path class="st1" d="M141.4,109.9c0-0.4,0.3-0.8,0.7-0.8c0,0,0,0,0,0c0.4,0,0.8,0.3,0.8,0.8c0,0,0,0,0,0v8.3c0,0.4-0.3,0.8-0.8,0.8
		c0,0,0,0,0,0c-0.4,0-0.8-0.3-0.8-0.8c0,0,0,0,0,0V109.9z"/>
	<path class="st1" d="M145.3,112.4c0.6-0.1,1-0.6,1-1.3c-0.5-0.1-0.8-0.5-0.8-0.9V110c0-0.5,0.4-0.9,0.9-0.9c0,0,0,0,0.1,0
		c0.6,0,1,0.5,1,1.2v0.1c0,0.7-0.2,1.5-0.7,2c-0.4,0.4-0.8,0.6-1.3,0.6c-0.2,0-0.4-0.1-0.4-0.3c0,0,0,0,0-0.1
		C145.1,112.5,145.2,112.4,145.3,112.4z"/>
	<path class="st1" d="M157.4,109.9v8.3c0,0.4-0.4,0.8-0.8,0.8c-0.4,0-0.8-0.3-0.8-0.8c0,0,0,0,0,0v-5.9l-2,2.8
		c-0.1,0.2-0.4,0.3-0.6,0.3l0,0c-0.3,0-0.5-0.1-0.6-0.3l-2-2.8v5.9c0,0.4-0.3,0.8-0.8,0.8c-0.4,0-0.8-0.3-0.8-0.8c0,0,0,0,0,0v-8.3
		c0-0.4,0.3-0.8,0.8-0.8l0,0c0.2,0,0.5,0.1,0.6,0.3l2.8,3.9l2.8-3.9c0.1-0.2,0.4-0.3,0.6-0.3l0,0C157,109.2,157.3,109.5,157.4,109.9
		z"/>
	<path class="st1" d="M164.7,116.6c0.3-0.3,0.7-0.3,1-0.1c0.8,0.6,1.7,1,2.7,1.1c0.6,0,1.2-0.2,1.8-0.5c0.4-0.2,0.6-0.6,0.6-1
		c0-0.2,0-0.3-0.1-0.4c-0.1-0.2-0.3-0.3-0.4-0.4c-0.6-0.3-1.3-0.6-1.9-0.7l0,0c-0.6-0.1-1.2-0.3-1.8-0.6c-0.5-0.2-1-0.6-1.3-1.1
		c-0.2-0.3-0.3-0.7-0.3-1.2c0-0.8,0.4-1.6,1.1-2.1c0.7-0.5,1.6-0.7,2.4-0.7c1.1,0.1,2.2,0.4,3.1,1.1c0.3,0.2,0.4,0.7,0.2,1
		c-0.2,0.3-0.6,0.4-1,0.2c0,0,0,0,0,0c-0.6-0.5-1.4-0.8-2.3-0.9c-0.6,0-1.1,0.2-1.6,0.5c-0.3,0.2-0.5,0.5-0.5,0.9
		c0,0.1,0,0.3,0.1,0.4c0.1,0.1,0.2,0.3,0.4,0.4c0.5,0.3,1.1,0.5,1.8,0.6l0,0c0.7,0.1,1.3,0.3,1.9,0.6c0.6,0.2,1.1,0.7,1.4,1.2
		c0.2,0.4,0.3,0.8,0.3,1.2c0,0.9-0.5,1.7-1.2,2.2c-0.8,0.5-1.7,0.8-2.6,0.8c-1.3-0.1-2.6-0.5-3.6-1.4
		C164.5,117.3,164.4,116.9,164.7,116.6z"/>
	<path class="st1" d="M182.1,110.4c0.9,1,1.4,2.2,1.4,3.6c0,1.3-0.5,2.6-1.4,3.6c-0.9,1-2.1,1.5-3.4,1.5c-1.3,0-2.6-0.6-3.4-1.5
		c-0.9-1-1.4-2.2-1.4-3.6c0-1.3,0.5-2.6,1.4-3.6c0.9-1,2.1-1.5,3.4-1.5C180.1,108.9,181.3,109.4,182.1,110.4z M181.9,113.9
		c0-0.9-0.3-1.8-0.9-2.5c-0.6-0.6-1.4-1-2.2-1c-0.9,0-1.7,0.4-2.3,1c-0.6,0.7-1,1.5-1,2.5c0,0.9,0.4,1.8,1,2.4
		c1.1,1.2,3,1.4,4.2,0.3c0.1-0.1,0.2-0.2,0.3-0.3C181.6,115.7,181.9,114.9,181.9,113.9L181.9,113.9z"/>
	<path class="st1" d="M192.8,117.8c0.1,0.4-0.1,0.9-0.5,1c0,0,0,0,0,0c-0.1,0-0.2,0-0.3,0l0,0c-0.2,0-0.4-0.1-0.6-0.2
		c-0.2-0.1-0.3-0.3-0.4-0.5c-0.2-0.5-0.3-1.1-0.3-1.7c0-0.2-0.1-0.4-0.2-0.6c-0.1-0.2-0.3-0.3-0.4-0.4c-0.2-0.2-0.5-0.3-0.8-0.3
		h-1.7v3c0,0.4-0.3,0.8-0.8,0.8c0,0,0,0,0,0c-0.4,0-0.8-0.3-0.8-0.8c0,0,0,0,0,0v-8.3c0-0.4,0.3-0.8,0.7-0.8c0,0,0,0,0,0h2.5
		c1.7,0,3,1.3,3,3l0,0c0,0.9-0.4,1.7-1.1,2.3c0.2,0.1,0.4,0.3,0.5,0.5c0.3,0.4,0.5,1,0.5,1.5c0,0.3,0,0.6,0.1,0.8
		C192.6,117.4,192.8,117.6,192.8,117.8z M190.8,112.2c0-0.8-0.6-1.5-1.4-1.5c0,0,0,0,0,0h-1.7v2.9h1.7
		C190.2,113.6,190.9,113,190.8,112.2C190.9,112.2,190.9,112.2,190.8,112.2L190.8,112.2z"/>
	<path class="st1" d="M201.6,117.8c0.1,0.4-0.1,0.9-0.5,1c0,0,0,0,0,0c-0.1,0-0.2,0-0.3,0l0,0c-0.2,0-0.4-0.1-0.6-0.2
		c-0.2-0.1-0.3-0.3-0.4-0.5c-0.2-0.5-0.3-1.1-0.3-1.7c0-0.2-0.1-0.4-0.2-0.6c-0.1-0.2-0.2-0.3-0.4-0.4c-0.2-0.2-0.5-0.3-0.8-0.3
		h-1.7v3c0,0.4-0.3,0.8-0.8,0.8c0,0,0,0,0,0c-0.4,0-0.8-0.3-0.8-0.8c0,0,0,0,0,0v-8.3c0-0.4,0.3-0.8,0.7-0.8c0,0,0,0,0,0h2.5
		c1.7,0,3,1.3,3,3c0,0.9-0.4,1.8-1.1,2.4c0.2,0.1,0.4,0.3,0.5,0.5c0.3,0.4,0.5,1,0.5,1.5c0,0.3,0,0.6,0.1,0.8
		C201.4,117.4,201.6,117.6,201.6,117.8z M199.6,112.2c0-0.8-0.6-1.5-1.4-1.5c0,0,0,0,0,0h-1.7v2.9h1.7
		C199,113.6,199.6,113,199.6,112.2C199.7,112.2,199.7,112.2,199.6,112.2L199.6,112.2z"/>
	<path class="st1" d="M210.4,110.5l-2.9,4v3.8c0,0.4-0.3,0.8-0.8,0.8c0,0,0,0,0,0c-0.4,0-0.8-0.4-0.8-0.8v-3.8l-2.9-4
		c-0.2-0.3-0.2-0.8,0.2-1.1c0.3-0.2,0.8-0.2,1.1,0.2l2.4,3.3l2.4-3.3c0.2-0.3,0.7-0.4,1.1-0.2C210.6,109.7,210.7,110.1,210.4,110.5
		L210.4,110.5L210.4,110.5z"/>
</g>
</svg>
