<?xml version="1.0" encoding="utf-8"?>
<!-- Generator: Adobe Illustrator 25.0.1, SVG Export Plug-In . SVG Version: 6.00 Build 0)  -->
<svg version="1.1" id="Слой_1" xmlns="http://www.w3.org/2000/svg" xmlns:xlink="http://www.w3.org/1999/xlink" x="0px" y="0px"
	 viewBox="0 0 3200 2000" style="enable-background:new 0 0 3200 2000;" xml:space="preserve">
<style type="text/css">
	.st0{fill:#FFFFFF;}
	.st1{fill:#EBF3FA;}
	.st2{fill:#CDE3FD;}
	.st3{fill:#2E3552;}
	.st4{fill:#ABC8F7;}
	.st5{fill:#D5E5FB;}
	.st6{fill:#7CA8F4;}
	.st7{fill:#FFB27D;}
	.st8{fill:#2B478B;}
	.st9{fill:#233862;}
	.st10{fill:#FFA25C;}
	.st11{fill:#D35B31;}
	.st12{fill:#ED975D;}
	.st13{fill:#1170B7;}
	.st14{fill:#E8945B;}
	.st15{fill:#466AA5;}
	.st16{fill:#DFEDFB;}
</style>
<g>
	<path class="st0" d="M1153.3,466.1c4.3-0.1,8.8-0.7,13.3-1.7c8.7-1.9,20.7-9.1,26.5-16c0.6-0.7,1.2-1.5,1.8-2.2
		c35.5-45.3-2.4-106.9-59.5-94.8c-7.5,1.6-17.1,6.8-23.7,12.6c-1.5,1.4-2.9,2.7-4,4.1c-5.2,6.3-9,12.8-11.5,19.6
		C1082.2,425.9,1110.3,467.3,1153.3,466.1z"/>
	<path class="st0" d="M2426.4,1699.5C2426.4,1699.5,2426.4,1699.5,2426.4,1699.5l17.5,0.1c-0.1,0-0.2,0-0.3-0.1H2426.4z"/>
	<path class="st0" d="M632.5,1699.5C632.5,1699.5,632.5,1699.5,632.5,1699.5l130,0.1c0,0,0,0,0-0.1H632.5z"/>
	<path class="st0" d="M1930.6,1699.5h-541.3H847.2c0,0,0,0,0,0.1h1476.1c0,0,0,0,0-0.1H1930.6z"/>
	<path class="st0" d="M2369.3,1699.5C2369.2,1699.5,2369.2,1699.5,2369.3,1699.5l11.2,0.1c0,0,0,0,0-0.1H2369.3z"/>
	<path class="st0" d="M0,0v2000h3200V0H0z M1014.5,414.2l1.2-0.4l23.3-7.2c2.5-0.8,4.2-3,4.4-5.6l0,0c0.4-6.2,1.4-12.5,2.9-18.9
		c0.8-3.4,1.8-6.6,2.9-9.9c0.8-2.2,0.2-4.7-1.4-6.4l-17-17c-2.3-2.3-2.5-6-0.4-8.5l17-20.2c0.5-0.6,1.1-1,1.7-1.4
		c2-1.1,4.5-1.1,6.5,0.2l15,10.1c1.8,1.2,4.2,1.4,6.2,0.4c0.5-0.3,1-0.6,1.4-1c10.6-9.7,23-17.1,36.6-22c2.3-0.8,3.9-2.9,4-5.3
		c0-0.3,0-0.7,0-1l-2.3-21.5c-0.3-3.1,1.7-6,4.8-6.7l0.6-0.1l25.3-5.5c3.2-0.7,6.3,1.2,7.3,4.3l8.3,26.8c0.7,2.2,2.6,3.9,4.9,4.2
		c2.9,0.5,5.9,1.1,8.8,1.8c5.5,1.4,10.7,3.1,15.7,5.2c2.3,1,5,0.5,6.8-1.3l20.8-20.8c2.2-2.2,5.8-2.4,8.2-0.3l20.5,17.3
		c2.3,2,2.8,5.3,1.1,7.9l-15.1,22.5c-1.5,2.2-1.4,5.1,0.3,7.2c7.1,9,12.8,19,16.7,29.9c1,2.6,3.7,4.3,6.4,4l16.4-1.8
		c3.1-0.3,6,1.7,6.7,4.8l5.6,26.1c0.1,0.5,0.2,1.1,0.1,1.6c-0.1,2.5-1.8,4.8-4.3,5.5l-20,6.2l-4.9,1.5c-0.5,5-1.4,10-2.6,15
		c-1.7,6.7-3.9,13.1-6.7,19.1c-1,2.3-0.6,5,1.2,6.8l16.7,16.7c2.3,2.3,2.4,5.9,0.4,8.4l-13.2,15.7l-3.8,4.5c-2.1,2.5-5.7,3-8.3,1.2
		l-18.8-12.6c-2.2-1.5-5-1.4-7,0.1c-6.2,4.6-12.8,8.6-19.8,11.8c-0.6,0.3-1.2,0.6-1.8,0.8c-0.2,0.1-0.4,0.2-0.6,0.3
		c-2.2,1.2-3.4,3.6-3.1,6.1l2.8,26.6c0.1,0.3,0,0.6,0,0.9c-0.1,2.8-2.1,5.2-4.8,5.8l-26,5.6c-3.1,0.7-6.3-1.1-7.2-4.2l-8.6-28
		c-0.7-2.4-2.8-4-5.3-4.2c-5.4-0.5-10.9-1.4-16.4-2.8c-2.9-0.7-5.8-1.6-8.6-2.5c-2.3-0.8-4.8-0.2-6.5,1.5l-20,19.9
		c-2.2,2.2-5.7,2.4-8.1,0.4l-20.3-17.1c-2.5-2.1-3-5.6-1.2-8.3l11.9-17.8c1.6-2.4,1.4-5.5-0.5-7.6c-7.6-8.2-13.8-17.6-18.6-27.7
		c-1.1-2.4-3.6-3.9-6.3-3.6l-23.9,2.5c-3.2,0.3-6.2-1.8-6.9-5l-5.6-25.9C1009.6,418.2,1011.5,415.1,1014.5,414.2z M3053,1705.9
		c0,2.1-1.7,3.8-3.8,3.8H160.3c-2.1,0-3.8-1.7-3.8-3.8v-2.6c0-2.1,1.7-3.8,3.8-3.8H595c0,0-0.1,0-0.1-0.1H274.2
		c0,0-186.9-388.8-21.6-799.6c107.7-267.7,464-354.3,741.2-309.7c91.1,14.7,202.3,52.1,326.3,19.2v-14.7c0-38.2,31.1-69.3,69.3-69.3
		h91.3c22.1-17.8,44.4-38.5,67-62.7c262.5-280.9,1013.1-280.4,1135.5,175.6c54.8,4.8,106.9,28.5,112.1,113.2
		c3.5,56.9-23.6,94-100,100.6c-4.4,36-11.7,73.8-22.2,113.4c-99.4,373.5,380,313.6,300.1,734H2457c-0.1,0-0.2,0-0.3,0.1h592.6
		c2.1,0,3.8,1.7,3.8,3.8V1705.9z"/>
	<path class="st1" d="M2211.3,1022.6c0,0.3,0.1,0.6,0.1,0.9c0,0,0.1-0.1,0.1-0.1L2211.3,1022.6z"/>
	<path class="st1" d="M2369.3,1699.5h11.2c-0.2-0.4-0.3-0.9-0.3-1.5c-0.8-0.2-1.6-0.3-2.4-0.4
		C2372.7,1697,2370.1,1698.7,2369.3,1699.5z"/>
	<path class="st1" d="M585.3,1682.8c-1.8-11.9-15.2-18.4-18.1-28.2c-2.9-9.8,11.9-23.5,11.9-23.5l2.5-3.2l0,0
		c-1.2-1.2-2.1-2.4-2.5-3.5c0,0,19.9-180,54.7-223.8c7.1-8.9,14.5-24.1,21.3-41.2l-7.6-1.1c-1.9,0.2-3.9,0.1-5.9-0.2l-113.5-16.2
		c-14.9-2.1-25.3-16-23.2-30.9l7.1-49.9c2.1-14.9,16-25.3,30.9-23.2l39.1,5.6l1.5-10.6c0.7-4.9,5.3-8.3,10.2-7.6l4.3,0.6l2.9,0.4
		c0.5-1.8,0.7-3.9,0.3-6.8c-1.5-12.6-1.5-13.7,5.5-19.3c-3.4-1.5-5.5-3.1-5.5-3.1s5.1-76.2,19.8-110.2
		c5.7-13.1,43.3-77.3,69.8-122.1c4.1-14.9,9.5-27.5,16.2-36.9c0,0-0.1,0-0.1,0s0.1-0.1,0.2-0.1c3.3-4.6,6.8-8.4,10.7-11.4
		c5.7-7.6,12-19.1,14.8-34.4c-2.4-3.1-4.1-6.9-4.9-11.6c-0.2-1.2-0.4-2.4-0.6-3.6c-12.4-13.1-14.9-48.8-8.5-61.7
		c6.5-13.1,19.5-14.3,39.5-15.6c9.1-0.5,25.1-8.9,40.8,3.8c15.7,12.7,2.1,31.2,2.1,31.2c3.5-1.4,5.8-5.8,5.8-5.8s-0.4,12.3-8.6,15.9
		c-2,0.9-3.9,1.2-5.9,1.1c2.4,19,2,55.6-8.8,58c0,0-3.8,0.6-9.5,0.9c0,1.1-0.2,8.6-1.8,21.1c-0.5,3.6-1.1,7.5-1.8,11.9
		c2.3,1.2,4.3,2.5,6.3,3.9c0.9-0.1,1.8-0.3,2.7-0.5l10.7,9.4c13,12.1,27.3,28.5,33.4,53.4c2,7.9,3.6,18.1,5,29.9
		c14.1,21.6,27.8,40.9,36.2,48.3l85.2-63.5c0,0,0.8,0.3,2.1,0.8c0.1-0.2,0.1-0.3,0.2-0.5c0,0,2.4-3,0.9-6.8
		c-1.4-3.8-1.2-9.7,1.3-13.2c2.5-3.6,4.8-12.4,6.3-12.1c3.6,0.6-1.8,12.7-0.2,15c1.4,2,3.1,1.3,3.4,1.2c0,0,0,0,0.1,0
		c0.3-0.1,0.6-0.3,0.9-0.4l24.9-35.4c0.6-0.9,1.9-1.1,2.8-0.5l12.6,8.8c0,0,0,0,0,0l6.3,4.4c0.7,0.5,0.8,1.4,0.4,2.1l-32.8,46.7
		c-0.5,0.7-1.4,0.8-2.1,0.4l-2.7-1.9c-3.6,1.7-6.2,3.6-7.8,5.1c0.5,0.8,0.9,1.7,1.3,2.6c0,0-51.8,105.4-102.7,109.9
		c-9.6,0.8-19.9-3.1-30.3-10c0.2,7.3,0.3,14.5,0.4,21.6v0.6c0.1,1.7,0.1,3.6,0.1,5.3c0.6,44.1,0,79.1-0.8,79.7
		c-0.9,0.8-2,1.2-3.2,1.2c-0.2,0-0.4,0-0.6,0c-1.3,15.7-4.9,61.7-9.1,114.8c-7,89.4-15.4,199.3-16.3,220.1
		c-1.4,36.1-7.2,93.9-7.2,93.9s-1.3,1.3-3.9,2.9c0,0,0,0,0,0c5,16.6,27.4,24.1,40.4,26.2c8.2,1.3,11.4,5.5,12.6,8.5h542.2
		c-38.2,0-69.3-31.1-69.3-69.3v-115.1c-11.8,36-43.2,77.1-69.4,99.3c-38.9,33-36.5,7.1-37.9-28.1c-1.4-35.3,38.1-75.9,41.4-94.5
		c3.2-18.6-18.8-5-37.4,22.8s-2.6,61.4-31.8,106.9c-29.2,45.5-134,15.3-134,15.3c32-22.1,57-87.1,48.5-97s-68.3,68.4-80.8,78.2
		c-12.5,9.7-53.3,11.9-91.4-39.1c-38.1-51,41.1-120.8,41.1-120.8s128.1,11,142.7-3.6c14.7-14.5-107.7-30.8-107.7-30.8
		c21.5-33.6,122.2-83.1,122.2-83.1s94.8,82.5,105.4,64.8s-87.6-68.8-87.6-68.8c32.8-23.1,90.2-23.7,90.2-23.7
		c85.1,9.8,68.1,118.5,68.1,118.5s6.5,5.4,18.6,12.3v-169.8c-33.1,13.2-83.3,14-115.6,7.3c-46.3-9.6-26.1-22.6-1.1-43.8
		s77.2-15.5,92.7-23.8c15.5-8.3-7.1-16.6-38-14.3c-30.9,2.3-46.4,33.2-96.3,37.9c-49.9,4.7-87.8-89.2-87.8-89.2
		c34.4,10.7,96.2-8.2,98.6-20.1c2.4-11.9-89.1-10.8-103.3-14.4c-14.3-3.6-39.2-32.1-23.6-89.1c15.5-57,111.7-39.1,111.7-39.1
		s65.2,99.9,84.2,102.3c19,2.4-39.1-96.3-39.1-96.3c28.4-2.7,90.6,23.5,117.6,35.7V609.5c-124,32.8-235.2-4.5-326.3-19.2
		c-277.2-44.7-633.4,41.9-741.2,309.7c-165.3,410.7,21.6,799.6,21.6,799.6H595C590.5,1696.8,586.6,1691.2,585.3,1682.8z
		 M970.6,659.7c55.8,0,116.6,14.5,121.8,101.1c3.4,55.7-26.3,90-111.8,90c-28.8,0-51.3-4.5-68.4-12.7l-42.8,38l21-52.5
		c-18.6-17.3-26.5-41.7-27.6-69.8C860.2,688.7,914.8,659.7,970.6,659.7z"/>
	<path class="st1" d="M2434.9,1697.6c-5-0.7-7.6,1.1-8.4,1.9h17.2C2440.6,1698.9,2438.1,1698,2434.9,1697.6z"/>
	<path class="st1" d="M1908.2,496.1c4.4-6,9-11.6,13.8-17.1c3.4-3.8,4.3-9.1,2.4-13.8l-19.9-47.3c-2.7-6.5,0-14,6.1-17.2l50.1-26.3
		c1.4-0.7,3-1.2,4.4-1.4c4.8-0.6,9.9,1.5,12.7,5.7l21.5,32.1c2.7,3.9,7.2,6.1,11.8,5.8c1.2-0.1,2.4-0.3,3.6-0.8
		c28.9-10.6,59.5-15.3,90.2-13.9c5.2,0.3,10-2.7,12.3-7.3c0.3-0.7,0.6-1.4,0.8-2.1l12.9-44.4c1.9-6.4,8.3-10.4,14.9-9.3l1.3,0.2
		l54.6,9.6c6.9,1.3,11.6,7.5,11,14.4l-5.3,59.9c-0.4,5,2,9.8,6.3,12.4c5.4,3.3,10.8,6.9,16,10.7c9.7,7.1,18.8,14.8,27,23
		c3.8,3.9,9.6,5,14.5,2.9l57.9-24.3c6.2-2.6,13.4-0.1,16.5,6l26.7,50.8c3,5.8,1.2,12.8-4.1,16.5l-48,32.3c-4.7,3-6.8,8.9-5.2,14.5
		c6.8,23.5,9.8,48,9,72.7c-0.2,5.9,3.8,11.4,9.5,13l33.8,9.7c6.4,1.9,10.5,8.3,9.4,15l-10,56.1c-0.2,1.2-0.5,2.2-1,3.3
		c-2.2,4.9-7.4,8-12.9,7.5l-44.7-3.9l-10.9-1c-5,9.4-10.8,18.7-17.3,27.5c-8.7,11.9-18.4,22.8-28.7,32.5c-3.9,3.7-5.2,9.4-3.1,14.4
		l19.6,46.6c2.6,6.4,0,13.7-6.1,16.9l-38.9,20.4l-11.2,5.8c-6.1,3.2-13.6,1.3-17.4-4.4l-27-40.1c-3.1-4.7-8.8-6.9-14.1-5.4
		c-16,4.2-32.3,6.7-48.7,7.4c-1.4,0.2-2.7,0.2-4.1,0.2c-0.5,0-0.9,0.1-1.4,0.1c-5.3,0.6-9.5,4.4-11,9.5l-15.9,54.9
		c-0.1,0.6-0.4,1.2-0.7,1.8c-2.4,5.4-8.3,8.5-14.3,7.5l-56-9.9c-0.4-0.1-0.7-0.2-1.1-0.2v324.2c14.8-17.1,36.4-29.2,67.9-22.6
		c0,0,51.6,17.6,74.3,48.2c0,0-103.9,16.7-99.6,35.9s114.4-27,114.4-27s76.1,74.7,85.4,111.4c0,0-115.2-21.8-106.3-4.4
		c8.9,17.5,127.7,45.8,127.7,45.8s50.6,86.5,1,121.2s-85.7,20.5-94.1,8s-39-101-49.6-94.6c-10.6,6.4-7.5,72.5,14.8,102
		c0,0-103.6-4-116.3-53.7c-12.7-49.7,11.6-75.3,3.2-105.9c-6.3-22.9-16.8-39.2-22.8-38.5v34.5c5.3,21.7,12.6,49.4,5,69.9
		c-1.8,4.7-3.4,9.2-5,13.4v136.7c0,38.2-31.1,69.3-69.3,69.3h392.7c-0.8-1.8,0.2-5.3,1.2-7.9c0.7-1.9,2.3-3.3,4.3-3.9
		c4.8-1.4,14.3-2.6,23-10.5c4.9-4.4,23.7-16.3,23.7-16.3l0.1,0c0,0,0.1,0,0.1,0c2.1-16.5,4.3-40.6,4-68.4
		c-0.3-37-4.9-80.7-19.5-122.4c-34.1-97.4-41.3-176.7-42.4-217.6c-7.6-4.5-12.9-10.9-14.1-19.9c-3.6-26.1,1.5-64.5,6.3-99.8
		c-5.2,9.8-11.4,15-18.7,12.3c-36.1-13.3-70.9-75.1-70.9-75.1s-12.9-14-15.9-24.3c-0.8-2.7-0.7-5.6,0-8.5c0.4-2.3,1.6-19.7,2.7-28.9
		l-5.2-17.5c-0.4-1.5,0.4-3.1,1.9-3.5l19.3-5.8l5.3-1.6c0.8-0.3,1.7,0.2,2,1.1l15.6,52c0.3,0.8-0.2,1.7-1.1,2l-7,2.1
		c0.1,4-5.8,16.1-5.8,16.6c0,0,0,0,0,0c0,4.3-0.2,7.7-0.2,8.3c9.5,13.9,52.2,40.5,52.2,40.5c1-11.7,2.4-22.3,4.1-31.9
		c0.7-3.7,1.4-7.2,2.1-10.5c-0.1-0.2-0.2-0.2-0.2-0.2c8.2-50.1,29.2-70.9,38.2-77.7c0.4-0.5,0.9-1,1.3-1.4c1.9-1.4,3.8-2.3,11.3-3.6
		c3.9-0.7,9.2-1.4,16.8-2.4c0,0,1.6-0.2,2.5-0.2c0.6-0.1,1.2-0.1,1.9-0.2c2.2-1.1,2.7-10.1,2.7-19.6c0-4.5-0.2-9.1-0.3-13
		c-4.7,0.4-7.8,0.3-7.8,0.3c-8.7-0.7-14.2-24-16.1-42.9c0,0-10.5-25.3,1.3-39.6c2.2-2.7,4.2-4.4,6.1-5.5c0.5-0.5,1.1-1,1.6-1.5
		c8.1-9,41.1-42.7,62.7-23.2c0.6-2,7.6-23.9,41.9-16.6c0,0-17.2-2.2-21.9,4.5c0,0,13.6-6.2,22.1-1s9.9,22.8,8.7,28.1
		c-1.3,5.3-10.7,21.2-16.9,21.2c-2.4,0-4.9-0.8-7.1-1.8c1,2.8,1.8,5.9,2.5,9.3c6.6,31.2-14.1,54.8-24.8,49
		c-6.9-3.8-12.1,8.3-12.1,8.3l0-0.1c1,22.8,7.3,37.7,11.9,41.4c1.7,0.2,5.3,0.6,9.7,1.3c0,0,0,0,0,0s15.8,1.7,27.8,7
		c0.1,0,0.2,0.1,0.3,0.1c2.7,1.1,5.1,2.4,6.8,3.8c0,0,0,0,0.1,0c0,0,0,0,0,0c0.9,0.7,1.7,1.5,2.2,2.3c0.3,0.3,0.5,0.7,0.7,1
		c12.3,23.4,24.5,82.3,33.2,124.4c-1.4,0.8-2.8,1.5-4.3,2.2c3.9,21.8,6.8,38.4,8.4,42.1c4.6,10.7,18.6,69.5,30.5,98.5
		c0,0,18.4,12.2,21.2,17.4c0.9,1.7,2.3,4.9,3.6,8.4c4.7,5.1,10.5,11.2,10.5,11.2s-3.6,1.6-5.9,1c0.8,2.2,1.3,3.6,1.3,3.6
		s-4.7,0.7-9.4-7.5c-3.1-5.4-11-7-17.4-8.7c1,4.6,2,10.2,0.8,11.3c-2.1,1.9-7.3-5.2-11-9.4c-3.7-4.2-6.8-18.5-6.8-18.6
		c-1.2-2.4-2-4-2-4s-50.4-83.6-55-105.4c-1.4-6.8-4.9-20.2-8.9-35.3c-0.1,0-0.2-0.1-0.3-0.1c7.4,48.5,24.2,100.5,25.3,122.5
		c0.2,3.2,0,5.8-0.6,7.7c-0.7,2.3-2.1,4.2-4.4,5.5c0.7,6.9,1.1,14.1,1.4,21.5c2.5,76.2-13.4,155.9-16.1,170.3
		c0,0,24.1,31.9,11.7,128.1c-5.2,40.7-11.3,73.9-14.4,90c0.2-0.2,0.2-0.3,0.2-0.3s1.4,1.2,2.5,3.3c0.8,1.7,1.5,4.1,1,7
		c-0.7,4.1,1.5,11.7,3.3,16.9c1.1,3.1,2,5.3,2,5.3s0.5,2.3-7.2,3.5h516.1c79.9-420.3-399.5-360.5-300.1-734
		c10.6-39.6,17.9-77.4,22.2-113.4c-8.2,0.7-17,1.1-26.4,1.1c-32.6,0-57.9-5.1-77.3-14.3l-48.3,42.9l23.7-59.3
		c-21-19.6-29.9-47.1-31.2-78.9c-3-73.6,58.7-106.3,121.8-106.3c8.5,0,17.1,0.3,25.6,1.1c-122.4-455.9-873-456.5-1135.5-175.6
		c-22.6,24.2-44.9,44.9-67,62.7H1890C1895.2,515.4,1901.3,505.6,1908.2,496.1z"/>
	<path class="st1" d="M2432.6,1660.9L2432.6,1660.9c0.1,0,0.2,0,0.3,0c-2.5-16.1-5.7-37.9-8.3-61.5c-0.5-4.5-1-8.9-1.5-13.4
		c-0.7,3.3-1.5,6.5-2.3,9.7c-6.9,27.5-15.7,51.5-22.3,67.8c0.2,0.1,1.4,1.3,2.4,3.3c0.8,1.7,1.5,4.1,1,7c-0.3,2.1,0,5,0.7,8.1
		c2.1-1.2,4.3-2.7,6.4-4.6C2413.8,1672.8,2432.6,1660.9,2432.6,1660.9z"/>
	<path class="st1" d="M2052.2,749.1c8.6,3.2,17.9,5.8,27.8,7.4c18.9,3.2,48.4-1.3,65.3-10.2c1.8-0.9,3.6-1.9,5.4-2.9
		c107.1-61,81.9-213.6-41.1-236c-16.1-2.9-39.3-0.3-57.1,5.8c-4.1,1.5-7.9,3.1-11.2,4.8c-15.4,8.2-28.2,18.1-38.5,29.4
		c-4.2,4.6-7.9,9.3-11.3,14.2c5.3,9.8,8.3,21,8.3,32.9v118.1C2013.2,728.3,2030.7,740.9,2052.2,749.1z"/>
	<path class="st1" d="M606.2,1244.3c0,0-10.9,4.1-11.1-4.3c-0.1-3.9,1.5-6,3.1-8.3l-0.2,0l-5-0.7c-0.3,0-0.7,0-1,0
		c-1.4,0.2-2.6,1.4-2.8,2.8l-1.5,10.6l40.6,5.8l1.5-10.6c0.3-1.8-1-3.5-2.9-3.8l-5.9-0.8C618.6,1237.8,614.1,1240.6,606.2,1244.3z"
		/>
	<path class="st1" d="M1320,1468v-0.3c-0.4-0.8-0.9-1.9-1.8-3.2C1318.8,1465.6,1319.4,1466.8,1320,1468z"/>
	<path class="st1" d="M678.8,1208.1c0.1-3.7,0.5-9.1,0.9-16c1.5-22.5,4.2-60.3,2.1-104.3c-8.3,10.3-14.2,18-15.2,20
		c-3.7,8-32.2,96.1-32.2,96.1s-4.1,0.3-9.6,0.1c-0.8,1.5-1.4,2.9-1.5,3.9c0,0.6-0.1,1.3-0.1,1.9c1.4,1.8,2.8,3.8,3,5
		c1.2,8,3.8,11.5,2.5,12.3c-1.5,1-3.3-0.3-4.9-2.6c0.1,2,0.1,3.7-0.2,5.3l4,0.6c2.4,0.3,4.5,1.6,5.9,3.5c1.4,1.9,2.1,4.3,1.7,6.7
		l-1.5,10.6l22.6,3.2c0.9,0.1,1.8,0.3,2.6,0.5c0,0,0,0,0,0l0,0h0h0l12.4,1.8c2.6,0.4,5,1.1,7.3,2.1c1.2-15.2,3-32.8,4.3-45.2
		C680.7,1211.9,678.7,1209.9,678.8,1208.1z"/>
	<path class="st1" d="M760.7,1670.5C760.7,1670.5,760.7,1670.5,760.7,1670.5c-1.2-0.2-2.5-0.4-3.8-0.7c0,0-24.5-82.5-31.5-169.8
		c-0.1-1.4-0.2-2.9-0.3-4.3c-1.1-15.3-2.4-33.6-3.6-53.3c-14.4,31-28.8,60.1-41.5,83c-52,93.2-68.3,119.2-68.3,119.2
		s-0.7-0.3-1.9-0.8c0,0,0,0,0,0c0.3,5.4,0.4,11.6,0.1,17c-0.7,13,3.6,27,15.2,29.5c8.3,1.8,8.2,6.6,7.5,9.2h129.9
		C758.6,1694.2,760.1,1676.4,760.7,1670.5z"/>
	<path class="st2" d="M2057,935.7c5.9,1,11.8-2.2,14.3-7.5c0.2-0.6,0.5-1.2,0.7-1.8l15.9-54.9c1.5-5.1,5.8-8.9,11-9.5
		c0.5-0.1,0.9-0.1,1.4-0.1c1.4,0,2.7,0,4.1-0.2c16.4-0.7,32.8-3.2,48.7-7.4c5.3-1.5,11,0.7,14.1,5.4l27,40.1
		c3.8,5.7,11.4,7.6,17.4,4.4l11.2-5.8l38.9-20.4c6.1-3.2,8.7-10.5,6.1-16.9l-19.6-46.6c-2.1-5-0.8-10.7,3.1-14.4
		c10.3-9.7,20-20.6,28.7-32.5c6.5-8.8,12.2-18.1,17.3-27.5l10.9,1l44.7,3.9c5.5,0.5,10.7-2.6,12.9-7.5c0.5-1,0.8-2.1,1-3.3l10-56.1
		c1.1-6.7-3-13.1-9.4-15l-33.8-9.7c-5.7-1.6-9.7-7.1-9.5-13c0.9-24.6-2.2-49.2-9-72.7c-1.6-5.6,0.5-11.4,5.2-14.5l48-32.3
		c5.3-3.6,7.2-10.7,4.1-16.5l-26.7-50.8c-3.1-6-10.4-8.6-16.5-6l-57.9,24.3c-5,2.1-10.7,1-14.5-2.9c-8.2-8.3-17.2-15.9-27-23
		c-5.2-3.8-10.6-7.4-16-10.7c-4.3-2.6-6.7-7.4-6.3-12.4l5.3-59.9c0.6-6.9-4.1-13.2-11-14.4l-54.6-9.6l-1.3-0.2
		c-6.7-1.1-13.1,2.9-14.9,9.3l-12.9,44.4c-0.2,0.7-0.5,1.4-0.8,2.1c-2.3,4.6-7.1,7.6-12.3,7.3c-30.7-1.4-61.3,3.3-90.2,13.9
		c-1.2,0.4-2.4,0.7-3.6,0.8c-4.6,0.3-9.2-1.9-11.8-5.8l-21.5-32.1c-2.9-4.2-7.9-6.3-12.7-5.7c-1.5,0.2-3,0.7-4.4,1.4l-50.1,26.3
		c-6.2,3.2-8.9,10.7-6.1,17.2l19.9,47.3c1.9,4.7,1,10-2.4,13.8c-4.8,5.5-9.4,11.1-13.8,17.1c-6.9,9.5-13,19.3-18.2,29.4h40.6
		c26.3,0,49.2,14.7,61,36.4c3.4-4.9,7.1-9.7,11.3-14.2c10.3-11.3,23.2-21.3,38.5-29.4c3.2-1.8,7.1-3.4,11.2-4.8
		c17.7-6.1,41-8.7,57.1-5.8c123,22.3,148.2,175,41.1,236c-1.8,1-3.5,2-5.4,2.9c-17,8.9-46.5,13.4-65.3,10.2
		c-9.9-1.7-19.2-4.2-27.8-7.4c-21.5-8.1-39.1-20.8-52.3-36.2v212.8c0.4,0.1,0.7,0.2,1.1,0.2L2057,935.7z"/>
	<path class="st3" d="M3049.2,1699.5h-592.6c-0.4,0.1-0.7,0.1-1.1,0.2h-10.7c-0.3,0-0.6-0.1-0.9-0.2h-17.5c-0.1,0.1-0.1,0.1-0.2,0.2
		c-0.1,0.1-0.1,0.1-0.1,0.1h-45.5c-0.1-0.1-0.1-0.2-0.1-0.3h-11.3c-0.1,0.1-0.1,0.1-0.2,0.2c-0.1,0.1-0.1,0.1-0.1,0.1h-45.5
		c-0.1-0.1-0.1-0.2-0.1-0.3H847.2c0,0.1,0.1,0.1,0.1,0.2h-84.7c-0.1-0.1-0.1-0.1-0.2-0.2h-130c0,0.1,0,0.1-0.1,0.2h-37
		c-0.1-0.1-0.2-0.1-0.4-0.2H160.3c-2.1,0-3.8,1.7-3.8,3.8v2.6c0,2.1,1.7,3.8,3.8,3.8h2888.9c2.1,0,3.8-1.7,3.8-3.8v-2.6
		C3053,1701.2,3051.3,1699.5,3049.2,1699.5z"/>
	<path class="st4" d="M1318.2,1464.4c0.9,1.3,1.4,2.4,1.8,3.2v-24c-12.1-6.9-18.6-12.3-18.6-12.3s17-108.7-68.1-118.5
		c0,0-57.4,0.5-90.2,23.7c0,0,98.3,51.1,87.6,68.8s-105.4-64.8-105.4-64.8s-100.7,49.5-122.2,83.1c0,0,122.3,16.2,107.7,30.8
		c-14.7,14.5-142.7,3.6-142.7,3.6s-79.1,69.7-41.1,120.8c38.1,51,78.9,48.8,91.4,39.1c12.5-9.7,72.4-88.1,80.8-78.2
		s-16.5,74.9-48.5,97c0,0,104.9,30.2,134-15.3c29.2-45.5,13.2-79.1,31.8-106.9s40.6-41.4,37.4-22.8c-3.2,18.6-42.7,59.2-41.4,94.5
		c1.4,35.3-1,61.1,37.9,28.1c26.2-22.2,57.6-63.3,69.4-99.3V1468C1319.4,1466.8,1318.8,1465.6,1318.2,1464.4z"/>
	<path class="st5" d="M1202.4,991.3c0,0,58.1,98.7,39.1,96.3c-19-2.4-84.2-102.3-84.2-102.3s-96.2-17.9-111.7,39.1
		c-15.5,57,9.4,85.6,23.6,89.1c14.3,3.6,105.7,2.5,103.3,14.4c-2.4,11.9-64.2,30.8-98.6,20.1c0,0,37.9,93.9,87.8,89.2
		c49.9-4.7,65.4-35.6,96.3-37.9c30.9-2.3,53.5,6,38,14.3c-15.5,8.3-67.7,2.6-92.7,23.8s-45.2,34.2,1.1,43.8
		c32.3,6.7,82.5,5.8,115.6-7.3V1027C1293,1014.8,1230.8,988.6,1202.4,991.3z"/>
	<path class="st6" d="M1999.9,1410.2v83.3c1.6-4.2,3.2-8.7,5-13.4C2012.5,1459.6,2005.2,1431.9,1999.9,1410.2z"/>
	<path class="st6" d="M2022.7,1414.2c8.4,30.6-16,56.2-3.2,105.9c12.7,49.7,116.3,53.7,116.3,53.7c-22.3-29.5-25.4-95.6-14.8-102
		c10.6-6.4,41.2,82.1,49.6,94.6s44.5,26.6,94.1-8s-1-121.2-1-121.2s-118.8-28.3-127.7-45.8c-8.9-17.5,106.3,4.4,106.3,4.4
		c-9.4-36.7-85.4-111.4-85.4-111.4s-110.1,46.1-114.4,27s99.6-35.9,99.6-35.9c-22.7-30.6-74.3-48.2-74.3-48.2
		c-31.4-6.5-53.1,5.6-67.9,22.6v125.8C2005.9,1374.9,2016.4,1391.2,2022.7,1414.2z"/>
	<path class="st7" d="M966.4,1022.1c1.7-1.5,4.2-3.4,7.8-5.1l-4.7-3.3c0,0,0,0,0,0l-11.5-8.1c-0.9-0.6-1.1-1.9-0.5-2.8l7.4-10.5
		c-0.3,0.2-0.6,0.3-0.9,0.4c0,0,0,0-0.1,0c-0.3,0.2-2.1,0.9-3.4-1.2c-1.5-2.2,3.8-14.3,0.2-15c-1.5-0.3-3.9,8.5-6.3,12.1
		c-2.5,3.6-2.7,9.4-1.3,13.2c1.4,3.8-0.9,6.8-0.9,6.8c-0.1,0.2-0.1,0.3-0.2,0.5C955.5,1010.8,962.2,1014.6,966.4,1022.1z"/>
	<path class="st8" d="M958.1,1005.5l11.5,8.1c-0.7-0.5-0.8-1.4-0.4-2.1l32.8-46.7c0.5-0.7,1.4-0.8,2.1-0.4l1.1,0.7c0,0,0,0,0,0
		l-12.6-8.8c-0.9-0.6-2.1-0.4-2.8,0.5l-24.9,35.4l-7.4,10.5C957,1003.7,957.2,1004.9,958.1,1005.5z"/>
	<path class="st9" d="M1002,964.9l-32.8,46.7c-0.5,0.7-0.3,1.6,0.4,2.1c0,0,0,0,0,0l4.7,3.3l2.7,1.9c0.7,0.5,1.6,0.3,2.1-0.4
		l32.8-46.7c0.5-0.7,0.3-1.6-0.4-2.1l-6.3-4.4l-1.1-0.7C1003.4,964,1002.5,964.2,1002,964.9z"/>
	<path class="st9" d="M834.8,1124.5c10.4,6.9,20.7,10.9,30.3,10c51-4.5,102.7-109.9,102.7-109.9c-0.4-0.9-0.8-1.8-1.3-2.6
		c-4.2-7.5-11-11.3-14.4-12.8c-1.3-0.6-2.1-0.8-2.1-0.8l-85.2,63.5c-8.4-7.4-22.1-26.7-36.2-48.3c2.4,19.9,4,44.3,5.1,69.2
		C834.1,1103.4,834.5,1114.1,834.8,1124.5z"/>
	<path class="st9" d="M632.4,1699.8c0-0.1,0-0.1,0.1-0.2c0,0,0,0,0-0.1c0.7-2.6,0.8-7.4-7.5-9.2c-11.6-2.5-15.9-16.5-15.2-29.5
		c0.3-5.5,0.2-11.7-0.1-17c0,0,0,0,0,0c-5.6-2.3-21.7-9.5-28.1-15.8l0,0l-2.5,3.2c0,0-14.8,13.7-11.9,23.5
		c2.9,9.8,16.3,16.3,18.1,28.2c1.3,8.4,5.2,14,9.7,16.7c0,0,0.1,0,0.1,0.1c0.1,0.1,0.2,0.2,0.4,0.2H632.4z"/>
	<path class="st9" d="M834.6,1691c-13-2.1-35.4-9.6-40.4-26.2c0,0,0,0,0,0c-5.5,3.4-16.6,8.3-33.5,5.7c0,0,0,0,0,0
		c-0.6,5.9-2.1,23.7,1.8,29c0,0,0,0,0,0.1c0.1,0.1,0.1,0.2,0.2,0.2h84.7c0-0.1-0.1-0.1-0.1-0.2c0,0,0,0,0-0.1
		C845.9,1696.5,842.8,1692.3,834.6,1691z"/>
	<path class="st10" d="M756.9,1669.8c1.3,0.3,2.5,0.5,3.8,0.7c16.9,2.6,28.1-2.3,33.5-5.7c2.6-1.6,3.9-2.9,3.9-2.9
		s5.8-57.8,7.2-93.9c0.8-20.8,9.3-130.7,16.3-220.1L725.4,1500C732.4,1587.3,756.9,1669.8,756.9,1669.8z"/>
	<path class="st11" d="M721.5,1442.3c1.3,19.7,2.5,38,3.6,53.3c0.1,1.4,0.2,2.9,0.3,4.3l96.2-152.2c4.2-53.1,7.8-99.1,9.1-114.8
		c-4.4,0-11.4,0.8-20,1.7C806.1,1246.2,763.5,1352.1,721.5,1442.3z"/>
	<path class="st10" d="M679.9,1525.3c12.7-22.8,27.1-52,41.5-83c42-90.2,84.6-196.2,89.2-207.6c-15.3,1.6-35.4,3.5-53.5,1.6
		c-24.2-2.3-45.5-9.5-68.5-19.8c-1.4-0.6-3.6-1.7-5.6-3.1c-1.3,12.3-3.1,29.9-4.3,45.2c10.8,4.8,17.5,16.4,15.8,28.6l-7,49.3
		c-2.1,14.8-15.9,25.2-30.7,23.1l-1.7-0.2c-6.8,17.1-14.3,32.4-21.3,41.2c-34.8,43.9-54.7,223.8-54.7,223.8c0.4,1.1,1.3,2.3,2.5,3.5
		c6.4,6.3,22.6,13.4,28.1,15.8c1.2,0.5,1.9,0.8,1.9,0.8S627.9,1618.5,679.9,1525.3z"/>
	<path class="st7" d="M707,928C707,928,707,928,707,928c0.1,0,0.1-0.1,0.2-0.1C707.1,927.9,707,928,707,928z"/>
	<path class="st7" d="M746.1,926.9c10.4,5.1,20.7,6,30.6,4.5c-1.9-1.3-4-2.6-6.3-3.9c0.7-4.3,1.3-8.3,1.8-11.9
		c-18-3.1-38.4-32.1-38.4-32.2c-0.5-0.5-0.9-1-1.3-1.6c-2.8,15.4-9.1,26.8-14.8,34.4c0.2-0.2,0.4-0.3,0.6-0.5
		C720.6,914.3,733.9,920.8,746.1,926.9z"/>
	<path class="st12" d="M733.9,883.5c0,0.1,20.4,29.1,38.4,32.2c1.6-12.4,1.8-19.9,1.8-21.1C762.7,895.2,743.8,894.2,733.9,883.5z"/>
	<path class="st7" d="M774.1,894.6c5.6-0.3,9.5-0.9,9.5-0.9c10.7-2.5,11.2-39,8.8-58c-6.3-0.1-13.5-3.4-26.7-2.8
		c-17.5,0.8-17.5,12.4-19.9,15.1c-2.4,2.7-2.7-2-8.6-3.7c-5.9-1.8-5.9,7.7-5,14.9c0.8,7.2-4.4,8.1-4.4,8.1c-0.2-0.2-0.4-0.4-0.5-0.6
		c0.2,1.2,0.4,2.4,0.6,3.6c0.7,4.7,2.4,8.5,4.9,11.6c0.4,0.5,0.9,1.1,1.3,1.6C743.8,894.2,762.7,895.2,774.1,894.6z"/>
	<path class="st13" d="M717.5,920.1l33.7,84.4c0,0-9.8,11.5-22.8,26.9c2.4,39.6,1.2,124.3-48.8,160.6c-0.5,6.8-0.8,12.2-0.9,16
		c-0.1,1.9,1.9,3.8,4.3,5.4c2,1.4,4.2,2.5,5.6,3.1c23,10.3,44.3,17.4,68.5,19.8c18.1,1.9,38.2,0,53.5-1.6c8.6-0.9,15.6-1.7,20-1.7
		c0.2,0,0.4,0,0.6,0c1.2,0,2.3-0.5,3.2-1.2c0.8-0.6,1.4-35.6,0.8-79.7c0-1.7,0-3.6-0.1-5.3v-0.6c-0.1-7.1-0.2-14.3-0.4-21.6
		c-0.3-10.5-0.7-21.1-1.1-31.7c-1.1-24.9-2.7-49.3-5.1-69.2c-1.4-11.8-3.1-22-5-29.9c-6.2-24.9-20.4-41.3-33.4-53.4l-10.7-9.4
		c-0.9,0.2-1.8,0.3-2.7,0.5c-9.9,1.5-20.2,0.6-30.6-4.5c-12.2-6-25.5-12.5-27.7-11c-0.2,0.2-0.4,0.3-0.6,0.5
		c-3.8,3-7.4,6.8-10.7,11.4c0,0.1-0.1,0.1-0.1,0.2c-6.6,9.5-12,22.1-16.2,36.9C706,939.4,717.5,920.1,717.5,920.1z"/>
	<path class="st9" d="M679.7,1192.1c50-36.3,51.2-121,48.8-160.6c-14.8,17.6-33.7,40.2-46.7,56.3
		C683.9,1131.8,681.3,1169.6,679.7,1192.1z"/>
	<polygon class="st9" points="659.1,1254.8 659.1,1254.8 659.1,1254.8 	"/>
	<path class="st9" d="M687.6,1336.6l7-49.3c1.7-12.2-5-23.8-15.8-28.6c-2.3-1-4.7-1.7-7.3-2.1l-12.4-1.8c8.7,2.1,15.6,8.5,18.8,16.5
		v0c1.7,4.3,2.4,9,1.7,13.9l-7.1,49.8c-1.4,9.6-7.7,17.4-16.1,21.1c-2.8,1.2-5.8,2-8.9,2.2c0,0,0,0,0,0h0c0,0,0,0,0,0l7.6,1.1
		l1.7,0.2C671.7,1361.7,685.5,1351.3,687.6,1336.6z"/>
	<path class="st13" d="M647.6,1358.3C647.6,1358.3,647.6,1358.3,647.6,1358.3c3.1-0.2,6.1-1,8.9-2.2c8.3-3.7,14.7-11.5,16.1-21.1
		l7.1-49.8c0.7-4.9,0-9.6-1.7-13.9v0c-3.2-8-10.1-14.3-18.8-16.5h0h0h0c0,0,0,0,0,0c0,0,0,0,0,0c-0.9-0.2-1.7-0.4-2.6-0.5l-22.6-3.2
		l1.5-10.6c0.3-2.4-0.3-4.7-1.7-6.7c-1.4-1.9-3.6-3.2-5.9-3.5l-4-0.6c-0.4,1.9-1.1,3.6-2.7,5.3l5.9,0.8c1.8,0.3,3.1,2,2.9,3.8
		l-1.5,10.6l-40.6-5.8l1.5-10.6c0.2-1.5,1.4-2.6,2.8-2.8c0.3-0.1,0.7-0.1,1,0l5,0.7l0.2,0c1-1.5,2.1-3.1,2.7-5.3l-2.9-0.4l-4.3-0.6
		c-4.9-0.7-9.5,2.7-10.2,7.6l-1.5,10.6l-39.1-5.6c-14.9-2.1-28.7,8.3-30.9,23.2l-7.1,49.9c-2.1,14.9,8.3,28.7,23.2,30.9l113.5,16.2
		C643.7,1358.4,645.7,1358.5,647.6,1358.3C647.6,1358.3,647.6,1358.3,647.6,1358.3L647.6,1358.3z"/>
	<path class="st7" d="M595.1,1240c0.2,8.4,11.1,4.3,11.1,4.3c7.9-3.7,12.4-6.6,14.9-9.4c1.5-1.7,2.3-3.4,2.7-5.3
		c0.3-1.6,0.3-3.3,0.2-5.3c-1.3-1.9-2.5-4.4-3.3-6.8c-1.8-5.3-0.4-11.4-0.4-11.4s1.6,1.6,3.1,3.5c0-0.6,0.1-1.2,0.1-1.9
		c0.1-1,0.7-2.4,1.5-3.9c-3.2-0.1-6.9-0.5-10.5-1.2c-2.9-0.6-5.5-1.5-7.7-2.5c-7,5.7-7,6.8-5.5,19.3c0.3,2.8,0.1,5-0.3,6.8
		c-0.6,2.2-1.7,3.8-2.7,5.3C596.6,1234,595,1236.1,595.1,1240z"/>
	<path class="st13" d="M624.9,1204c5.4,0.2,9.6-0.1,9.6-0.1s28.5-88,32.2-96.1c0.9-2,6.9-9.7,15.2-20c13-16.1,31.9-38.7,46.7-56.3
		c13-15.4,22.8-26.9,22.8-26.9l-33.7-84.4c0,0-11.5,19.3-26.7,44.8c-26.6,44.8-64.2,109-69.8,122.1c-14.7,34-19.8,110.2-19.8,110.2
		s2.1,1.6,5.5,3.1c2.1,1,4.8,1.9,7.7,2.5C618,1203.5,621.7,1203.8,624.9,1204z"/>
	<path class="st8" d="M732.1,859.1c-0.8-7.2-0.8-16.7,5-14.9c5.9,1.8,6.2,6.5,8.6,3.7c2.4-2.7,2.5-14.3,19.9-15.1
		c13.2-0.6,20.5,2.7,26.7,2.8c2,0,4-0.3,5.9-1.1c8.1-3.6,8.6-15.9,8.6-15.9s-2.3,4.4-5.8,5.8c0,0,13.5-18.5-2.1-31.2
		c-15.7-12.7-31.7-4.4-40.8-3.8c-20,1.2-32.9,2.4-39.5,15.6c-6.4,13-3.9,48.6,8.5,61.7c0.2,0.2,0.4,0.4,0.5,0.6
		C727.7,867.2,732.9,866.4,732.1,859.1z"/>
	<path class="st7" d="M628.8,1227c1.3-0.9-1.3-4.3-2.5-12.3c-0.2-1.2-1.6-3.2-3-5c-1.5-1.9-3.1-3.5-3.1-3.5s-1.4,6.1,0.4,11.4
		c0.8,2.4,2,4.9,3.3,6.8C625.5,1226.6,627.3,1228,628.8,1227z"/>
	<path class="st7" d="M2232,1053.7C2232,1053.7,2232,1053.7,2232,1053.7c0-0.4,5.8-12.5,5.8-16.5l-6.6,2
		C2231.8,1043.4,2232,1049.1,2232,1053.7z"/>
	<path class="st9" d="M2376,841c40.5-5.8,46,34.5,44.1,45.4c-0.3,1.9-0.8,3.9-1.4,5.9c3.2,3.7,5.7,5.7,5.7,5.7s-2.7,1.7-8.6,2.3
		c-4.2,10.4-9.7,19.1-9.7,19.1h0c-0.5,1.3-1,2.6-1.7,3.7c0,2.4,0,4.7,0.1,7l0,0.1c0,0,5.2-12,12.1-8.3c10.7,5.9,31.4-17.8,24.8-49
		c-0.7-3.4-1.6-6.4-2.5-9.3c-3.7-1.6-6.5-3.7-6.5-3.7l-20.4-30.5c0,0,0-0.1,0-0.2c-21.6-19.5-54.6,14.2-62.7,23.2
		c1.3-1.1,2.5-2,3.7-2.8C2364.2,842.1,2376,841,2376,841z"/>
	<path class="st7" d="M2315,1078.3c-13.5-3.9-23.4-16.3-24.8-18.2c-0.8,3.4-1.5,6.9-2.1,10.5c-1.7,9.6-3.2,20.2-4.1,31.9
		c0,0-42.7-26.6-52.2-40.5l-11.4,8c0,0,34.8,61.8,70.9,75.1c7.3,2.7,13.5-2.4,18.7-12.3c2.7-19.9,5.3-38.9,6.2-54.2
		C2315.8,1078.5,2315.4,1078.4,2315,1078.3z"/>
	<path class="st9" d="M2432.5,859.9c0,0,2.8,2.1,6.5,3.7c2.2,1,4.8,1.8,7.1,1.8c6.2,0,15.7-15.9,16.9-21.2
		c1.3-5.3-0.1-22.9-8.7-28.1s-22.1,1-22.1,1c4.7-6.6,21.9-4.5,21.9-4.5c-34.3-7.3-41.4,14.7-41.9,16.6c0,0.1,0,0.2,0,0.2
		L2432.5,859.9z"/>
	<path class="st7" d="M2360.5,974.5c-1.4,2.5-20.1,30.9-18.7,38.2c1.5,7.6,67.9,0.8,72.5-3.4c1.9-1.7,4.2-8.1,6.3-15.1l-5.2-22.7
		c0,0,0.4,0,1,0.1c-4.6-3.7-10.9-18.6-11.9-41.4c-0.1-2.3-0.2-4.6-0.1-7c-1.3,2.4-3.1,4.5-5.1,6.3c-5.8,10.9-16.7,24.7-34.7,25.2
		c0-4.5-0.2-9.1-0.3-13l0,0c0.2,3.9,0.3,8.5,0.3,13c0,9.5-0.5,18.5-2.7,19.6c-0.7,0.1-1.4,0.1-1.9,0.2
		C2360.3,974.4,2360.6,974.4,2360.5,974.5z"/>
	<path class="st14" d="M2364.6,954.7c18-0.5,28.9-14.4,34.7-25.2c-9.6,8.7-25.6,11.4-35,12.2
		C2364.5,945.5,2364.6,950.2,2364.6,954.7z"/>
	<path class="st9" d="M2358.8,854.9c1.1-1.7,2.5-3,4.1-3.9c0.7-1.2,1.4-1.7,2.2-1c14.3-5.1,39.5,12.2,39.5,12.2
		c2.1,13.9,9,24.2,14.1,30.1c0.6-2,1.1-4,1.4-5.9c1.9-10.9-3.6-51.2-44.1-45.4c0,0-11.8,1.2-22.8,8.6c-1.2,0.8-2.5,1.7-3.7,2.8
		c-0.5,0.5-1.1,1-1.6,1.5C2352.7,851.2,2356.4,852.8,2358.8,854.9z"/>
	<path class="st9" d="M2415.8,900.3c-2.3,0.3-5,0.4-8.2,0.2c-0.1,3.4-0.2,6.9-0.2,10.6c0,3-0.5,5.8-1.3,8.3h0
		C2406.1,919.4,2411.6,910.7,2415.8,900.3z"/>
	<path class="st7" d="M2399.3,929.4c2-1.8,3.8-3.9,5.1-6.3c0.7-1.2,1.2-2.4,1.7-3.7c0.9-2.5,1.3-5.2,1.3-8.3c0-3.7,0.1-7.2,0.2-10.6
		c-3.9-0.2-8.5-0.9-13.9-2.3c-6.5-1.7-12.4-6.3-17.3-11.9c8.7,14.5,20.4,25,20.4,25c-25.5-11.8-35.8-47.3-36.8-51.1
		c-3.1,2.8-9.2,8.8-11.1,14.8c-2.5,8.1-3.7,24.7-8.5,24.1v0c2,18.9,7.4,42.2,16.1,42.9c0,0,3.1,0.1,7.8-0.3l0,0
		C2373.8,940.8,2389.7,938.1,2399.3,929.4z M2356.3,926.3c0,0-7.8-0.5-7.6-4.6c0,0,7.6-2.9,17.7,1.4
		C2366.5,923.1,2365.6,926.9,2356.3,926.3z"/>
	<path class="st9" d="M2358.8,854.9c0.8,0.7,1.4,1.3,1.9,2c0.5-1.9,1.3-4.3,2.2-5.8C2361.3,851.9,2360,853.2,2358.8,854.9z"/>
	<path class="st9" d="M2415.8,900.3c5.8-0.7,8.6-2.3,8.6-2.3s-2.5-2-5.7-5.7c-5.1-5.9-12-16.1-14.1-30.1c0,0-25.2-17.2-39.5-12.2
		c0.9,1,1.8,4.3,2.5,11.6c0.8,8.7,4.4,17.2,8.8,24.7c5,5.6,10.8,10.3,17.3,11.9c5.4,1.4,10,2.1,13.9,2.3
		C2410.9,900.7,2413.6,900.6,2415.8,900.3z"/>
	<path class="st9" d="M2348.9,874.9c1.9-5.9,8-12,11.1-14.8c-0.1-0.2-0.1-0.3-0.1-0.3s0.3-1.3,0.8-3c-0.5-0.6-1.1-1.3-1.9-2
		c-2.4-2.1-6.2-3.7-11-0.9c-1.9,1.1-3.9,2.8-6.1,5.5c-11.8,14.3-1.3,39.6-1.3,39.6v0C2345.2,899.6,2346.4,883,2348.9,874.9z"/>
	<path class="st13" d="M2398.4,1663.4C2398.4,1663.4,2398.4,1663.5,2398.4,1663.4c6.7-16.3,15.5-40.3,22.4-67.8
		c0.8-3.2,1.6-6.4,2.3-9.7c-4.9-41.9-11.4-83-18.5-96.5c-21.5-40.4-32.7-157.4-37.7-227.4c-17.5,0-36.5-2.2-49.1-9.6
		c1.1,40.9,8.3,120.3,42.4,217.6c14.6,41.7,19.2,85.4,19.5,122.4c0.2,27.9-1.9,51.9-4,68.4c0.6,0.1,2.8,1,10.8,7.8
		C2390.9,1672.4,2398.4,1663.4,2398.4,1663.4z"/>
	<path class="st7" d="M2452.8,1118.2c4.1,15.1,7.5,28.5,8.9,35.3c4.6,21.8,55,105.4,55,105.4l15.3-4.6c-12-29-26-87.8-30.5-98.5
		c-1.6-3.7-4.5-20.3-8.4-42.1C2474.3,1122.4,2458.3,1119.6,2452.8,1118.2z"/>
	<path class="st7" d="M2454.4,979.9c-0.1,0-0.2-0.1-0.3-0.1c2.6,1.1,5.1,2.4,7.1,3.9C2459.4,982.3,2457.1,981,2454.4,979.9z"/>
	<path class="st7" d="M2463.5,986.1c-0.5-0.8-1.3-1.6-2.2-2.3c0,0,0,0.1-0.1,0.1C2462.1,984.6,2462.9,985.3,2463.5,986.1z"/>
	<path class="st7" d="M2420.7,994.1c3-9.9,5.5-20.9,5.5-21.2c-4.5-0.7-8.1-1.2-9.7-1.3c-0.7-0.1-1-0.1-1-0.1L2420.7,994.1z"/>
	<path class="st13" d="M2451.3,1255.9c-10.3-1.1-14.9-18.4-17-33.2c-6.2,21.1-14.9,33-26.1,35.5c-6.4,1.4-23.1,3.8-41.3,3.9
		c5,70.1,16.2,187,37.7,227.4c7.2,13.5,13.6,54.6,18.5,96.5c0.5,4.5,1,9,1.5,13.4c2.6,23.6,5.7,45.4,8.3,61.5
		c0.7,0.2,3,1.3,10.7,7.8c4,3.3,10.4-3.5,11.7-5c3.1-16.1,9.2-49.4,14.4-90c12.4-96.1-11.7-128.1-11.7-128.1
		c2.7-14.4,18.6-94.1,16.1-170.3c-0.2-7.4-0.7-14.6-1.4-21.5C2468.8,1256.2,2462,1257,2451.3,1255.9z"/>
	<path class="st9" d="M2365.1,850c-0.7-0.7-1.5-0.2-2.2,1c-0.9,1.5-1.7,3.9-2.2,5.8c-0.5,1.7-0.8,3-0.8,3s0,0.1,0.1,0.3
		c1,3.8,11.3,39.3,36.8,51.1c0,0-11.8-10.4-20.4-25c-4.4-7.4-8.1-16-8.8-24.7C2366.9,854.3,2366,851,2365.1,850z"/>
	<path class="st10" d="M2408.1,1258.2c11.2-2.5,19.9-14.4,26.1-35.5c2.1,14.8,6.7,32.1,17,33.2c10.8,1.1,17.5,0.3,21.5-2
		c2.3-1.4,3.7-3.2,4.4-5.5c0.6-1.8,0.8-4.4,0.6-7.7c-11.4-3.8-25.9-13.9-43.4-36.5c-46.3-59.9-3.9-130.3,1.7-131.6
		s16.4,45.5,16.4,45.5c0.1,0,0.2,0,0.3,0.1c5.5,1.4,21.5,4.3,40.3-4.5c1.4-0.7,2.8-1.4,4.3-2.2c-8.6-42.1-20.9-101-33.2-124.4
		c-0.2-0.4-0.4-0.7-0.7-1c-0.6-0.7-1.4-1.5-2.3-2.1c0.1-0.1,0.1-0.1,0.1-0.1c0,0,0,0,0,0c0,0,0,0-0.1,0c-2.1-1.5-4.5-2.8-7.1-3.9
		c-12-5.2-27.8-7-27.8-7s0,0,0,0c-0.1,0.3-2.6,11.3-5.5,21.2c-2.1,7-4.4,13.4-6.3,15.1c-4.6,4.2-71,11.1-72.5,3.4
		c-1.5-7.3,17.3-35.7,18.7-38.2c0,0-0.2,0-0.5,0c-0.9,0.1-2.5,0.2-2.5,0.2c-7.6,1-12.9,1.8-16.8,2.4c-7.5,1.3-9.4,2.2-11.3,3.6
		c-0.4,0.4-0.9,0.9-1.3,1.4c2.6-1.9,4.1-2.7,4.1-2.7s7.2,100.9-10.8,100c-1.8-0.1-3.6-0.4-5.4-0.8c-0.9,15.3-3.5,34.3-6.2,54.2
		c-4.8,35.3-9.9,73.6-6.3,99.8c1.2,9,6.5,15.4,14.1,19.9c12.6,7.4,31.6,9.6,49.1,9.6C2385,1262,2401.7,1259.6,2408.1,1258.2z"/>
	<path class="st7" d="M2211.6,1023.4c0,0-0.1,0.1-0.1,0.1c0.1,1,0.2,1.7,0.2,1.7v-1.4L2211.6,1023.4z"/>
	<path class="st7" d="M2232,1053.7c0-4.6-0.1-10.2-0.8-14.6l-9.7,2.9c0,0,0,0,0,0l-0.6,0.2c-1.6,2.1-2.9,3.6-2.9,3.6l-6.2-14.2v-6.4
		l-7.4,12.1c0,0,0-0.1,0-0.2c-0.6,2.9-0.8,5.8,0,8.5c3.1,10.3,15.9,24.3,15.9,24.3l11.4-8C2231.7,1061.4,2231.9,1058,2232,1053.7z"
		/>
	<path class="st8" d="M2228.2,982.9l14.9,49.7c0.4,1.5-0.4,3.1-1.9,3.5l-19.8,5.9c0,0,0,0,0,0l9.7-2.9l6.6-2l7-2.1
		c0.8-0.3,1.3-1.1,1.1-2l-15.6-52c-0.3-0.8-1.1-1.3-2-1.1l-5.3,1.6l1.7-0.5C2226.2,980.5,2227.7,981.4,2228.2,982.9z"/>
	<path class="st9" d="M2208.2,1002.8c0.8,2.6,2.4,14.5,3.1,19.8l0.2,0.8l0.1,0.3v-0.4c0,0,9.8-15.1,12.2-14.2
		c3.3,1.2-8.1,19.2-8.9,20.3c0.6-0.9,9.1-14.2,10.5-13.2c3.2,2.5-1.9,11.4-7,18.3c0,0,9.2-8.4,9.5-6.9c0.7,3.5-4,10.4-7.2,14.6
		l0.6-0.2l19.8-5.9c1.5-0.4,2.3-2,1.9-3.5l-14.9-49.7c-0.4-1.5-2-2.3-3.5-1.9l-1.7,0.5l-19.3,5.8c-1.5,0.4-2.3,2-1.9,3.5l5.2,17.5
		C2207.5,1004.3,2207.9,1001.8,2208.2,1002.8z"/>
	<path class="st9" d="M2327,1698c0.8,1,37.1,0.4,39.2-1.1c1.9-1.4,7.1-3.6,14.5-2.6c0.3-0.9,0.6-1.8,0.9-2.6
		c0.7-1.9,2.3-3.3,4.3-3.9c3.7-1.1,10-2,16.7-5.9c-0.7-3.1-1.1-6-0.7-8.1c0.5-2.9-0.1-5.3-1-7c-2.6,1.8-8,5.4-11.5,5.8
		c-4.8,0.6-13.9-11.7-13.9-11.7s-18.8,11.9-23.7,16.3c-8.7,7.9-18.2,9.1-23,10.5c-2,0.6-3.5,2-4.3,3.9
		C2325.8,1690.4,2326.2,1696.9,2327,1698z"/>
	<path class="st15" d="M2389.3,1672.6c3.6-0.5,9-4,11.5-5.8c-1-2-2.3-3.2-2.4-3.3c0,0,0,0,0,0s-7.5,9-11.9,5.3
		c-8-6.8-10.3-7.7-10.8-7.8c0,0-0.1,0-0.1,0l-0.1,0C2375.4,1660.9,2384.5,1673.2,2389.3,1672.6z"/>
	<path class="st15" d="M2377.7,1697.6c0.9,0.1,1.6,0.3,2.4,0.4c0-1.1,0.2-2.5,0.6-3.8c-7.4-1-12.6,1.2-14.5,2.6
		c-2.1,1.5-38.5,2.2-39.2,1.1s-1.2-7.6-2.5-6.4c-1,2.6-2,6.1-1.2,7.9c0,0,0,0,0,0.1c0,0.1,0.1,0.2,0.1,0.3h45.5c0,0,0,0,0.1-0.1
		c0,0,0.1-0.1,0.2-0.2c0,0,0,0,0.1-0.1C2370.1,1698.7,2372.7,1697,2377.7,1697.6z"/>
	<path class="st9" d="M2446.5,1672.6c-4.8,0.6-13.9-11.7-13.9-11.7s-18.8,11.9-23.7,16.3c-2.1,1.9-4.3,3.4-6.4,4.6
		c-6.7,3.8-13,4.8-16.7,5.9c-2,0.6-3.5,2-4.3,3.9c1.4-1.2,1.8,5.3,2.5,6.4c0.8,1,37.1,0.4,39.2-1.1c2.1-1.5,8.4-4.2,17.2-2.1
		c7.6,1.8,18.9-2.9,21.7-4.1c-1.7-5.2-3.9-12.8-3.3-16.9c0.5-2.9-0.1-5.3-1-7C2455.5,1668.6,2450.1,1672.1,2446.5,1672.6z"/>
	<path class="st15" d="M2443.6,1668.7c-7.7-6.5-10-7.6-10.7-7.8c-0.1,0-0.1,0-0.2,0l-0.1,0c0,0,9,12.3,13.9,11.7
		c3.6-0.5,9-4,11.5-5.8c-1.1-2.2-2.5-3.3-2.5-3.3s-0.1,0.1-0.2,0.3C2454,1665.2,2447.6,1672,2443.6,1668.7z"/>
	<path class="st15" d="M2464.2,1696c0,0-0.9-2.2-2-5.3c-2.8,1.2-14,5.9-21.7,4.1c-8.8-2.1-15.1,0.6-17.2,2.1
		c-2.1,1.5-38.5,2.2-39.2,1.1c-0.8-1-1.2-7.6-2.5-6.4c-0.3,0.8-0.6,1.7-0.9,2.6c-0.4,1.3-0.6,2.7-0.6,3.8c0,0.6,0.1,1.1,0.3,1.5
		c0,0,0,0,0,0.1c0,0.1,0.1,0.2,0.1,0.3h45.5c0,0,0,0,0.1-0.1c0,0,0.1-0.1,0.2-0.2c0,0,0,0,0.1-0.1c0.8-0.7,3.4-2.5,8.4-1.9
		c3.3,0.4,5.7,1.3,8.7,1.9c0.1,0,0.2,0,0.3,0.1c0.3,0.1,0.6,0.1,0.9,0.2h10.7c0.4-0.1,0.8-0.1,1.1-0.2c0.1,0,0.2,0,0.3-0.1
		C2464.7,1698.3,2464.2,1696,2464.2,1696z"/>
	<path class="st11" d="M2436.1,1072.5c-5.7,1.3-48.1,71.7-1.7,131.6c17.5,22.6,32.1,32.7,43.4,36.5c-1.1-22.1-17.9-74.1-25.3-122.5
		C2452.5,1118.1,2441.8,1071.2,2436.1,1072.5z"/>
	<path class="st10" d="M2315,1078.3c0.4,0.1,0.8,0.2,1.2,0.3c1.7,0.4,3.5,0.7,5.4,0.8c18,1,10.8-100,10.8-100s-1.6,0.8-4.1,2.7
		c-8.9,6.8-30,27.6-38.2,77.7c0,0,0.1,0.1,0.2,0.2C2291.6,1061.9,2301.5,1074.4,2315,1078.3z"/>
	<path class="st7" d="M2228,1027.6c-0.3-1.5-9.5,6.9-9.5,6.9c5.1-6.9,10.3-15.9,7-18.3c-1.4-1-9.9,12.2-10.5,13.2
		c0.7-1.1,12.2-19.1,8.9-20.3c-2.4-0.8-12.2,14.2-12.2,14.2v0.4v1.4v6.4l6.2,14.2c0,0,1.2-1.4,2.9-3.6
		C2224,1038,2228.7,1031.1,2228,1027.6z"/>
	<path class="st7" d="M2211.7,1025.2c0,0-0.1-0.6-0.2-1.7c0-0.3-0.1-0.6-0.1-0.9c-0.7-5.3-2.3-17.1-3.1-19.8c-0.3-1-0.7,1.4-1.2,5.4
		c-1.1,9.2-2.3,26.5-2.7,28.9c0,0.1,0,0.2,0,0.2L2211.7,1025.2z"/>
	<path class="st0" d="M2366.5,923.1c-10.2-4.3-17.7-1.4-17.7-1.4c-0.2,4.1,7.6,4.6,7.6,4.6C2365.6,926.9,2366.5,923.1,2366.5,923.1z
		"/>
	<path class="st7" d="M2518.7,1262.9L2518.7,1262.9l15.5,10.4c0,0,0.8,2.9,1.6,6.3c6.4,1.7,14.3,3.2,17.4,8.7
		c4.7,8.2,9.4,7.5,9.4,7.5s-0.5-1.4-1.3-3.6c-0.6-0.2-1.2-0.5-1.6-1c-1.6-2.7-9.2-17.9-9.2-17.9c0.2,0.3,3,3.3,6.2,6.8
		c-1.4-3.5-2.7-6.7-3.6-8.4c-2.8-5.2-21.2-17.4-21.2-17.4l-15.3,4.6C2516.7,1258.8,2517.5,1260.5,2518.7,1262.9z"/>
	<path class="st7" d="M2518.7,1262.9L2518.7,1262.9c0,0.1,3.1,14.4,6.8,18.6c3.8,4.2,8.9,11.3,11,9.4c1.2-1.1,0.3-6.7-0.8-11.3
		c-0.8-3.4-1.6-6.3-1.6-6.3L2518.7,1262.9z"/>
	<path class="st7" d="M2559.8,1291.2c0.4,0.6,0.9,0.9,1.6,1c2.3,0.6,5.9-1,5.9-1s-5.7-6.1-10.5-11.2c-3.2-3.5-6-6.5-6.2-6.8
		C2550.6,1273.3,2558.1,1288.6,2559.8,1291.2z"/>
	<path class="st13" d="M2535.8,743.6c1.3,31.8,10.1,59.3,31.2,78.9l-23.7,59.3l48.3-42.9c19.4,9.2,44.7,14.3,77.3,14.3
		c9.4,0,18.2-0.4,26.4-1.1c76.4-6.7,103.5-43.8,100-100.6c-5.1-84.7-57.2-108.3-112.1-113.2c-8.5-0.8-17.1-1.1-25.6-1.1
		C2594.5,637.3,2532.8,670,2535.8,743.6z M2585.1,745.2h87.3v6.8h-87.3V745.2z M2585.1,771v-6.8h114.5v6.8H2585.1z M2746.1,752
		h-66.8v-6.8h66.8V752z M2699.6,726.1v6.8h-114.5v-6.8H2699.6z"/>
	<rect x="2585.1" y="726.1" class="st0" width="114.5" height="6.8"/>
	<rect x="2585.1" y="764.2" class="st0" width="114.5" height="6.8"/>
	<rect x="2585.1" y="745.2" class="st0" width="87.3" height="6.8"/>
	<rect x="2679.3" y="745.2" class="st0" width="66.8" height="6.8"/>
	<path class="st11" d="M890.4,823.6l-21,52.5l42.8-38c17.2,8.1,39.6,12.7,68.4,12.7c85.5,0,115.2-34.3,111.8-90
		c-5.3-86.6-66-101.1-121.8-101.1c-55.8,0-110.4,28.9-107.8,94.1C863.9,781.9,871.8,806.3,890.4,823.6z M1048.9,761.2h-59.1v-6h59.1
		V761.2z M906.4,738.4h101.3v6H906.4V738.4z M906.4,755.2h77.3v6h-77.3V755.2z M906.4,772.1h101.3v6H906.4V772.1z"/>
	<rect x="906.4" y="738.4" class="st0" width="101.3" height="6"/>
	<rect x="906.4" y="772.1" class="st0" width="101.3" height="6"/>
	<rect x="906.4" y="755.2" class="st0" width="77.3" height="6"/>
	<rect x="989.8" y="755.2" class="st0" width="59.1" height="6"/>
	<path class="st16" d="M1015.9,447.2c0.7,3.1,3.6,5.3,6.9,5l23.9-2.5c2.7-0.3,5.2,1.2,6.3,3.6c4.7,10.1,11,19.5,18.6,27.7
		c1.9,2.1,2.1,5.2,0.5,7.6l-11.9,17.8c-1.8,2.7-1.3,6.3,1.2,8.3l20.3,17.1c2.4,2,6,1.9,8.1-0.4l20-19.9c1.7-1.7,4.2-2.3,6.5-1.5
		c2.8,0.9,5.7,1.8,8.6,2.5c5.5,1.4,11,2.3,16.4,2.8c2.5,0.2,4.6,1.9,5.3,4.2l8.6,28c1,3.1,4.1,4.9,7.2,4.2l26-5.6
		c2.7-0.6,4.7-3,4.8-5.8c0-0.3,0-0.6,0-0.9l-2.8-26.6c-0.3-2.5,0.9-4.9,3.1-6.1c0.2-0.1,0.4-0.2,0.6-0.3c0.6-0.3,1.2-0.5,1.8-0.8
		c7-3.2,13.6-7.2,19.8-11.8c2-1.6,4.9-1.6,7-0.1l18.8,12.6c2.7,1.8,6.3,1.3,8.3-1.2l3.8-4.5l13.2-15.7c2.1-2.5,1.9-6.1-0.4-8.4
		l-16.7-16.7c-1.8-1.8-2.2-4.5-1.2-6.8c2.8-6,5-12.4,6.7-19.1c1.2-5,2.1-10,2.6-15l4.9-1.5l20-6.2c2.5-0.7,4.2-3,4.3-5.5
		c0-0.5,0-1-0.1-1.6l-5.6-26.1c-0.7-3.1-3.6-5.1-6.7-4.8l-16.4,1.8c-2.8,0.3-5.4-1.3-6.4-4c-4-10.8-9.6-20.9-16.7-29.9
		c-1.7-2.1-1.8-5-0.3-7.2l15.1-22.5c1.7-2.5,1.2-5.9-1.1-7.9l-20.5-17.3c-2.4-2.1-6-1.9-8.2,0.3l-20.8,20.8
		c-1.8,1.8-4.5,2.3-6.8,1.3c-5-2.1-10.3-3.8-15.7-5.2c-2.9-0.7-5.9-1.3-8.8-1.8c-2.3-0.4-4.2-2-4.9-4.2l-8.3-26.8
		c-1-3.1-4.1-5-7.3-4.3l-25.3,5.5l-0.6,0.1c-3.1,0.7-5.1,3.6-4.8,6.7l2.3,21.5c0,0.4,0,0.7,0,1c-0.2,2.4-1.7,4.5-4,5.3
		c-13.5,4.8-26,12.3-36.6,22c-0.4,0.4-0.9,0.7-1.4,1c-1.9,0.9-4.3,0.8-6.2-0.4l-15-10.1c-2-1.3-4.5-1.3-6.5-0.2
		c-0.6,0.4-1.2,0.8-1.7,1.4l-17,20.2c-2.1,2.5-1.9,6.2,0.4,8.5l17,17c1.7,1.7,2.2,4.2,1.4,6.4c-1.1,3.2-2.1,6.5-2.9,9.9
		c-1.6,6.3-2.5,12.6-2.9,18.9l0,0c-0.2,2.6-1.9,4.8-4.4,5.6l-23.3,7.2l-1.2,0.4c-3,0.9-4.8,4-4.2,7.1L1015.9,447.2z M1096.3,387.7
		c2.5-6.7,6.3-13.3,11.5-19.6c1.1-1.3,2.5-2.7,4-4.1c6.6-5.8,16.2-11,23.7-12.6c57.2-12.1,95.1,49.5,59.5,94.8
		c-0.6,0.7-1.2,1.5-1.8,2.2c-5.8,6.8-17.7,14-26.5,16c-4.6,1-9,1.6-13.3,1.7C1110.3,467.3,1082.2,425.9,1096.3,387.7z"/>
	<path class="st10" d="M1335.5,1630.2c0,29.7,24.2,53.9,53.9,53.9h541.3c29.7,0,53.9-24.2,53.9-53.9V600.5c0,1.4,0,2.9-0.1,4.4v63.7
		h-648.7v-64.3c0-8,0.4-15.4,1.4-22.3c-1,4.1-1.6,8.4-1.6,12.8V1630.2z M1457.7,1554.7v-85.8h13.7v85.8H1457.7z M1496.8,1554.7
		v-110.5h13.7v110.5H1496.8z M1549.6,1554.7h-13.7V1467h13.7V1554.7z M1588.7,1554.7h-13.7v-127.4h13.7V1554.7z M1627.7,1554.7H1614
		v-153.4h13.7V1554.7z M1666.8,1554.7h-13.7v-129.8h13.7V1554.7z M1705.9,1554.7h-13.7V1463h13.7V1554.7z M1745,1554.7h-13.7V1491
		h13.7V1554.7z M1784.1,1554.7h-13.7v-81.3h13.7V1554.7z M1823.2,1554.7h-13.7v-110.5h13.7V1554.7z M1862.2,1554.7h-13.7V1463h13.7
		V1554.7z M1660,789c141,0,255.4,114.3,255.4,255.4S1801,1299.8,1660,1299.8c-141,0-255.4-114.3-255.4-255.4S1518.9,789,1660,789z"
		/>
	<path class="st10" d="M1984.4,594.8c0-3.9-0.4-7.6-1.2-11.2c0.8,4.9,1.2,10.2,1.2,16.1V594.8z"/>
	<path class="st10" d="M1940.3,541.8c-3.2-0.6-6.4-0.9-9.7-0.9h-61l51.2,0.4C1927.7,540.9,1934.2,541,1940.3,541.8z"/>
	<path class="st0" d="M1335.7,668.6h648.7v-63.7c0.1-1.5,0.1-2.9,0.1-4.4v-1c0-5.9-0.4-11.2-1.2-16.1c-4.5-21.2-21.5-37.8-42.9-41.7
		c-6.1-0.8-12.6-0.9-19.5-0.5l-51.2-0.4h-480.3c-25.3,0-46.5,17.5-52.3,41c-1,6.9-1.4,14.4-1.4,22.3V668.6z M1895.4,643.8l-12.5-8.8
		c2.8-3.9,7.3-6.5,12.5-6.5c5.1,0,9.6,2.5,12.4,6.4L1895.4,643.8z M1917.5,627.9c-5-6.9-13.1-11.4-22.2-11.4
		c-9.2,0-17.4,4.6-22.3,11.6l-7.9-5.5c6.7-9.5,17.7-15.7,30.2-15.7c12.3,0,23.3,6.1,30,15.4L1917.5,627.9z M1932.8,616.9
		c-8.4-11.6-22.1-19.1-37.5-19.1c-15.5,0-29.3,7.7-37.7,19.4l-7.9-5.5c10.1-14.2,26.8-23.5,45.6-23.5c18.6,0,35.1,9.1,45.3,23.2
		L1932.8,616.9z M1895.4,565.5c26.2,0,49.4,12.9,63.5,32.7l-7.8,5.6c-12.4-17.3-32.8-28.7-55.7-28.7c-23.1,0-43.6,11.5-56,29.1
		l-7.9-5.5C1845.6,578.7,1869,565.5,1895.4,565.5z"/>
	<path class="st11" d="M1660,1299.8c141,0,255.4-114.3,255.4-255.4S1801,789,1660,789c-141,0-255.4,114.3-255.4,255.4
		S1518.9,1299.8,1660,1299.8z M1599.4,1010.4h34.3V999h-34.3v-14.8h34.3v-11.4h-34.3v-15.5h34.3v-11.4h-34.3v-45.7
		c0-31.9,26.1-58.1,58.1-58.1h5c31.9,0,58.1,26.1,58.1,58.1v45.7h-31.9v11.4h31.9v15.5h-31.9v11.4h31.9V999h-31.9v11.4h31.9v40.1
		c0,31.9-26.1,58.1-58.1,58.1h-5c-31.9,0-58.1-26.1-58.1-58.1V1010.4z M1555.3,940c0-5.1,4.1-9.2,9.2-9.2s9.2,4.1,9.2,9.2v106.9
		c0,47.5,38.7,86.2,86.2,86.2c47.5,0,86.2-38.7,86.2-86.2V940c0-5.1,4.1-9.2,9.2-9.2c5.1,0,9.2,4.1,9.2,9.2v106.9
		c0,54.6-42,99.6-95.4,104.2v91.7c0,5.1-4.1,9.2-9.2,9.2c-5.1,0-9.2-4.1-9.2-9.2v-91.7c-53.4-4.7-95.4-49.6-95.4-104.2V940z"/>
	<path class="st0" d="M1657.5,1108.6h5c31.9,0,58.1-26.1,58.1-58.1v-40.1h-31.9V999h31.9v-14.8h-31.9v-11.4h31.9v-15.5h-31.9v-11.4
		h31.9v-45.7c0-31.9-26.1-58.1-58.1-58.1h-5c-31.9,0-58.1,26.1-58.1,58.1v45.7h34.3v11.4h-34.3v15.5h34.3v11.4h-34.3V999h34.3v11.4
		h-34.3v40.1C1599.4,1082.4,1625.5,1108.6,1657.5,1108.6z"/>
	<path class="st0" d="M1669.2,1142.4v8.8c53.4-4.7,95.4-49.6,95.4-104.2V940c0-5.1-4.1-9.2-9.2-9.2c-5.1,0-9.2,4.1-9.2,9.2v106.9
		c0,47.5-38.7,86.2-86.2,86.2C1665.1,1133.1,1669.2,1137.3,1669.2,1142.4z"/>
	<path class="st0" d="M1650.7,1151.2v-8.8c0-5.1,4.1-9.2,9.2-9.2c-47.5,0-86.2-38.7-86.2-86.2V940c0-5.1-4.1-9.2-9.2-9.2
		s-9.2,4.1-9.2,9.2v106.9C1555.3,1101.5,1597.3,1146.5,1650.7,1151.2z"/>
	<path class="st0" d="M1650.7,1142.4v8.8v91.7c0,5.1,4.1,9.2,9.2,9.2c5.1,0,9.2-4.1,9.2-9.2v-91.7v-8.8c0-5.1-4.1-9.2-9.2-9.2
		C1654.9,1133.1,1650.7,1137.3,1650.7,1142.4z"/>
	<rect x="1457.7" y="1468.9" class="st0" width="13.7" height="85.8"/>
	<rect x="1496.8" y="1444.1" class="st0" width="13.7" height="110.5"/>
	<rect x="1535.8" y="1467" class="st0" width="13.7" height="87.7"/>
	<rect x="1574.9" y="1427.3" class="st0" width="13.7" height="127.4"/>
	<rect x="1614" y="1401.3" class="st0" width="13.7" height="153.4"/>
	<rect x="1653.1" y="1424.9" class="st0" width="13.7" height="129.8"/>
	<rect x="1692.2" y="1463" class="st0" width="13.7" height="91.7"/>
	<rect x="1731.3" y="1491" class="st0" width="13.7" height="63.7"/>
	<rect x="1770.3" y="1473.4" class="st0" width="13.7" height="81.3"/>
	<rect x="1809.4" y="1444.1" class="st0" width="13.7" height="110.5"/>
	<rect x="1848.5" y="1463" class="st0" width="13.7" height="91.7"/>
	<path class="st11" d="M1895.4,628.5c-5.1,0-9.7,2.6-12.5,6.5l12.5,8.8l12.4-8.9C1905,631,1900.5,628.5,1895.4,628.5z"/>
	<path class="st11" d="M1895.4,606.8c-12.5,0-23.5,6.2-30.2,15.7l7.9,5.5c5-7,13.1-11.6,22.3-11.6c9.1,0,17.2,4.5,22.2,11.4l7.8-5.6
		C1918.7,612.9,1907.7,606.8,1895.4,606.8z"/>
	<path class="st11" d="M1895.4,575.2c22.9,0,43.3,11.3,55.7,28.7l7.8-5.6c-14.2-19.8-37.4-32.7-63.5-32.7
		c-26.4,0-49.7,13.1-63.9,33.2l7.9,5.5C1851.7,586.7,1872.2,575.2,1895.4,575.2z"/>
	<path class="st11" d="M1895.4,588.1c-18.8,0-35.4,9.3-45.6,23.5l7.9,5.5c8.4-11.7,22.2-19.4,37.7-19.4c15.4,0,29.1,7.6,37.5,19.1
		l7.8-5.6C1930.5,597.2,1914,588.1,1895.4,588.1z"/>
	<path class="st8" d="M1320,1273.8v169.8v24v0.3v47.1v115.1c0,38.2,31.1,69.3,69.3,69.3h541.3c38.2,0,69.3-31.1,69.3-69.3v-136.7
		v-83.3v-34.5v-125.8V925.6V712.9V594.8c0-11.9-3-23.1-8.3-32.9c-11.7-21.6-34.7-36.4-61-36.4H1890h-409.3h-91.3
		c-38.2,0-69.3,31.1-69.3,69.3v14.7V1027V1273.8z M1389.3,540.9h480.3h61c3.3,0,6.6,0.3,9.7,0.9c21.4,3.9,38.4,20.5,42.9,41.7
		c0.8,3.6,1.2,7.4,1.2,11.2v4.8v1v1029.6c0,29.7-24.2,53.9-53.9,53.9h-541.3c-29.7,0-53.9-24.2-53.9-53.9V594.8
		c0-4.4,0.5-8.7,1.6-12.8C1342.8,558.4,1364.1,540.9,1389.3,540.9z"/>
</g>
</svg>
