<svg xmlns="http://www.w3.org/2000/svg" xmlns:xlink="http://www.w3.org/1999/xlink" viewBox="0 0 291.79 306.57"><defs><style>.cls-1{fill:#ddbcbc;opacity:0.5;}.cls-2{fill:#374291;}.cls-3{fill:#4858a3;}.cls-4{fill:#c99bce;}.cls-5{fill:#f3e0fc;}.cls-6{fill:#1b1a56;}.cls-7{fill:#28337d;}.cls-30,.cls-8{fill:#fff;}.cls-9{fill:#e85d8f;}.cls-10{fill:#abdae1;}.cls-11{fill:#d35b31;}.cls-12{fill:#a3b9c9;}.cls-13{fill:#489bfd;}.cls-14{fill:#64b2ff;}.cls-15{fill:#fab234;}.cls-16{fill:#472e2e;}.cls-17{fill:#ff6a4d;}.cls-18{fill:#ffc3c2;}.cls-19{fill:#33211f;}.cls-20{fill:#ffb4af;}.cls-21{fill:#f45540;}.cls-22{fill:#ff8271;}.cls-23{fill:#80c6ff;}.cls-24{fill:url(#linear-gradient);}.cls-25{fill:#f79826;}.cls-26{fill:#4a5baf;}.cls-27{fill:#222568;}.cls-28{fill:url(#linear-gradient-2);}.cls-29{fill:#563d3d;}.cls-30{opacity:0.2;}.cls-31{fill:#db4574;}.cls-32{fill:#cc3a6e;}.cls-33{fill:#fbf3ff;}.cls-34{fill:#d6cec9;}.cls-35{fill:#217c59;}.cls-36{fill:#e3d1ed;}.cls-37{fill:#ffad97;}.cls-38{fill:#d2abd8;}.cls-39{fill:#c7afd8;}.cls-40{fill:#dfc8ed;}.cls-41{fill:#2f8eed;}</style><linearGradient id="linear-gradient" x1="-209.05" y1="116.54" x2="-195.07" y2="116.54" gradientTransform="matrix(-1, 0, 0, 1, -31.36, 0)" gradientUnits="userSpaceOnUse"><stop offset="0" stop-color="#ea3afe"/><stop offset="0.99" stop-color="#fb67fd"/></linearGradient><linearGradient id="linear-gradient-2" x1="-216.55" y1="106.82" x2="-202.57" y2="106.82" xlink:href="#linear-gradient"/></defs><g id="Capa_2" data-name="Capa 2"><g id="Layer_1" data-name="Layer 1"><ellipse class="cls-1" cx="253.5" cy="181.24" rx="38.29" ry="22.18"/><ellipse class="cls-1" cx="18.02" cy="224.85" rx="18.02" ry="10.44"/><path class="cls-1" d="M199.42,197.88c-2.58-1.94-4.78-4.08-10.65-1.1s-7.8,6-5.75,7.9,11,6.92,13.36,8.91,7.33.06,11.51-3,2.23-6.77-1-8.15A32.59,32.59,0,0,1,199.42,197.88Z"/><path class="cls-1" d="M151.2,115.94s-10.47,5.3-15.22,6.37a45.17,45.17,0,0,0-12.57,5.53c-2.93,1.8-.4,4.47,4.09,3.13s8.72-2.24,16.1-5,14.93-2.41,17.41-1.1,8.81,9,14.39,8.13,10.78-5.58,11.58-9.57c.45-2.22-9.28-3.9-9.28-3.9s18-8.52,25.63-12.56,17-9.33,9.46-13.43c-4.95-2.68-11.87-1.78-15.57,0s-13,5.17-16.82,6.53S157.39,113,151.2,115.94Z"/><path class="cls-1" d="M40.46,264.67c-2.61,1.58-6,6.47-1.77,11.16,2.7,3,7.33,1.69,10.59,2.88,2.28.83,5.89.62,9.93-2.17s8.92-4.14,14.11-5.06c2.57-.46,3.87-1.33,3.25-2.63-.81-1.7-1.41-2.12-3-2.23-3.56-.26-4.48.26-4.48.26s7.42-2.5,5.68-6.65-4.57-5.43-9.35-4.1S40.46,264.67,40.46,264.67Z"/><polygon class="cls-1" points="176.43 234.21 100.22 190.21 52.78 217.6 58.23 220.75 46.01 227.81 122.21 271.81 169.66 244.42 164.2 241.27 176.43 234.21"/><path class="cls-1" d="M173,170.29c-2.25-1.43-10.46-5.19-16.47-8.62a160.59,160.59,0,0,1-17.12-11.08c-1.71-1.41-8.16-7-14.26-7.42-3.29-.25-11.88,2.93-11.88,2.93l-.63-.31,3.25-1.86L97.41,133.24l32.34-18.63-7.7-4.15L90,128.94l-7.89-4.56L47.85,144l8,4.6L21.49,168.38l7.7,4.15L63.27,152.9l18.44,10.65,25.09-14.39c.85.47,1.65.89,2.35,1.24,4.54,2.27,12.29,5.76,16,7.64s7.42,3.77,14.19,10.17,19.53,14.3,25.84,13.5c5.19-.66,3.15-2.89,6-3.94C175.25,176.28,178.54,173.79,173,170.29Z"/><path class="cls-1" d="M229.68,288.78l56-32.33-50.91-29.39L153,274.28l50.92,29.39,8.23-4.75c.25,2.36,1.09,6.49,3.94,7.48s7.05-2.53,11.23-5.11,11-4.38,8.57-7.41A24.66,24.66,0,0,0,229.68,288.78Z"/><path class="cls-2" d="M32.18,219.66c-2.53-3-7.91-5-14.15-5s-11.62,2.06-14.15,5H2.33v4.23h0c.39,4.68,7.24,8.41,15.66,8.41,8.67,0,15.7-4,15.7-8.83v-3.81Z"/><path class="cls-3" d="M18,210.83c-8.67,0-15.7,3.95-15.7,8.83s7,8.83,15.7,8.83,15.7-4,15.7-8.83S26.7,210.83,18,210.83Z"/><path class="cls-4" d="M18,211.06c-7.68,0-13.9,3.51-13.9,7.83s6.22,7.82,13.9,7.82,13.9-3.5,13.9-7.82S25.71,211.06,18,211.06Z"/><path class="cls-5" d="M18,211.06c-6.76,0-12.24,3.09-12.24,6.9s5.48,6.89,12.24,6.89,12.25-3.09,12.25-6.89S24.79,211.06,18,211.06Z"/><path class="cls-2" d="M23.24,214.12c-.49-2.66-1.76-3.67-1.88-6H14.69c-.11,2.34-1.38,3.35-1.87,6a9.44,9.44,0,0,0,0,2.37c0,1.62,2.33,2.94,5.21,2.94s5.21-1.32,5.21-2.94h0A9.44,9.44,0,0,0,23.24,214.12Z"/><path class="cls-6" d="M32.27,180.42A17.66,17.66,0,0,0,28,176.55a21.77,21.77,0,0,0-6-2.33v0a8.75,8.75,0,0,0-6.09,1.3c-6.67,3.86-12.08,14.2-12.08,23.1,0,3.49.83,6.22,2.24,8H6a17.9,17.9,0,0,0,4.32,3.87,21,21,0,0,0,5.88,2.29l1-2.29-3-2a12.36,12.36,0,0,0,1.7-.8C22.52,204,27.92,193.67,28,184.68a17.06,17.06,0,0,0-.41-3.93l2.27,1.47Z"/><path class="cls-7" d="M34.52,188.46c-.05,9-5.44,19.29-12.09,23.1s-12.09-.24-12.09-9.14,5.41-19.24,12.09-23.1S34.56,179.56,34.52,188.46Z"/><path class="cls-2" d="M34.11,189.28c0,8.31-5,17.84-11.18,21.37s-11.19-.22-11.19-8.45,5-17.81,11.19-21.37S34.15,181.05,34.11,189.28Z"/><path class="cls-4" d="M29.32,187.5l.2-.42-1.59-.88h0a4.52,4.52,0,0,0-4.47.43c-3.87,2.23-7,8.21-7,13.36,0,2.8.93,4.77,2.4,5.63h0l.14.08h0l1.41.78.18-.39a5.47,5.47,0,0,0,2.85-.83c3.86-2.23,7-8.21,7-13.37A7.87,7.87,0,0,0,29.32,187.5Z"/><ellipse class="cls-5" cx="25.02" cy="196.82" rx="10.74" ry="6.08" transform="translate(-165.88 142.78) rotate(-66.95)"/><ellipse class="cls-8" cx="25.48" cy="196.82" rx="8.46" ry="4.79" transform="translate(-165.6 143.21) rotate(-66.95)"/><path class="cls-6" d="M30,194.88c0,2.88-1.75,6.23-3.91,7.48s-3.91-.08-3.91-3,1.75-6.23,3.91-7.48S30,192,30,194.88Z"/><path class="cls-9" d="M28.26,196.34A3.31,3.31,0,0,1,26.87,199c-.76.44-1.39,0-1.39-1.05a3.34,3.34,0,0,1,1.39-2.65C27.64,194.85,28.26,195.32,28.26,196.34Z"/><path class="cls-2" d="M10.05,210.37a13.45,13.45,0,0,1-2.14-7.53,29.66,29.66,0,0,1,.37-5.7,16.84,16.84,0,0,0,.26-2.59c0-1-.56-1.53-3.89-2.39l.2-.77c3.05.78,4.49,1.35,4.49,3.16a18,18,0,0,1-.26,2.71,27.86,27.86,0,0,0-.37,5.55c.13,3.9,1.16,6.59,3.34,8.64A21,21,0,0,1,10.05,210.37Z"/><path class="cls-2" d="M12.72,184.37a2.14,2.14,0,0,1-.84-.2c-.84-.38-1.39-.68-1.92-1-.34-.19-.67-.37-1.07-.56l.35-.72c.41.2.75.39,1.11.58.51.29,1.05.58,1.86.95s1.18,0,2.47-1.38c.53-.56,1.19-1.25,2.05-2l.24-.22c2.31-2.1,4.88-4.43,8.89-4.32A16.21,16.21,0,0,1,28,176.57c-4.95-1.15-7.74,1.38-10.44,3.84l-.24.21c-.84.76-1.49,1.44-2,2C14.27,183.65,13.59,184.37,12.72,184.37Z"/><path class="cls-10" d="M111.42,139.78s-16.9-9.25-21.51-12.49c-3.34-2.34-2.3-4.34-.25-11s6.52-18.86,6.52-18.86l-3-.48a32.9,32.9,0,0,1,2-5.37C81.57,92.94,68,103.15,67,104.37s-8.59,29.35-9.61,33,0,5.83,6.31,9.6,18.67,9.54,18.67,9.54l25.9-14.64,3.16,1.84Z"/><path class="cls-11" d="M82.36,156.52S65.13,146.79,60.62,144c-3.45-2.17-2.07-4.58,0-11.24s6.52-18.86,6.52-18.86L63,113.2s-4.8,14.7-6.51,20.33-2.87,10,2.26,13.24c7,4.4,23.61,13.69,23.61,13.69Z"/><polygon class="cls-12" points="82.36 156.52 82.36 160.46 111.42 143.72 111.42 139.78 82.36 156.52"/><path class="cls-11" d="M127,3.59,122.34.87a5.09,5.09,0,0,0-.71-.42l-.06,0h0a4.6,4.6,0,0,0-4.24.21L24.71,54.1a7.31,7.31,0,0,0-3.66,6.33v79.12A5.07,5.07,0,0,0,23.63,144v0l5.14,3,3.07-4.76,0,0,88.85-51.3a7.32,7.32,0,0,0,3.66-6.33V4.66c0-.13,0-.25,0-.38Z"/><path class="cls-12" d="M26.19,63.44v79.12A5.11,5.11,0,0,0,33.86,147l91.93-53.07a7.3,7.3,0,0,0,3.65-6.33V7.67a4.65,4.65,0,0,0-7-4L29.85,57.11A7.29,7.29,0,0,0,26.19,63.44Z"/><polygon class="cls-8" points="124.63 7.64 42.14 55.31 31.01 61.75 31.01 143.06 124.63 88.95 124.63 7.64"/><path class="cls-13" d="M94,47.79,92.52,47h0A.46.46,0,0,0,92,47L43,75.28a1.76,1.76,0,0,0-.73,1.4v51a.7.7,0,0,0,.19.54h0l0,0,1.51.88.93-1.73-.37-.09L92,100a1.77,1.77,0,0,0,.73-1.4V48.39l.49.41Z"/><path class="cls-14" d="M94.24,99.43a1.77,1.77,0,0,1-.73,1.4l-49,28.3c-.41.23-.73,0-.73-.55v-51a1.73,1.73,0,0,1,.73-1.4l49-28.3c.4-.24.73,0,.73.55Z"/><polygon class="cls-8" points="92.8 99 45.19 126.49 45.19 81.07 92.8 53.58 92.8 99"/><polygon class="cls-9" points="92.93 51.91 91 53.02 91 50.45 92.93 49.34 92.93 51.91"/><polygon class="cls-15" points="89.92 53.65 87.99 54.76 87.99 52.19 89.92 51.08 89.92 53.65"/><polygon class="cls-16" points="61.18 84.93 61.18 87.03 90.92 69.86 90.92 67.76 61.18 84.93"/><polygon class="cls-16" points="61.18 89.4 61.18 91.51 90.92 74.34 90.92 72.23 61.18 89.4"/><polygon class="cls-16" points="61.18 93.95 61.18 96.05 90.92 78.88 90.92 76.78 61.18 93.95"/><polygon class="cls-16" points="61.18 98.82 61.18 100.92 76.03 92.35 76.03 90.25 61.18 98.82"/><polygon class="cls-16" points="61.18 103.29 61.18 105.4 76.03 96.83 76.03 94.72 61.18 103.29"/><polygon class="cls-16" points="76.03 99.27 47.17 115.93 47.17 118.04 76.03 101.37 76.03 99.27"/><polygon class="cls-16" points="76.03 103.92 47.17 120.59 47.17 122.69 76.03 106.03 76.03 103.92"/><polygon class="cls-17" points="47.17 92.95 47.17 113.31 58.63 106.67 58.63 86.31 47.17 92.95"/><polygon class="cls-13" points="78.51 88.83 78.51 104.62 90.92 97.43 90.92 81.65 78.51 88.83"/><path class="cls-9" d="M54.72,85.19v-.75l.23-.16a.43.43,0,0,0,.2-.38V79.59l-.39.2V79l1.67-1v.75L56.2,79a.44.44,0,0,0-.2.41V83.5l1.16-.67c.14-.08.16-.21.16-.39v-.65l.71-.34v1.83Z"/><path class="cls-9" d="M58.47,83v-.75l.23-.16a.43.43,0,0,0,.2-.38V77.43l-.4.2v-.79L61.69,75v1.54L61,77v-.37c0-.17,0-.28-.2-.17l-1,.6v1.58l1.61-.92v.94l-1.61.93v1.73l1.12-.64a.39.39,0,0,0,.19-.41v-.47l.71-.34v1.65Z"/><path class="cls-9" d="M64.56,77.78c0-.58-.4-.52-.88-.41-.69.15-1.33.14-1.33-1A3.23,3.23,0,0,1,64,73.58a2.36,2.36,0,0,1,1.31-.38v1.39l-.71.48v-.54c0-.18,0-.24-.14-.22a1.46,1.46,0,0,0-.46.18,1.39,1.39,0,0,0-.73,1.22c0,.58.41.5.93.42s1.3-.11,1.3,1.09a3.4,3.4,0,0,1-1.69,2.87,2.6,2.6,0,0,1-1.4.43V79.05l.71-.47v.56c0,.18,0,.24.15.22a1.57,1.57,0,0,0,.5-.2A1.51,1.51,0,0,0,64.56,77.78Z"/><path class="cls-9" d="M68.19,75.69c0-.58-.4-.52-.88-.42-.69.15-1.33.15-1.33-1a3.24,3.24,0,0,1,1.61-2.75,2.43,2.43,0,0,1,1.31-.37V72.5l-.71.47v-.54c0-.17,0-.23-.15-.22a1.55,1.55,0,0,0-.45.19,1.39,1.39,0,0,0-.73,1.22c0,.57.41.5.93.41s1.3-.1,1.3,1.09A3.37,3.37,0,0,1,67.4,78a2.51,2.51,0,0,1-1.4.43V77l.71-.48v.57c0,.17,0,.24.14.22a1.57,1.57,0,0,0,.51-.21A1.49,1.49,0,0,0,68.19,75.69Z"/><path class="cls-9" d="M71.6,75.56c-1.23.72-2,.09-2-2a5,5,0,0,1,2.09-4.42c1-.6,2-.28,2,2.07A4.8,4.8,0,0,1,71.6,75.56Zm.05-1c.89-.51,1.14-1.77,1.14-2.88,0-1-.19-2.17-1.15-1.62A3.29,3.29,0,0,0,70.46,73C70.46,74.05,70.65,75.18,71.65,74.6Z"/><path class="cls-9" d="M74.15,73.22l.25-.17a.38.38,0,0,0,.18-.36V68.37l-.4.21v-.79l1.26-.73,2,3.13h0V66.74L77,67v-.78l1.7-1V66l-.25.17a.41.41,0,0,0-.17.38v5.1l-.81.47-2-3.16h0v3.51l.45-.24V73l-1.7,1Z"/><path class="cls-9" d="M80.63,69.52,82,66.39a3.7,3.7,0,0,0,.49-1.6c0-.54-.26-.65-.59-.46a1.62,1.62,0,0,0-.41.31.48.48,0,0,0-.14.41v.65l-.71.35V64.56a5.4,5.4,0,0,1,1.4-1.24c.86-.5,1.33-.1,1.33.88a5.29,5.29,0,0,1-.6,2.11l-1.12,2.41,1.74-1v.92l-2.77,1.6Z"/><path class="cls-13" d="M115.63,24.09l-1.43-.82h0a.42.42,0,0,0-.48,0l-49,28.3a1.73,1.73,0,0,0-.73,1.4v51a.67.67,0,0,0,.19.53h0l.05,0,1.51.87.93-1.73-.38-.09,47.44-27.38a1.76,1.76,0,0,0,.73-1.4V24.7l.49.4Z"/><path class="cls-14" d="M115.92,75.73a1.74,1.74,0,0,1-.74,1.4l-49,28.3c-.4.23-.73,0-.73-.55v-51a1.76,1.76,0,0,1,.73-1.4l49-28.3c.41-.23.74,0,.74.55Z"/><polygon class="cls-8" points="114.48 75.3 66.87 102.79 66.87 57.38 114.48 29.89 114.48 75.3"/><polygon class="cls-9" points="114.61 28.21 112.68 29.33 112.68 26.75 114.61 25.64 114.61 28.21"/><polygon class="cls-15" points="111.6 29.95 109.67 31.06 109.67 28.49 111.6 27.38 111.6 29.95"/><polygon class="cls-16" points="80.09 62.83 80.09 64.94 112.6 46.17 112.6 44.06 80.09 62.83"/><polygon class="cls-16" points="80.09 67.3 80.09 69.41 112.6 50.64 112.6 48.53 80.09 67.3"/><polygon class="cls-16" points="80.09 71.85 80.09 73.95 112.6 55.19 112.6 53.08 80.09 71.85"/><polygon class="cls-16" points="97.71 66.55 68.84 83.21 68.84 85.32 97.71 68.65 97.71 66.55"/><polygon class="cls-16" points="97.71 71.02 68.84 87.69 68.84 89.79 97.71 73.13 97.71 71.02"/><polygon class="cls-16" points="97.71 75.57 68.84 92.23 68.84 94.34 97.71 77.67 97.71 75.57"/><polygon class="cls-16" points="97.71 80.23 68.84 96.89 68.84 99 97.71 82.33 97.71 80.23"/><polygon class="cls-15" points="68.84 69.32 68.84 80.37 77.53 75.34 77.53 64.29 68.84 69.32"/><polygon class="cls-9" points="100.19 65.13 100.19 80.92 112.6 73.74 112.6 57.95 100.19 65.13"/><path class="cls-9" d="M76.3,61.62v-.75l.23-.16a.43.43,0,0,0,.2-.38V56l-.39.2v-.79l1.67-1v.75l-.23.17a.46.46,0,0,0-.2.41v4.13l1.16-.66a.4.4,0,0,0,.16-.39v-.65l.71-.35v1.84Z"/><path class="cls-9" d="M80.05,59.46V58.7l.23-.16a.41.41,0,0,0,.2-.37V53.86l-.4.2v-.79l3.19-1.84V53l-.71.47v-.37c0-.18,0-.28-.2-.17l-1,.59v1.59l1.61-.93v1L81.33,56v1.73l1.12-.65c.18-.1.19-.22.19-.4v-.47l.71-.34v1.65Z"/><path class="cls-9" d="M86.14,54.21c0-.58-.39-.52-.88-.41-.69.14-1.33.14-1.33-1A3.24,3.24,0,0,1,85.54,50a2.45,2.45,0,0,1,1.31-.37V51l-.71.47V51c0-.18,0-.24-.14-.22a1.46,1.46,0,0,0-.46.18,1.39,1.39,0,0,0-.73,1.22c0,.58.41.5.93.41s1.3-.1,1.3,1.1a3.36,3.36,0,0,1-1.68,2.86,2.57,2.57,0,0,1-1.41.43V55.48l.71-.48v.57c0,.17,0,.24.15.22a1.84,1.84,0,0,0,.5-.2A1.51,1.51,0,0,0,86.14,54.21Z"/><path class="cls-9" d="M89.77,52.12c0-.59-.39-.52-.88-.42-.69.15-1.33.15-1.33-1a3.23,3.23,0,0,1,1.61-2.75,2.36,2.36,0,0,1,1.31-.38v1.4l-.71.47v-.54c0-.17,0-.24-.14-.22a1.5,1.5,0,0,0-.46.19,1.36,1.36,0,0,0-.73,1.22c0,.57.41.5.93.41s1.3-.1,1.3,1.09A3.38,3.38,0,0,1,89,54.42a2.57,2.57,0,0,1-1.41.43V53.38l.71-.47v.56c0,.18,0,.24.15.23a1.92,1.92,0,0,0,.5-.21A1.51,1.51,0,0,0,89.77,52.12Z"/><path class="cls-9" d="M93.19,52c-1.24.72-2,.09-2-2a5,5,0,0,1,2.09-4.42c1-.6,2-.29,2,2.07A4.83,4.83,0,0,1,93.19,52Zm0-1c.89-.51,1.14-1.77,1.14-2.88,0-.95-.19-2.18-1.15-1.62A3.28,3.28,0,0,0,92,49.42C92,50.48,92.23,51.61,93.23,51Z"/><path class="cls-9" d="M95.73,49.65l.25-.17a.38.38,0,0,0,.18-.36V44.8l-.4.2v-.79L97,43.49l2,3.12h0V43.16l-.46.24v-.79l1.7-1v.75l-.25.18a.4.4,0,0,0-.17.38V48l-.81.47-2-3.16h0v3.5l.45-.23v.79l-1.7,1Z"/><path class="cls-9" d="M103.23,41.31l-.82,1-.31-.53L103.37,40l.68-.4v5.14l.73-.37v.79l-2.42,1.4v-.76l.66-.44a.43.43,0,0,0,.21-.43Z"/><path class="cls-18" d="M154.85,52.21c-4.61.27-6,2.37-8.19,4.37-1.82,1.65-3.1,2.06-5,3.17a60,60,0,0,0-12.27.79c-2.64.33-6.88.93-8.53,1.24-1.33.25-1.08,1.2.17,1.1s2.83-.31,3,0,.93,2.09,2.26,2.59,3.36-1,4.14-1c1.59,0,5-.08,7.25,0s3.94.66,5.07.39c3.29-.77,8.85-3.54,10.8-4.46C156.64,58.16,154.85,52.21,154.85,52.21Z"/><path class="cls-16" d="M191,21.65V17.47a5.33,5.33,0,0,1,2.24-.47,3,3,0,0,1,1.78.74,23.15,23.15,0,0,1,2.69-.31c.87,0,3.27.83,3.82,1.6a.83.83,0,0,1-.64,1.41,21.22,21.22,0,0,0-4.94,2Z"/><path class="cls-16" d="M205.77,25.18a23.31,23.31,0,0,1,2.13-3.33c.75-.79,3.73.55,4,1.5a7.09,7.09,0,0,0-.46.91,10.12,10.12,0,0,1,2.92,2.15,4.49,4.49,0,0,1,1,4.58c-.41,1.24-1.86.11-3.44-.71s-4-2.17-4-2.17Z"/><path class="cls-19" d="M170.27,47.23a20.9,20.9,0,0,1,3.55-4.56c1.52-1.41,2.71-2.62,5.27-3,2.18-.29,7.86-1.91,9.44-3.07.74-5.09,2.15-14.08,2.22-15.46,2.05-1.45,5.23.13,6,.79,0,2.43-.77,8.44-1.16,11.65-.31,2.47-.39,3.9-.75,5.81-.22,1.15-1.17,1.68-2.34,2.63-2.74,2.23-4,4.14-6.14,5.41s-6.89,3.69-6.89,3.69Z"/><path class="cls-19" d="M182.71,43c1.19-.64,3.35-.19,4.53.22a58.32,58.32,0,0,0,10.36-3.3A25.77,25.77,0,0,1,200.89,32c1.48-2.33,3.56-5.44,4.78-7.29,2.55.28,4.09.87,5,3.62-.19.41-7.36,15.45-8.66,17.3a7,7,0,0,1-2,1.65A82.56,82.56,0,0,1,190.3,53c-5.62,2.7-9.36,4.16-9.36,4.16l-6.61-7.31A26.5,26.5,0,0,1,182.71,43Z"/><path class="cls-17" d="M152,54c1.32-1.18,2.12-2,6.81-3.43,2-.61,6.07-1.78,8.52-3.28,2.86-1.75,5-3.59,6.46-4.59a13.78,13.78,0,0,1,10.34,4.94c1.45,1.77,2,5.62,2,7.65-.75.31-4.56,1.77-5.36,2.11-6,2.55-9.22,8.1-15.56,8.89-5.07.64-13.41-2.7-14.06-6.29S150.84,55,152,54Z"/><path class="cls-20" d="M158.79,57.93s2.47.74,2.92,1-.1,1.32-.35,2.53-.35,2.85-.56,3.35a1.6,1.6,0,0,1-2,.74A9.36,9.36,0,0,1,155.46,64c-.76-.75-.52-4.41-.52-4.41S157.58,57.9,158.79,57.93Z"/><path class="cls-18" d="M160.15,54.71c1,1.27,1.31,4.47-.07,6.71a8.6,8.6,0,0,1-5.25,3.33c-2.22.36-4.61-5.76-2.08-9.5A4.5,4.5,0,0,1,160.15,54.71Z"/><path class="cls-19" d="M158,52a4.52,4.52,0,0,1,2.91,1.93c2.26.49,2,3.73,1.47,5-1.08,2.37-2.32,2.53-2.32,2.53a3.77,3.77,0,0,0,0-1.85c-.25-.48-1-.57-1.27.29a1.9,1.9,0,0,1-.63.06l.26-1.71A3.07,3.07,0,0,1,155.7,58a2.8,2.8,0,0,0-3.18.12,3.35,3.35,0,0,1-.22-1.74c-.88-.62-1.71-1.17-1.59-1.59a2.51,2.51,0,0,0,2.1-.2,5,5,0,0,1-1.14-1.3C153.21,53.5,156.54,51.76,158,52Z"/><path class="cls-21" d="M182.14,54.05a6.75,6.75,0,0,0-1.62-4,9.52,9.52,0,0,0-2.82-2.16s1.91,2.06,2.53,2.91S182.14,54.05,182.14,54.05Z"/><path class="cls-21" d="M178.84,50.42a5.51,5.51,0,0,1,1.42,2.6,5.42,5.42,0,0,1,0,2.58,15.18,15.18,0,0,0-.64-2.65C179.18,51.7,178.84,50.42,178.84,50.42Z"/><path class="cls-18" d="M165.86,58.89a4.76,4.76,0,0,0-2.35,5.21c.29,2.24,2,2.69,5,2.24a19.3,19.3,0,0,0,4.55-1.12h5.77s-2.08,4.28-2.67,5.45-2.46,1.49-4.81.93a3.05,3.05,0,0,0,3,3.45c2.4,0,3.06-1.51,4.22-2.69s5.27-3.58,6.85-9.28c.59-2.13-.29-2.13-3.26-3.46-2.73-1.22-6.85-1.2-9.89-1.68S168.52,57.19,165.86,58.89Z"/><polygon class="cls-21" points="169.69 62.9 167.62 69.89 172.53 70.94 174.84 64.25 169.69 62.9"/><polygon class="cls-17" points="169.89 63.13 167.82 70.12 172.73 71.18 175.04 64.48 169.89 63.13"/><polygon class="cls-22" points="167.82 70.12 167.62 69.89 169.69 62.9 169.89 63.13 167.82 70.12"/><path class="cls-14" d="M178.84,65.21l-6.25-1.7-2.32,7.81,1.29.32a6.1,6.1,0,0,0,4.08-.18,5.37,5.37,0,0,0,2.13-3.17Z"/><polygon class="cls-23" points="172.59 63.51 171.69 62.99 169.37 70.8 170.27 71.32 172.59 63.51"/><polygon class="cls-8" points="172.41 63.4 171.86 63.08 169.6 70.63 170.14 70.94 172.41 63.4"/><polygon class="cls-13" points="178.84 65.21 177.95 64.69 171.69 62.99 172.59 63.51 178.84 65.21"/><polygon class="cls-19" points="173.55 64.36 173.14 64.26 171.12 71.07 171.48 71.15 173.55 64.36"/><path class="cls-19" d="M178.68,65.72l-4.54-1.17-2,6.82,2.21.48a2.37,2.37,0,0,0,1.87-.78,6.6,6.6,0,0,0,1.5-2.59Z"/><polygon class="cls-5" points="171.86 63.08 178.11 64.79 178.68 65.11 172.41 63.4 171.86 63.08"/><path class="cls-20" d="M127.2,100s3.35-2.69,5.73-1.62,7.79,2.79,8.93,4c.56.62,1.07.38,1.57,1.55.32.77-.52,1.45-.81,3-.36,1.89-3.54,5.71-3.54,5.71l-3.9-1.81Z"/><path class="cls-18" d="M170.41,113.26s.14-1.11.26-2c.11-.72.35-3.26.55-4.83a.85.85,0,0,0,.33.25c1.63.71,4.41.57,5.38.92s3,.72,3.15,2.27c-.6-.22-1.2-.48-1.75-.66-1.55-.5-3-.69-3.28,0a35,35,0,0,0-.25,4.75Z"/><path class="cls-19" d="M139.65,115.07l4.43-1.54s1.71-.4,5,1c2.47,1,3.29,2.53,4.74,4.08.74.78,3.8,1.22,7.61,2.6a43.28,43.28,0,0,1,7.73,4s.37-2.41,1-9.29c.22-2.43.41-4,.6-5.33,1.59,1.14,2.68,1.55,4.09.75.09,1.92.41,6.17.43,7.86,0,3.7.16,7-.06,9.92a6.08,6.08,0,0,1-1.83,4.28c-.67.7-2.54,1-5,.68a66.23,66.23,0,0,1-10.26-2.87,109.48,109.48,0,0,1-14-6.15c-3-1.6-10.51-7.82-10.51-7.82Z"/><path class="cls-18" d="M162.91,123s.13-1.11.26-2c.1-.72.34-3.26.54-4.84a.82.82,0,0,0,.34.26c1.62.71,4.4.57,5.38.92s3,.72,3.15,2.27c-.6-.22-1.2-.48-1.75-.66-1.55-.51-3-.69-3.29,0a34.7,34.7,0,0,0-.24,4.75Z"/><path class="cls-15" d="M163.83,115.3a12.72,12.72,0,0,1,.22-1.62c0,.32.81,1,2.28,1.23s3.5.53,4.37.74a11.35,11.35,0,0,1,4.21,3.08,4.18,4.18,0,0,0,1.76,1.31,3.18,3.18,0,0,1-.54.19,7,7,0,0,1-3.55-.63c-.16-1.55-2.18-1.92-3.15-2.27s-3.76-.21-5.38-.92a.82.82,0,0,1-.34-.26C163.76,115.81,163.8,115.52,163.83,115.3Z"/><path class="cls-24" d="M174.91,118.73a11.35,11.35,0,0,0-4.21-3.08c-.87-.21-2.89-.53-4.37-.74s-2.32-.91-2.28-1.23.33-.47.84-.59c1.21-.28,2.27.57,3.18.85s1.89.08,4.15.5a7.25,7.25,0,0,1,5,3c1,1.4.29,2.18-.54,2.57A4.18,4.18,0,0,1,174.91,118.73Z"/><path class="cls-25" d="M174.91,118.73a11.43,11.43,0,0,0-4-2.58,18.06,18.06,0,0,0-4.54-1.24c-1.47-.21-2.32-.91-2.28-1.23s.33-.47.84-.59c1.21-.28,2.27.57,3.18.85s1.89.08,4.15.5a7.25,7.25,0,0,1,5,3c1,1.4.29,2.18-.54,2.57A4.18,4.18,0,0,1,174.91,118.73Z"/><path class="cls-16" d="M135.18,115.53c3.82-2.34,5-3.11,5-3.11a19.78,19.78,0,0,1,6.85,4c1.59,1.32,2.91,4.8,3.18,5.86.62,2.45,3.19,3.65,6.71,6.74a28.51,28.51,0,0,1,5.36,6.19,38.94,38.94,0,0,1,.1-7.79c.26-2.86.53-5.68.9-7.41a5.93,5.93,0,0,0,4.07.84c.25,1.91.54,6.15.91,9.49.51,4.54.48,6.89,0,9.69a4.1,4.1,0,0,1-2.22,2.65,5.5,5.5,0,0,1-3.08.43c-3.39-.21-11.68-4.93-16.57-9s-11.16-10.28-11.16-10.28S131.35,117.86,135.18,115.53Z"/><polygon class="cls-26" points="133.89 102.35 138.76 98.76 143.6 104.05 139.48 107.25 133.89 102.35"/><polygon class="cls-2" points="133.5 103.2 138.38 99.61 143.22 104.91 139.09 108.1 133.5 103.2"/><polygon class="cls-27" points="138.38 99.61 138.76 98.76 143.6 104.05 143.22 104.91 138.38 99.61"/><polygon class="cls-8" points="138.85 99.15 138.69 99.63 143.32 104.67 143.51 104.24 138.85 99.15"/><polygon class="cls-26" points="134.12 103.7 139.63 101.19 143.28 107.36 138.59 109.64 134.12 103.7"/><polygon class="cls-2" points="133.57 104.46 139.08 101.94 142.73 108.11 138.04 110.4 133.57 104.46"/><polygon class="cls-27" points="139.08 101.94 139.63 101.19 143.28 107.36 142.73 108.11 139.08 101.94"/><polygon class="cls-8" points="139.64 101.58 139.38 102.02 142.88 107.91 143.16 107.53 139.64 101.58"/><path class="cls-15" d="M123.05,102.91l-3.57.76a8.65,8.65,0,0,0,1.48,4.41,2.92,2.92,0,0,1,.19,3.51s1.37,3.15,2.89,3.83c.93.42,2.86.65,4,1.2,2.16,1.06,2.38,1.82,3.94,3.43,1.23,1.28,3.2,3.85,3.2,3.85a17.12,17.12,0,0,1,5.35-7.31c2.9-2.13,7.33-2.46,7.33-2.46s-3.14-1.39-5.63-2.86a20.34,20.34,0,0,1-4.81-4.58c-3.22-4.33-3.29-5-6.15-6.39S123.05,102.91,123.05,102.91Z"/><path class="cls-18" d="M120.88,92.61c-1.47.87-2.37,1.84-2.28,5.19s1,3.91,1.67,4.19a8.08,8.08,0,0,0,1.29.31s.41,3.27,1,4c.33.46,1.83.51,3.42-.14S127.5,105,127.5,105a13.23,13.23,0,0,1-.75-4.27c.13-2.3.75-3.58.27-5.76A4.1,4.1,0,0,0,120.88,92.61Z"/><path class="cls-18" d="M120.16,104.77c-2.13-1.41-6.94-1.87-9.21-2.94a81.52,81.52,0,0,1-9.41-9.74,3.58,3.58,0,0,1-.81-3.36c.07-.39,1.24-1.54-.06-1.3-.92.16-1.56,2-1.56,2A12.71,12.71,0,0,1,97.49,88c-.64-.72-1.72-1.74-2.38-1.56-.46.13-.67.77-.6,1.62s.57,2.3,2.53,4.22a17.77,17.77,0,0,1,2.81,2.63c2.59,3.75,4.34,7.28,7.86,10.25h0l.25.2c.13.11.24.22.38.32h0a14.92,14.92,0,0,0,2,1.39c4.6,2.62,10.66,5.44,10.66,5.44,1.5.42,2.64.23,2.68-.71A9,9,0,0,0,120.16,104.77Z"/><path class="cls-17" d="M118.6,94c.05,1.2,1.56,2.07,1.49,3a3.15,3.15,0,0,0,.62,2.5,2.61,2.61,0,0,1-.13,3.88,2.73,2.73,0,0,1-2.19.14,2.27,2.27,0,0,0,1.77,1.27,4.65,4.65,0,0,0,1.7-.24s-1.24,1.63-.68,2.68,2.59,1.19,3.11,1.73a2.05,2.05,0,0,1,.53,2.33,5.49,5.49,0,0,0,1.59-1.8,2.77,2.77,0,0,0-.17-2s1.14,1.08,2,1c1.27-.18,1.48-.6,1.48-.6s-1.78-.11-2.18-1.38c-.11-.36.47-.88,1.21-.58,2,.79,2,0,2.6.33s.6,1.34.6,1.34a2.54,2.54,0,0,0,.42-1.69c-.17-1.31-2.33-2.16-2.33-2.16s1.41.47,2-.39.1-1.27.39-1.84c.74-1.47,2.76.57,2.76.57A2.86,2.86,0,0,0,133,99.52c-.69-.22-1.61.2-2.28-.18-2.22-1.27-.63-4.45-1.87-6.54a3.91,3.91,0,0,0-4-1.81,4.24,4.24,0,0,0-2.48-.74C119.81,90.43,118.51,92.12,118.6,94Z"/><path class="cls-15" d="M171.34,105.58a11.62,11.62,0,0,1,.21-1.62c0,.32.81,1,2.28,1.23s3.51.53,4.38.74a11.46,11.46,0,0,1,4.2,3.08,4.24,4.24,0,0,0,1.76,1.31,3.93,3.93,0,0,1-.54.2,7,7,0,0,1-3.55-.64c-.16-1.55-2.18-1.91-3.15-2.27s-3.75-.21-5.38-.92a.85.85,0,0,1-.33-.25C171.26,106.1,171.3,105.8,171.34,105.58Z"/><path class="cls-28" d="M182.41,109a11.46,11.46,0,0,0-4.2-3.08c-.87-.21-2.9-.53-4.38-.74s-2.32-.91-2.28-1.23a1.07,1.07,0,0,1,.85-.59c1.2-.28,2.26.57,3.18.85s1.88.08,4.14.5a7.26,7.26,0,0,1,5,3c1,1.4.29,2.19-.54,2.57A4.24,4.24,0,0,1,182.41,109Z"/><path class="cls-25" d="M182.41,109a11.22,11.22,0,0,0-4-2.57,17.64,17.64,0,0,0-4.54-1.25c-1.47-.21-2.32-.91-2.28-1.23a1.07,1.07,0,0,1,.85-.59c1.2-.28,2.26.57,3.18.85s1.88.08,4.14.5a7.26,7.26,0,0,1,5,3c1,1.4.29,2.19-.54,2.57A4.24,4.24,0,0,1,182.41,109Z"/><path class="cls-25" d="M137.92,114.09s-1.8,1.68-3,2.91a6.46,6.46,0,0,1-2.2,1.57,7.74,7.74,0,0,1,1.69-2.29A7.9,7.9,0,0,1,137.92,114.09Z"/><path class="cls-25" d="M135.3,114.09a18.9,18.9,0,0,1-2.62,1.25,5.85,5.85,0,0,1-2.11.33,17.35,17.35,0,0,1,2.11-.94A20.33,20.33,0,0,1,135.3,114.09Z"/><path class="cls-27" d="M118.27,97.29a6.82,6.82,0,0,0,1.89,3.61,1.82,1.82,0,0,0,2.76-1.63,5.19,5.19,0,0,0-2.16-4.13C119.56,94.45,118.26,95.7,118.27,97.29Z"/><path class="cls-2" d="M118.27,97.29a4.55,4.55,0,0,0,1.89,3.61c1,.6,1.89,0,1.89-1.43a4.55,4.55,0,0,0-1.89-3.61C119.12,95.26,118.27,95.9,118.27,97.29Z"/><path class="cls-26" d="M118.39,97.76a3.32,3.32,0,0,0,1.38,2.63c.76.43,1.38,0,1.38-1a3.28,3.28,0,0,0-1.38-2.63C119,96.28,118.39,96.74,118.39,97.76Z"/><path class="cls-2" d="M123.42,91.15c-1.13.85-1.65,1.28-2.27,1a.63.63,0,0,1-.37-.42c-1.2,1.55-1.14,4.43-1.14,4.43l1.51,1a18.86,18.86,0,0,1,.45-3.58,4.35,4.35,0,0,1,2.82-2.25,3.56,3.56,0,0,1,2.78,0,2.5,2.5,0,0,0-.36-.56A3.83,3.83,0,0,0,123.42,91.15Z"/><path class="cls-26" d="M126.26,90.24c-1-.62-3.53-.32-5.11,1.07a2.34,2.34,0,0,0-.37.4.63.63,0,0,0,.37.42c.62.3,1.14-.13,2.27-1a3.83,3.83,0,0,1,3.42-.4A2.51,2.51,0,0,0,126.26,90.24Z"/><path class="cls-19" d="M286.53,176.83c-2.35-9.28-16.14-16.39-32.79-16.39S223.3,167.55,221,176.83h-.36v2.81c0,10.6,14.84,19.2,33.15,19.2s33.15-8.6,33.15-19.2v-2.81Z"/><ellipse class="cls-16" cx="253.74" cy="176.83" rx="33.15" ry="19.2"/><ellipse class="cls-29" cx="253.74" cy="170.02" rx="19.93" ry="11.55"/><path class="cls-19" d="M256.65,152.87c0,.93-1.3,1.68-2.91,1.68s-2.91-.75-2.91-1.68,1.3-1.69,2.91-1.69S256.65,151.94,256.65,152.87Z"/><path class="cls-19" d="M259.48,166.55s-2.83-11-2.83-13.68V145l-5.82,3.63v4.21c0,2.88-2.82,13.57-2.82,13.57a2.11,2.11,0,0,0-.09.56c0,1.86,2.6,3.37,5.82,3.37s5.82-1.51,5.82-3.37A1.78,1.78,0,0,0,259.48,166.55Z"/><polygon class="cls-19" points="231.75 147.57 229.58 146.3 264.65 56.79 266.82 58.06 231.75 147.57"/><path class="cls-19" d="M273.36,53.18l-3.47-2.08h0a17.56,17.56,0,0,0-4.71-1.9L262.12,57a15,15,0,0,1,5,2.18c3.05-.71,6.13-1.37,9.2-2-.16-.23-.33-.43-.49-.65Z"/><path class="cls-19" d="M276.8,57.92c-2.93,1-6.17,1.2-9.24,1.58,5.68,4.08,9.21,12.32,9.21,23.71,0,22.37-13.6,48.35-30.37,58-6.8,3.92-13.07,4.57-18.13,2.47l-3.05,7.8c5.94,2.38,15.53,1.71,23.45-2.86,19.79-11.43,35-41.29,35-67.68A44.16,44.16,0,0,0,276.8,57.92Z"/><path class="cls-16" d="M268.64,51.28l-3.05,7.8c8.79,2,14.66,11.51,14.66,26.21,0,22.37-13.6,48.35-30.38,58-6.8,3.92-13.07,4.57-18.13,2.47l-3,7.8c5.93,2.38,13.25,1.59,21.17-3,19.79-11.43,35.84-42.09,35.84-68.48C285.71,64.92,278.88,53.78,268.64,51.28Z"/><polygon class="cls-29" points="265.59 59.08 262.06 57.02 265.11 49.21 268.64 51.28 265.59 59.08"/><polygon class="cls-29" points="231.74 145.79 228.27 143.72 225.22 151.52 228.7 153.6 231.74 145.79"/><path class="cls-23" d="M289.4,91.87c-.54,2.18-1.43,4.29-1.51,6.57a6.25,6.25,0,0,1-1.45,4.2c-.37.4-1.41,0-1.79-.6-.61-.94.4-2.82-.8-3.06-1.48-.29-2.31,0-2.84,2s.78,3.73,1.42,5.64c.14.43.55,1-.32,1.15a3.64,3.64,0,0,1-3.61-2c-.32-.79-1.63-.46-2.07-1-.63-.76-.6-1.64-1.3-1.42s-.94.7-1.46,1c-1,.58-2.5,2.56-3.67,2.39-4.41-.63-6.62-.48-9.49.56-.87.32-1.52-.25-2.18-.12-.83.16-1.27-.5-1.87-.82-.16.42-.48,1.13-.12,1.61s1,.36,1.63.36a4.64,4.64,0,0,1,2.54,1.07,3,3,0,0,0,1.89.13c1.56-.25,2.41-1.09,4.08-.4s3,1.7,3,3.81a39.27,39.27,0,0,1,0,4.46c-.58,3.91-1.4,6.85-4,10.22-.52.68-.63,2.07-1.19,2.74-.91,1.12-2.63,2.05-3.69,3.06s-1.7,2.33-2.73,3.06c-1.83,1.3-2.17,2.24-3.78,1.47-.91-.44-2.5-2.84-3.11-3.69a10.62,10.62,0,0,1-1.79-4,20.53,20.53,0,0,1-.27-2.36c-.16-1.7-.75-2.26-2.06-3.19a9.3,9.3,0,0,1-2.59-3.07c-1.22-1.84-2.9-1.8-4.57-2.89a3,3,0,0,1-1.46-2,18.68,18.68,0,0,1,.16-2.51c0-1-.27-1.82-.25-2.79.09-2.93,4.37-5.62,6.72-6.67,1.71-.77,2.81-.26,4.3-.34.71,0,1.86-.39,2.51.2a12,12,0,0,0,1.58.87,10.19,10.19,0,0,0,2.25.28s0,0,.06,0a9.25,9.25,0,0,1-1.32-.92c-1.28-1-2.31-2.31-3.89-2.93a11.06,11.06,0,0,0-4.89-.34,16.27,16.27,0,0,1-4.87-.59c-1.67-.43-2.3-1.8-2.5-3.9a21.36,21.36,0,0,1,.47-2.64c.09-1.32-.87-2.23,0-3.66s2-3.24,3.47-4.08c1.33-.75,2.91-1,4.29-1.6a18.71,18.71,0,0,0,3.65-2.4,52.31,52.31,0,0,1,5.47-4.25c4.51-2.72,10-1.34,14.55-3.59,2.28-1.13,4.78-4.91,7.57-5a43.08,43.08,0,0,0-23.4-12.06,8.83,8.83,0,0,1,2.06,2.7c.91,2,.15,2.92-.85,4.51s-.06,3.29-1.52,4.51c-1.1.9-3,1.17-4.29,1.64-1.69.6-3.37,1.23-5.06,1.82a11.29,11.29,0,0,1-5.47.86c-2-.34-2.43-1.27-3.29-2.85-.17-.32-.32-2.14-1.75-2.2-1.9-.08-3.33-.16-4.52.63-1.6,1.06-2.09,3.36-2.47,5.23-.47,2.39.69,5.34-.77,7.48a5.22,5.22,0,0,1-3.87,1.92c-2.86.34-5.61-.71-8.43-.73-2.28,0-4,1.06-4.41,2.85-.31,1.24.35,2.54.38,3.82a22,22,0,0,1-.48,5.28c-.14.66-.74,1.45-1.27,1a14.3,14.3,0,0,1-3.49-4,43.58,43.58,0,0,0-.64,5A9.08,9.08,0,0,1,206,98.81c1.65,1.4,1.51,4.06,2.49,5.93,1.5,2.87,4.45,3.33,6.82,5.14a5.69,5.69,0,0,1,2.48,3.92,9.3,9.3,0,0,1-.31,2.35,9.64,9.64,0,0,0,1.15,6.68c2.1,4,5.42,7.87,9.71,9.46.76.28,1.86.55,2.26,1.19s-1.78,1.43-2.3,1.75a10.26,10.26,0,0,1-4.55,1.52,43.12,43.12,0,0,0,66.49-36.26A43.75,43.75,0,0,0,289.4,91.87Zm-78.33,10.84a2.49,2.49,0,0,1-.06-1.12,3.62,3.62,0,0,0-.29-1.69,1.45,1.45,0,0,1,0-1.36c.44-.75.87.17,1.27.68a4.55,4.55,0,0,1,.61,1.07,1.06,1.06,0,0,1,.1.3,2.79,2.79,0,0,1-.11,1,3.56,3.56,0,0,0,.06,2c.06.19.26.5.08.51A2,2,0,0,1,211.07,102.71Zm3.39,4.91c-.09.06,0-.33-.45-.62s-1.46-.81-1.58-1.5c-.09-.47.24-.71.67-.89.27-.11.28.16.45.49s.55.42.84.7C214.83,106.23,215,107.29,214.46,107.62Zm11.79-19.86a7.34,7.34,0,0,0-.54,1.88c-.06.5,0,.92-.32,1.32a1.38,1.38,0,0,1-1.85,0c-1.27-.88-2.11-2.39-3.38-3.33-.51-.38-1.25-.54-1.06-1.26s1.36-1,2-1c.89,0,1.83.55,2.56,0a1.8,1.8,0,0,1,2-.35A2.52,2.52,0,0,1,226.25,87.76ZM271.31,129c-.43.69-.44,2.22-1.27,2.94s-2.11.74-2.93,1.08c-1.13.46-1.2-1.17-.86-2.77.25-1.19,2-1.65,2.84-2.59a10.59,10.59,0,0,0,1.82-3c.19-.49.36-1.48.75-1C273.08,125.16,272.37,127.31,271.31,129Z"/><path class="cls-2" d="M255.52,78.59a52.31,52.31,0,0,0-5.47,4.25,18.71,18.71,0,0,1-3.65,2.4c-1.38.65-3,.85-4.29,1.6-1.51.84-2.54,2.64-3.47,4.08s.05,2.34,0,3.66a21.36,21.36,0,0,0-.47,2.64c.2,2.1.83,3.47,2.5,3.9a16.27,16.27,0,0,0,4.87.59,11.06,11.06,0,0,1,4.89.34c1.58.62,2.61,1.89,3.89,2.93a9.25,9.25,0,0,0,1.32.92s0,0-.06,0a10.19,10.19,0,0,1-2.25-.28,12,12,0,0,1-1.58-.87c-.65-.59-1.8-.23-2.51-.2-1.49.08-2.59-.43-4.3.34-2.35,1-6.63,3.74-6.72,6.67,0,1,.27,1.78.25,2.79a18.68,18.68,0,0,0-.16,2.51,3,3,0,0,0,1.46,2c1.67,1.09,3.35,1,4.57,2.89a9.3,9.3,0,0,0,2.59,3.07c1.31.93,1.9,1.49,2.06,3.19a20.53,20.53,0,0,0,.27,2.36,10.62,10.62,0,0,0,1.79,4c.61.85,2.2,3.25,3.11,3.69,1.61.77,1.95-.17,3.78-1.47,1-.73,1.81-2.18,2.73-3.06s2.78-1.94,3.69-3.06c.56-.67.67-2.06,1.19-2.74,2.62-3.37,3.44-6.31,4-10.22a39.27,39.27,0,0,0,0-4.46c0-2.11-1.25-3.1-3-3.81s-2.52.15-4.08.4a3,3,0,0,1-1.89-.13,4.64,4.64,0,0,0-2.54-1.07c-.62,0-1.33,0-1.63-.36s0-1.19.12-1.61c.6.32,1,1,1.87.82.66-.13,1.31.44,2.18.12,2.87-1,5.08-1.19,9.49-.56,1.17.17,2.7-1.81,3.67-2.39.52-.31.9-.84,1.46-1s.67.66,1.3,1.42c.44.53,1.75.2,2.07,1a3.64,3.64,0,0,0,3.61,2c.87-.12.46-.72.32-1.15-.64-1.91-2-3.62-1.42-5.64s1.36-2.24,2.84-2c1.2.24.19,2.12.8,3.06.38.59,1.42,1,1.79.6a6.25,6.25,0,0,0,1.45-4.2c.08-2.28,1-4.39,1.51-6.57A43,43,0,0,0,277.64,70c-2.79.09-5.29,3.87-7.57,5C265.48,77.25,260,75.87,255.52,78.59Z"/><path class="cls-2" d="M270.91,124.63a10.59,10.59,0,0,1-1.82,3c-.81.94-2.59,1.4-2.84,2.59-.34,1.6-.27,3.23.86,2.77.82-.34,2.12-.37,2.93-1.08s.84-2.25,1.27-2.94c1.06-1.68,1.77-3.83.35-5.41C271.27,123.15,271.1,124.14,270.91,124.63Z"/><path class="cls-2" d="M230.62,133.48c-.4-.64-1.5-.91-2.26-1.19-4.29-1.59-7.61-5.49-9.71-9.46a9.64,9.64,0,0,1-1.15-6.68,9.3,9.3,0,0,0,.31-2.35,5.69,5.69,0,0,0-2.48-3.92c-2.37-1.81-5.32-2.27-6.82-5.14-1-1.87-.84-4.53-2.49-5.93a9.08,9.08,0,0,0-1.92-1.35c-.07,1-.12,2-.12,3a43.08,43.08,0,0,0,19.79,36.26,10.26,10.26,0,0,0,4.55-1.52C228.84,134.91,231,134.08,230.62,133.48Z"/><path class="cls-2" d="M208.23,96.44c.53.42,1.13-.37,1.27-1a22,22,0,0,0,.48-5.28c0-1.28-.69-2.58-.38-3.82.44-1.79,2.13-2.87,4.41-2.85,2.82,0,5.57,1.07,8.43.73a5.22,5.22,0,0,0,3.87-1.92c1.46-2.14.3-5.09.77-7.48.38-1.87.87-4.17,2.47-5.23,1.19-.79,2.62-.71,4.52-.63,1.43.06,1.58,1.88,1.75,2.2.86,1.58,1.3,2.51,3.29,2.85a11.29,11.29,0,0,0,5.47-.86c1.69-.59,3.37-1.22,5.06-1.82,1.3-.47,3.19-.74,4.29-1.64,1.46-1.22.53-2.94,1.52-4.51s1.76-2.56.85-4.51a8.83,8.83,0,0,0-2.06-2.7,43.85,43.85,0,0,0-7.12-.59,43.14,43.14,0,0,0-42.38,35.09A14.3,14.3,0,0,0,208.23,96.44Z"/><path class="cls-2" d="M212.64,103.59a3.56,3.56,0,0,1-.06-2,2.79,2.79,0,0,0,.11-1,1.06,1.06,0,0,0-.1-.3,4.55,4.55,0,0,0-.61-1.07c-.4-.51-.83-1.43-1.27-.68a1.45,1.45,0,0,0,0,1.36,3.62,3.62,0,0,1,.29,1.69,2.49,2.49,0,0,0,.06,1.12,2,2,0,0,0,1.65,1.39C212.9,104.09,212.7,103.78,212.64,103.59Z"/><path class="cls-2" d="M213.55,105.1c-.17-.33-.18-.6-.45-.49-.43.18-.76.42-.67.89.12.69,1,1.14,1.58,1.5s.36.68.45.62c.53-.33.37-1.39-.07-1.82C214.1,105.52,213.72,105.45,213.55,105.1Z"/><path class="cls-2" d="M223.7,85.36c-.73.57-1.67,0-2.56,0-.68,0-1.83.23-2,1s.55.88,1.06,1.26c1.27.94,2.11,2.45,3.38,3.33a1.38,1.38,0,0,0,1.85,0c.37-.4.26-.82.32-1.32a7.34,7.34,0,0,1,.54-1.88,2.52,2.52,0,0,0-.6-2.75A1.8,1.8,0,0,0,223.7,85.36Z"/><ellipse class="cls-30" cx="233.43" cy="88.09" rx="27.62" ry="22.14" transform="translate(40.43 246.2) rotate(-60)"/><path class="cls-30" d="M267.92,111.41C256.06,131.94,233.46,140.8,217,131.3a43,43,0,0,1-7.18-52.4c11.72-20.61,36.76-26.2,55.33-17.65C276.73,72.56,278.29,93.45,267.92,111.41Z"/><path class="cls-30" d="M241.37,87.16c-4.26,7.38-12.51,10.59-18.42,7.18s-7.25-12.16-3-19.54,12.5-10.59,18.42-7.18S245.63,79.78,241.37,87.16Z"/><path class="cls-21" d="M263.5,72.28c-1.89-1.09-3.6-1.11-4.89-.28h0l-2.8,1.6.7,1.58.05,0a10.71,10.71,0,0,0-.3,2.59c0,.39,0,.78.05,1.18.43,6.86,4.43,16.34,6.27,20.38a12.34,12.34,0,0,0-1.32.79l-.52,2.76,2.76-1.58s6.58-6.12,7.18-14a10.65,10.65,0,0,0,.06-1.15C270.74,80.78,267.5,74.59,263.5,72.28Z"/><path class="cls-17" d="M253.56,80.51a11.66,11.66,0,0,1-.06-1.18c0-5.33,3.24-7.78,7.24-5.47S268,82.36,268,87.7c0,.4,0,.78-.06,1.15-.61,7.89-7.19,14-7.19,14S254.12,89.45,253.56,80.51Z"/><path class="cls-8" d="M256.26,80.92c0,3.31,2,7.15,4.48,8.58s4.49-.09,4.49-3.39-2-7.15-4.49-8.58S256.26,77.62,256.26,80.92Z"/><path class="cls-25" d="M245.17,36.82c-1.89-1.09-3.6-1.11-4.89-.28h0l-2.8,1.6.7,1.58,0,0a10.71,10.71,0,0,0-.3,2.59c0,.39,0,.78,0,1.18.44,6.86,4.43,16.34,6.27,20.39a10.78,10.78,0,0,0-1.31.78l-.52,2.76,2.75-1.58s6.58-6.12,7.18-14a10.65,10.65,0,0,0,.06-1.15C252.41,45.32,249.17,39.13,245.17,36.82Z"/><path class="cls-15" d="M235.23,45.05c0-.39-.06-.79-.06-1.17,0-5.34,3.25-7.79,7.25-5.48s7.24,8.51,7.24,13.84c0,.4,0,.78-.06,1.15-.61,7.89-7.18,14-7.18,14S235.79,54,235.23,45.05Z"/><path class="cls-8" d="M237.93,45.47c0,3.3,2,7.14,4.49,8.57s4.48-.09,4.48-3.39-2-7.15-4.48-8.58S237.93,42.16,237.93,45.47Z"/><path class="cls-31" d="M216.92,108.86c-1.89-1.09-3.6-1.11-4.89-.28h0l-2.79,1.6.69,1.58.06,0a10.22,10.22,0,0,0-.31,2.59c0,.39,0,.78,0,1.18.44,6.86,4.43,16.33,6.27,20.38a11.67,11.67,0,0,0-1.31.79l-.52,2.76,2.75-1.58s6.58-6.12,7.19-14c0-.36,0-.74,0-1.15C224.16,117.36,220.92,111.17,216.92,108.86Z"/><path class="cls-9" d="M207,117.09c0-.4-.06-.79-.06-1.18,0-5.33,3.25-7.78,7.25-5.47s7.24,8.5,7.24,13.84a10.65,10.65,0,0,1-.06,1.15c-.61,7.89-7.18,14-7.18,14S207.55,126,207,117.09Z"/><path class="cls-8" d="M209.68,117.5c0,3.31,2,7.15,4.49,8.58s4.49-.09,4.49-3.39-2-7.15-4.49-8.58S209.68,114.2,209.68,117.5Z"/><path class="cls-18" d="M206.56,125.07a2.3,2.3,0,0,0,.86-2.09,4.17,4.17,0,0,1,.09-2l.66,2.78a9.71,9.71,0,0,1,1.23-1.08c.73-.52,1.16.38.59.86s-.18,2.1-.59,2.58a3.61,3.61,0,0,1-1,.76A2.86,2.86,0,0,0,206.56,125.07Z"/><path class="cls-5" d="M204.67,126s.65-1.1,1.41-1.25a2.11,2.11,0,0,1,2.33,2.34,3.68,3.68,0,0,1-1,1.82Z"/><path class="cls-7" d="M205.53,125c-2.28,0-5.73,4.6-7.73,6.6a32.81,32.81,0,0,1-7.68,5.65c-2.75,1.33-4.41,3.25-3.61,7s6,1.13,7.13-.13,4.8-4.15,6.2-5.48a95,95,0,0,0,8.1-10C208.8,127.06,206.58,125,205.53,125Z"/><path class="cls-16" d="M207.46,204.37c-.74-.47-5.55.87-5.55.87L196.72,207l.4,3.91a3.35,3.35,0,0,0,4.4.25c1.52-1,4.47-2.35,5.58-3.95C207.9,206,208.21,204.83,207.46,204.37Z"/><path class="cls-16" d="M194.63,196.79c-.75-.47-5.56.87-5.56.87l-5.19,1.74.4,3.91a3.35,3.35,0,0,0,4.4.25c1.53-1,4.47-2.35,5.58-3.94C195.06,198.46,195.37,197.25,194.63,196.79Z"/><path class="cls-7" d="M188,161s-2.39,2.34-2.76,7.26c-.17,2.21,1,11.65,1,11.65a51,51,0,0,0-2.26,8,94.83,94.83,0,0,0-.41,11c.31,1,1.32,1.9,3.34,1.75s3.55-2.82,3.55-2.82.72-6,1.39-10.06c.39-2.28.83-3.79,1-5.69l.31-7.48s2.5,9.92,3.28,12.95c-1.53,5.05-.17,18.8,0,19.89,3.08,2.43,5,.14,6.25-1.85-.08-3.06.41-8.45.52-12.73.09-3.37,0-4.78.09-5.91.11-2.2-.89-8.82-1.4-13.89-.59-5.91-.71-10.18-.71-10.18Z"/><path class="cls-2" d="M201.45,144.53c0,3.4-.66,9.26-.59,11.08a111.17,111.17,0,0,0,1.57,12.62c-1.1,1.1-5.56,3-9.28,2.19-2.65-.56-6.81-1.42-8.37-4.08,0-.52,2.5-6.31,2.19-8a87.39,87.39,0,0,1-1.18-12.22c-.07-2.31.84-5.17,1.78-6.14s1.89-1.67,3.64-1.19c1.42.13,4.6,1.93,5.64,2.52C199.92,141.21,201.46,143.52,201.45,144.53Z"/><path class="cls-20" d="M190.12,140.55l.57-3.16,4.41,1a5.24,5.24,0,0,0,0,3.06A16.33,16.33,0,0,1,190.12,140.55Z"/><path class="cls-18" d="M189.09,130.73a4.58,4.58,0,0,1,7.47-1.14c3.37,3.14,2,9.46-.43,9.9a7.07,7.07,0,0,1-5.44-2.1C188.81,135.47,188.39,132.22,189.09,130.73Z"/><path class="cls-15" d="M198.89,129.32a3.88,3.88,0,0,1-1.09,2.32,11.19,11.19,0,0,1-2.89,1.57,7.75,7.75,0,0,0,.19,1.42,1,1,0,0,1-.29,1.11s-1-1.58-1.66-.31a1.44,1.44,0,0,0,.53,2,5.22,5.22,0,0,1-1.07,1.59,16.48,16.48,0,0,1-1.39,1.1,18.5,18.5,0,0,0-2-3.79,7.8,7.8,0,0,1-1.63-4,3.92,3.92,0,0,1,2.52-3.75,4.24,4.24,0,0,1,4.77-.52,3.3,3.3,0,0,0,2.84-.15,4,4,0,0,1-.6,1.76A10.66,10.66,0,0,0,198.89,129.32Z"/><path class="cls-7" d="M193.45,139.8a4.31,4.31,0,0,1,3.4,1.54s-2.71,1.61-4.5.87a9.93,9.93,0,0,1-2.77-1.65c-.47-.59.54-1.85.54-1.85A4.67,4.67,0,0,0,193.45,139.8Z"/><path class="cls-18" d="M218.67,133.1a5.5,5.5,0,0,0,1.25-2.39c.06-1,.2-1.46.79-1.06s.06,1.19,0,1.66.58.8.58.8l1-1.71s1.27.7.59,2.7a3,3,0,0,1-2.09,2.06,17.82,17.82,0,0,0-1.76.58Z"/><path class="cls-5" d="M216.05,133.69s2.22-1.17,2.88-1.07c1.09.75,1.95,1.62,1.1,2.93a9.38,9.38,0,0,1-2.41,1.74Z"/><path class="cls-7" d="M217.43,133c1.47-.07,2.46,1.28,2.32,3.62-.08,1.38-5.37,6.09-7.38,8.06-1.28,1.26-9,6-11.51,7.18-2.07.93-2.65-1-3.12-2-.7-1.54-.88-6.4-.14-7.43,1-1.34,3-1.32,4.36-1.39a23.14,23.14,0,0,0,6.83-1.6C210.9,137.08,215.91,133.1,217.43,133Z"/><polygon class="cls-9" points="165.22 240.21 121.65 265.37 51.67 224.96 95.23 199.81 165.22 240.21"/><polygon class="cls-32" points="165.22 240.21 165.22 242.26 121.65 267.41 121.65 265.37 165.22 240.21"/><polygon class="cls-33" points="162.38 232.99 162.38 240.13 121.65 263.54 121.65 256.39 162.38 232.99"/><polygon class="cls-34" points="54.81 217.8 121.65 255.53 121.65 263.77 54.81 225.19 54.81 217.8"/><polygon class="cls-35" points="165.22 232.43 121.65 257.58 51.67 217.17 95.23 192.02 165.22 232.43"/><polygon class="cls-9" points="165.22 230.38 121.65 255.53 51.67 215.13 95.23 189.98 165.22 230.38"/><polygon class="cls-32" points="165.22 230.38 165.22 232.43 121.65 257.58 121.65 255.53 165.22 230.38"/><path class="cls-31" d="M51.67,215.13a7.31,7.31,0,0,0-2,5.28c0,5.47,2,6.64,2,6.64l70,40.4s-.83-8.38-.32-10.06l.32.19v-2Z"/><path class="cls-32" d="M121.65,255.54a15.36,15.36,0,0,0-1.4,6.36,9.79,9.79,0,0,0,1.4,5.51l.84-2.53s-.84-.86-.84-3.41a10.36,10.36,0,0,1,1.07-4.51Z"/><path class="cls-8" d="M67.49,233l2.25,1.3v1.35L66.88,234l-.4-.23v-7.29l1,.58,2.26,1.31v1.35l-2.25-1.3v1.62l1.82,1.05v1.34l-1.82-1.05Z"/><path class="cls-8" d="M73.14,230.53a3.61,3.61,0,0,1,.51.76,4,4,0,0,1,.35.89,3.28,3.28,0,0,1,.13.91h0v3a2.22,2.22,0,0,1-.12.77,1,1,0,0,1-.35.48.8.8,0,0,1-.51.17,1.32,1.32,0,0,1-.64-.2l-1.62-.94-.4-.23v-7.29l1,.59,1,.58A2.46,2.46,0,0,1,73.14,230.53Zm-.2,1.3a1.18,1.18,0,0,0-.44-.49l-1-.59v4.59l1,.59a.36.36,0,0,0,.43,0,.54.54,0,0,0,.17-.47v-3h0A1.44,1.44,0,0,0,72.94,231.83Z"/><path class="cls-8" d="M78.54,233.48v4.86a2.22,2.22,0,0,1-.14.86,1.1,1.1,0,0,1-.39.55.88.88,0,0,1-.58.19,1.49,1.49,0,0,1-.71-.22,2.76,2.76,0,0,1-.7-.6,4.12,4.12,0,0,1-.58-.85,4.51,4.51,0,0,1-.39-1,3.77,3.77,0,0,1-.15-1v-4.86l1,.58v4.87a1.74,1.74,0,0,0,.06.45,2.45,2.45,0,0,0,.17.45,1.64,1.64,0,0,0,.26.37,1.28,1.28,0,0,0,.31.27.6.6,0,0,0,.32.09.38.38,0,0,0,.26-.08.49.49,0,0,0,.18-.24,1.13,1.13,0,0,0,.07-.39v-4.84Z"/><path class="cls-8" d="M80.43,236.17a.56.56,0,0,0-.18.47v3a1.37,1.37,0,0,0,.18.66,1.09,1.09,0,0,0,.4.48l1.44.83.2,1.47-1.59-.92a2.46,2.46,0,0,1-.64-.54,4.63,4.63,0,0,1-.52-.76,4.84,4.84,0,0,1-.35-.89,3.3,3.3,0,0,1-.13-.92v-2.93a2.06,2.06,0,0,1,.13-.78,1.18,1.18,0,0,1,.35-.5.85.85,0,0,1,.51-.17,1.23,1.23,0,0,1,.63.19l1.61.93-.2,1.23-1.44-.83A.34.34,0,0,0,80.43,236.17Z"/><path class="cls-8" d="M86.41,245.31l-1-.58v-2.16l-1.22-.71V244l-1-.59v-5.31a2,2,0,0,1,.13-.77,1.05,1.05,0,0,1,.34-.49.85.85,0,0,1,.52-.16,1.23,1.23,0,0,1,.63.19,2.27,2.27,0,0,1,.63.54,4.08,4.08,0,0,1,.52.76,4.45,4.45,0,0,1,.34.88,3.3,3.3,0,0,1,.13.92v5.31Zm-1-5.89a1.52,1.52,0,0,0-.17-.68,1.18,1.18,0,0,0-.44-.49.36.36,0,0,0-.43,0,.56.56,0,0,0-.18.47v1.81l1.22.71Z"/><path class="cls-8" d="M89.25,239.66l1.21.7v1.35L89.23,241v5.94l-1-.57v-5.94l-1.22-.7v-1.35l1.21.7Z"/><path class="cls-8" d="M91.08,240.72l1,.57v7.29l-1-.57Z"/><path class="cls-8" d="M95.63,243.32a4,4,0,0,1,.51.76,4.8,4.8,0,0,1,.34.89,3.23,3.23,0,0,1,.13.91V249a2,2,0,0,1-.13.76,1.07,1.07,0,0,1-.34.49.82.82,0,0,1-.51.17,1.21,1.21,0,0,1-.62-.18l-.61-.35a2.74,2.74,0,0,1-.62-.53,4.29,4.29,0,0,1-.51-.77,4.61,4.61,0,0,1-.36-.89,3.43,3.43,0,0,1-.14-.92v-3.16a1.89,1.89,0,0,1,.14-.75,1.13,1.13,0,0,1,.36-.48.85.85,0,0,1,.51-.18,1.2,1.2,0,0,1,.62.19l.61.35A2.54,2.54,0,0,1,95.63,243.32ZM95.57,245a1.92,1.92,0,0,0-.14-.33,1.21,1.21,0,0,0-.19-.29.76.76,0,0,0-.24-.2l-.6-.35a.36.36,0,0,0-.43,0,.56.56,0,0,0-.18.48v3.15a1.48,1.48,0,0,0,.18.69,1.2,1.2,0,0,0,.43.48l.6.34a.36.36,0,0,0,.43,0,.56.56,0,0,0,.18-.48v-3.15A1.39,1.39,0,0,0,95.57,245Z"/><path class="cls-8" d="M99.92,245.82l1,.59v7.29l-1-.57-1.63-5.23v4.29l-1-.59v-7.29l1,.59v0l1.6,5.34Z"/><polygon class="cls-23" points="173.72 219.69 130.16 244.84 60.17 204.44 103.74 179.28 173.72 219.69"/><polygon class="cls-13" points="173.72 219.69 173.72 221.73 130.16 246.88 130.16 244.84 173.72 219.69"/><polygon class="cls-33" points="170.89 204.68 170.89 219.45 130.16 242.85 130.16 228.08 170.89 204.68"/><polygon class="cls-33" points="63.32 189.49 130.16 227.22 130.16 242.85 63.32 204.26 63.32 189.49"/><polygon class="cls-35" points="173.72 204.11 130.16 229.27 60.17 188.86 103.74 163.71 173.72 204.11"/><polygon class="cls-23" points="173.72 202.07 130.16 227.22 60.17 186.82 103.74 161.67 173.72 202.07"/><path class="cls-13" d="M131.26,224.15l37.4-21.59-66-38.17L65.24,186Z"/><polygon class="cls-13" points="173.72 202.07 173.72 204.11 130.16 229.27 130.16 227.22 173.72 202.07"/><path class="cls-14" d="M60.17,186.82s-3.07,3.38-3.07,10.41c0,7.2,3.07,9.25,3.07,9.25l70,40.4v-2l-1.53-.88A21.15,21.15,0,0,1,128,237a49.43,49.43,0,0,1,1.85-7.95l.32.19v-2.05Z"/><path class="cls-13" d="M131.12,228.71a21,21,0,0,0-1.74,8.34,23.8,23.8,0,0,0,1.22,7.79l-.44,2s-2.58-1.68-2.58-8.88c0-7,2.58-10.78,2.58-10.78Z"/><path class="cls-8" d="M80.54,182.12a3.75,3.75,0,0,1,.82-.09,3.85,3.85,0,0,1,.83.1,2.69,2.69,0,0,1,.72.27l2.27,1.31a1.3,1.3,0,0,1,.47.42.79.79,0,0,1,0,1,1.38,1.38,0,0,1-.47.41l-.59.34a2.62,2.62,0,0,1-.71.27,3.84,3.84,0,0,1-.83.09,3.42,3.42,0,0,1-.84-.08,2.7,2.7,0,0,1-.74-.27l-2.27-1.31a1.48,1.48,0,0,1-.46-.43.87.87,0,0,1-.15-.48.79.79,0,0,1,.16-.48,1.38,1.38,0,0,1,.47-.41l.58-.34A2.56,2.56,0,0,1,80.54,182.12Zm1.14.73a1.63,1.63,0,0,0-.31,0,1.66,1.66,0,0,0-.32,0,1.08,1.08,0,0,0-.27.1l-.57.34a.38.38,0,0,0-.25.34.42.42,0,0,0,.25.33l2.27,1.31a1.18,1.18,0,0,0,.58.14,1,1,0,0,0,.58-.14l.57-.33c.17-.09.26-.2.26-.34s-.09-.24-.25-.34L82,183A1,1,0,0,0,81.68,182.85Z"/><path class="cls-8" d="M84.65,179.76l1-.57,5.23,3-1,.55-4.63-.88,3.07,1.78-1,.56-5.23-3,1-.56h0l4.7.95Z"/><path class="cls-8" d="M94.74,180l-1.53.89a2.77,2.77,0,0,1-.73.28,3.84,3.84,0,0,1-.83.09,3.77,3.77,0,0,1-.83-.09,2.63,2.63,0,0,1-.73-.27l-3.68-2.13,1-.56,3.68,2.13a1.26,1.26,0,0,0,.57.14,1.14,1.14,0,0,0,.57-.13l1.57-.91Z"/><path class="cls-8" d="M90,176.7l.94-.55,5.24,3-.94.54Z"/><path class="cls-8" d="M94.17,174.27l1-.57,5.24,3-1,.56-4.63-.89,3.08,1.78-1,.56-5.24-3,1-.56h0l4.7,1Z"/><path class="cls-8" d="M101.16,175.16l2.16-1.25,1,.56-2.74,1.59-.38.22-5.24-3,1-.56,2.16-1.25,1,.56-2.16,1.25,1.17.67,1.74-1,1,.56-1.75,1Z"/><path class="cls-8" d="M83.71,192.75l2.16-1.24,1,.56-2.74,1.58-.39.22-5.23-3,1-.55,2.16-1.25,1,.56-2.15,1.24,1.16.67,1.75-1,1,.55-1.75,1Z"/><path class="cls-8" d="M85,187.24a3.91,3.91,0,0,1,.83-.09,3.84,3.84,0,0,1,.83.09,2.46,2.46,0,0,1,.73.28h0l2.13,1.23a1.34,1.34,0,0,1,.48.42.72.72,0,0,1,.16.47.79.79,0,0,1-.16.48,1.34,1.34,0,0,1-.48.42l-1.55.9-.39.22-5.24-3,1-.56,1-.56A2.77,2.77,0,0,1,85,187.24Zm.83.7a1.22,1.22,0,0,0-.59.14l-1,.57,3.29,1.9,1-.57a.39.39,0,0,0,.24-.33c0-.13-.09-.24-.25-.34l-2.13-1.22h0A1.12,1.12,0,0,0,85.8,187.94Z"/><path class="cls-8" d="M90,184.18l3.5,2a1.69,1.69,0,0,1,.54.47,1,1,0,0,1,.18.54.91.91,0,0,1-.18.53,1.48,1.48,0,0,1-.54.47,3.19,3.19,0,0,1-.82.32,4.33,4.33,0,0,1-1.85,0,3.19,3.19,0,0,1-.82-.32l-3.49-2,1-.56,3.49,2a1.42,1.42,0,0,0,.36.14,1.92,1.92,0,0,0,.41.05,1.84,1.84,0,0,0,.41-.05,1.35,1.35,0,0,0,.37-.14.83.83,0,0,0,.24-.21.4.4,0,0,0,0-.48,1,1,0,0,0-.24-.22l-3.48-2Z"/><path class="cls-8" d="M93,183.81a.42.42,0,0,0,.25.33l2.12,1.23a1.26,1.26,0,0,0,.57.14,1.12,1.12,0,0,0,.57-.13l1.37-.79L99,185l-1.53.88a2.64,2.64,0,0,1-.73.28,3.84,3.84,0,0,1-.83.09,3.25,3.25,0,0,1-.83-.09,2.76,2.76,0,0,1-.73-.27l-2.11-1.22a1.61,1.61,0,0,1-.49-.43.79.79,0,0,1-.16-.48.76.76,0,0,1,.15-.48,1.56,1.56,0,0,1,.48-.42l1.54-.89.77.68-1.37.79A.39.39,0,0,0,93,183.81Z"/><path class="cls-8" d="M102.78,182.86l-1,.56-1.56-.9-1.16.68,1.55.89-1,.56-3.82-2.2a1.43,1.43,0,0,1-.48-.42.78.78,0,0,1-.16-.47.84.84,0,0,1,.16-.48,1.43,1.43,0,0,1,.48-.42,2.46,2.46,0,0,1,.73-.28,3.84,3.84,0,0,1,.83-.09,3.75,3.75,0,0,1,.82.09,2.57,2.57,0,0,1,.72.28l1.3.75ZM98,181.22a1.09,1.09,0,0,0-.58-.14,1.06,1.06,0,0,0-.58.14.38.38,0,0,0-.25.33.4.4,0,0,0,.24.34l1.3.75L99.3,182Z"/><path class="cls-8" d="M100.26,178.27l1.16-.67,1,.56-1.17.68,4.26,2.46-.94.55-4.26-2.47-1.17.68-1-.56,1.15-.67Z"/><path class="cls-8" d="M102,177.26l.95-.54,5.23,3-.94.54Z"/><path class="cls-8" d="M106.35,174.74a3.75,3.75,0,0,1,.82-.09,3.85,3.85,0,0,1,.83.1,2.56,2.56,0,0,1,.72.27l2.27,1.31a1.43,1.43,0,0,1,.48.42.92.92,0,0,1,.16.48.84.84,0,0,1-.15.47,1.38,1.38,0,0,1-.47.41l-.58.34a2.56,2.56,0,0,1-.72.27,3.77,3.77,0,0,1-.83.09,4,4,0,0,1-.84-.08,2.63,2.63,0,0,1-.73-.27L105,177.15a1.43,1.43,0,0,1-.45-.43.81.81,0,0,1-.16-.48.86.86,0,0,1,.16-.48,1.38,1.38,0,0,1,.47-.41l.58-.34A2.56,2.56,0,0,1,106.35,174.74Zm1.14.73a1.05,1.05,0,0,0-.31,0,1.55,1.55,0,0,0-.31,0,1.08,1.08,0,0,0-.27.1l-.58.34c-.16.09-.25.2-.24.33a.38.38,0,0,0,.25.34l2.26,1.31a1.2,1.2,0,0,0,.59.14,1,1,0,0,0,.58-.14l.57-.33a.4.4,0,0,0,.25-.34c0-.13-.08-.24-.25-.34l-2.26-1.3A.86.86,0,0,0,107.49,175.47Z"/><path class="cls-8" d="M110.47,172.38l1-.57,5.24,3-1,.55-4.63-.88,3.08,1.77-1,.57-5.24-3,1-.56h0l4.71.95Z"/><path class="cls-8" d="M77.69,202.09a5.61,5.61,0,0,1,.78,1.16,7,7,0,0,1,.52,1.36,5.17,5.17,0,0,1,.2,1.38v4.82A3.16,3.16,0,0,1,79,212a1.71,1.71,0,0,1-.52.75,1.24,1.24,0,0,1-.78.26,1.8,1.8,0,0,1-.94-.28l-.93-.54a3.5,3.5,0,0,1-.94-.81,6.07,6.07,0,0,1-.79-1.16,7,7,0,0,1-.54-1.36,5.5,5.5,0,0,1-.22-1.41V202.6a3,3,0,0,1,.22-1.14,1.73,1.73,0,0,1,.54-.73,1.3,1.3,0,0,1,.79-.27,1.82,1.82,0,0,1,.94.29l.93.53A3.69,3.69,0,0,1,77.69,202.09Zm-.1,2.5a2.25,2.25,0,0,0-.2-.51,2,2,0,0,0-.29-.44,1.7,1.7,0,0,0-.36-.31l-.92-.53a.55.55,0,0,0-.66,0,.87.87,0,0,0-.27.73v4.81a2.24,2.24,0,0,0,.27,1,1.64,1.64,0,0,0,.66.73l.91.53a.54.54,0,0,0,.66,0,.87.87,0,0,0,.28-.73v-4.81A2,2,0,0,0,77.59,204.59Z"/><path class="cls-8" d="M84.22,205.89l1.57.91v11.12L84.27,217l-2.47-8v6.53l-1.55-.89V203.6l1.55.89v0l2.42,8.15Z"/><path class="cls-8" d="M92,221.47l-2.44-1.4a3.81,3.81,0,0,1-1-.82,6,6,0,0,1-.8-1.17,7.92,7.92,0,0,1-.54-1.35,5.74,5.74,0,0,1-.19-1.4v-7.82l1.54.89v7.82a2.2,2.2,0,0,0,.26,1,1.74,1.74,0,0,0,.63.74l2.5,1.45Z"/><path class="cls-8" d="M92.68,210.78l1.5.86v11.12l-1.5-.86Z"/><path class="cls-8" d="M99.38,214.65l1.57.9v11.12l-1.53-.88-2.47-8v6.53l-1.54-.89V212.35l1.54.9v0l2.43,8.14Z"/><path class="cls-8" d="M103.72,226.21l3.43,2v2.06l-4.36-2.52-.61-.35V216.26l1.53.89,3.44,2v2.05l-3.43-2v2.48l2.78,1.6v2.05l-2.78-1.61Z"/><polygon class="cls-29" points="158.55 271.45 204.5 297.98 278.31 255.37 232.36 228.84 158.55 271.45"/><polygon class="cls-16" points="158.55 271.45 158.55 273.61 204.5 300.14 204.5 297.98 158.55 271.45"/><polygon class="cls-19" points="278.31 255.37 278.31 257.52 204.5 300.14 204.5 297.98 278.31 255.37"/><polygon class="cls-19" points="171.27 265.54 159.8 272.17 157.71 263.41 159.8 255.65 171.27 249.02 171.27 265.54"/><path class="cls-16" d="M160.28,254.72l-1.73-1.85a27.62,27.62,0,0,0-1.59,9.07c0,7.47,1.59,11.67,1.59,11.67l1.61-.07a40.86,40.86,0,0,1-1.22-10.46A28.29,28.29,0,0,1,160.28,254.72Z"/><polygon class="cls-36" points="161.54 255.62 161.54 271.2 204.5 295.88 204.5 280.3 161.54 255.62"/><polygon class="cls-33" points="275 239.6 204.5 279.4 204.5 295.88 275 255.18 275 239.6"/><polygon class="cls-35" points="158.55 255.03 204.5 281.56 278.31 238.94 232.36 212.41 158.55 255.03"/><polygon class="cls-29" points="158.55 252.87 204.5 279.4 278.31 236.79 232.36 210.26 158.55 252.87"/><polygon class="cls-16" points="158.55 252.87 158.55 255.03 204.5 281.56 204.5 279.4 158.55 252.87"/><polygon class="cls-19" points="278.31 236.79 278.31 238.94 204.5 281.56 204.5 279.4 278.31 236.79"/><polygon class="cls-19" points="235.23 211.93 161.33 254.54 160.04 253.79 233.93 211.18 235.23 211.93"/><polygon class="cls-16" points="238.33 252.84 206.02 234.19 207.77 233.18 240.08 251.83 238.33 252.84"/><polygon class="cls-16" points="266.69 236.93 234.39 218.27 236.14 217.26 268.44 235.92 266.69 236.93"/><path class="cls-8" d="M231.27,229.12a2.87,2.87,0,0,1-2-.3c-.56-.33-.74-.71-.53-1.14a4.47,4.47,0,0,1,1.76-1.47l4.51-2.6q2.72-1.58,4.37-.61c.58.33.76.7.55,1.11a4.18,4.18,0,0,1-1.65,1.38l-4.51,2.61A8,8,0,0,1,231.27,229.12Zm-.72-1.49c-.17.17-.15.31.06.43a.87.87,0,0,0,.75,0,7.57,7.57,0,0,0,1.3-.63l4.6-2.66a3.94,3.94,0,0,0,.92-.65c.15-.16.13-.29-.06-.41a.94.94,0,0,0-.73,0,5,5,0,0,0-1.13.52l-4.6,2.66A5.5,5.5,0,0,0,230.55,227.63Z"/><path class="cls-8" d="M232.07,230.28l9.87-5.69.88.5-4.35,4.33,2.61-1.6,3.23-1.87,1,.59-9.86,5.69-.8-.46,4.52-4.46-2.53,1.53-3.54,2Z"/><path class="cls-8" d="M236.57,232.87l9.86-5.69,1.13.65-8.59,5,1.43.82-1.28.74Z"/><path class="cls-8" d="M239.81,234.75l9.86-5.7,1.13.65-9.87,5.7Z"/><path class="cls-8" d="M242.09,236.06l9.86-5.69.88.51-4.35,4.32,2.61-1.6,3.23-1.87,1,.59L245.47,238l-.8-.46,4.52-4.46-2.53,1.53-3.53,2Z"/><path class="cls-8" d="M246.58,238.66l9.86-5.7,2.48,1.43-1.29.75-1.35-.78L253.41,236l1.28.75-1.26.73-1.29-.74L249,238.56l1.4.81-1.29.75Z"/><path class="cls-8" d="M216.17,234.5a2.77,2.77,0,0,1-1.89-.29c-.55-.32-.71-.7-.5-1.13a4.3,4.3,0,0,1,1.7-1.45l4.3-2.48a6.05,6.05,0,0,1,3.62-1.09,2.43,2.43,0,0,1,1,.33q1.56.9-1.06,2.41l-1.36.78-1.08-.62,1.26-.73a5.28,5.28,0,0,0,1-.69c.15-.16.14-.3-.05-.4a.92.92,0,0,0-.74,0,6.06,6.06,0,0,0-1.17.55l-4.61,2.66a5.15,5.15,0,0,0-1,.72c-.16.17-.15.31,0,.42a.94.94,0,0,0,.73,0,7.17,7.17,0,0,0,1.25-.61l1.41-.81,1.11.64-1.4.8A7.5,7.5,0,0,1,216.17,234.5Z"/><path class="cls-8" d="M220.28,236.85a2.85,2.85,0,0,1-1.95-.3c-.57-.33-.74-.71-.53-1.14a4.41,4.41,0,0,1,1.75-1.47l4.52-2.6q2.7-1.58,4.37-.61.85.5.54,1.11a4.13,4.13,0,0,1-1.64,1.38l-4.51,2.61A7.85,7.85,0,0,1,220.28,236.85Zm-.72-1.49c-.16.17-.14.31.07.43a.87.87,0,0,0,.75,0,7.07,7.07,0,0,0,1.3-.64l4.59-2.65a4.07,4.07,0,0,0,.93-.65c.15-.16.12-.29-.07-.4a.87.87,0,0,0-.72,0,5,5,0,0,0-1.14.52l-4.6,2.65A5.86,5.86,0,0,0,219.56,235.36Z"/><path class="cls-8" d="M224.45,239.34a2.84,2.84,0,0,1-1.88-.35c-.57-.33-.77-.69-.6-1.09a3.93,3.93,0,0,1,1.61-1.38l7.34-4.23,1.12.65-7.3,4.22a5.49,5.49,0,0,0-.9.58,1.23,1.23,0,0,0-.17.25c0,.08,0,.17.18.26a.73.73,0,0,0,.54.09,2.14,2.14,0,0,0,.61-.19c.2-.1.45-.24.74-.41l7.31-4.22,1.13.65-7.34,4.24A7,7,0,0,1,224.45,239.34Z"/><path class="cls-8" d="M231.5,238.67l-.34-.22-4.66,2.69-1.12-.65,9.86-5.7,1.86,1.08c.39.22.57.45.56.68a1.11,1.11,0,0,1-.49.71,12.56,12.56,0,0,1-1.37.9,8.73,8.73,0,0,1-1.51.71,2.35,2.35,0,0,1-1.17.06c.2.18.15.41-.15.7a15.07,15.07,0,0,1-2.35,1.53c-1.26.73-1.93,1.13-2,1.2l-1.13-.65c.05-.06,1.21-.75,3.49-2.06a2.33,2.33,0,0,0,.76-.58C231.81,239,231.73,238.81,231.5,238.67Zm.83-.89.45.26a.88.88,0,0,0,.45.11,2,2,0,0,0,.58-.18,9.57,9.57,0,0,0,1-.53l.06,0a3.61,3.61,0,0,0,.95-.67c.1-.13,0-.27-.22-.41l-.38-.22Z"/><path class="cls-8" d="M232.25,241.25l.88-.51,1.07.62-1,.57a5.05,5.05,0,0,0-1.06.73q-.22.26.06.42a.83.83,0,0,0,.66.06,4.74,4.74,0,0,0,1-.46,3.43,3.43,0,0,0,.91-.72,2.22,2.22,0,0,0,.43-.87l.21-.75a2.79,2.79,0,0,1,.51-1,3.77,3.77,0,0,1,1.11-.88,6.08,6.08,0,0,1,2.17-.85A2.77,2.77,0,0,1,241,238c.57.33.73.69.47,1.07a5.4,5.4,0,0,1-1.72,1.35l-.61.35-1-.6.7-.41a4.67,4.67,0,0,0,.94-.65c.14-.15.13-.28-.05-.38a.83.83,0,0,0-.61-.08,2.65,2.65,0,0,0-.82.34,2,2,0,0,0-.63.5,2.28,2.28,0,0,0-.3.66l-.27.86a3.35,3.35,0,0,1-.64,1.17,4.87,4.87,0,0,1-1.25,1,7.72,7.72,0,0,1-2.4,1,2.73,2.73,0,0,1-1.88-.32c-.58-.34-.74-.72-.48-1.13A5.37,5.37,0,0,1,232.25,241.25Z"/><path class="cls-8" d="M233.43,245.13l9.86-5.69,2.48,1.43-1.29.75-1.36-.78-2.87,1.65,1.29.75-1.27.73-1.28-.75L235.85,245l1.4.81-1.29.74Z"/><path class="cls-8" d="M239.48,245.43l.88-.51,1.07.62-1,.57a4.9,4.9,0,0,0-1.05.73c-.16.17-.13.31.06.42a.83.83,0,0,0,.66.06,4.71,4.71,0,0,0,1-.46,3.5,3.5,0,0,0,.92-.72,2.53,2.53,0,0,0,.43-.87l.2-.75a2.79,2.79,0,0,1,.51-1,4,4,0,0,1,1.11-.89,6.31,6.31,0,0,1,2.17-.84,2.7,2.7,0,0,1,1.81.36c.57.33.73.69.48,1.07a5.41,5.41,0,0,1-1.72,1.34l-.61.36-1-.6.71-.41a4.24,4.24,0,0,0,.93-.65c.15-.16.13-.28,0-.38a.86.86,0,0,0-.62-.09,3,3,0,0,0-.82.34,2.1,2.1,0,0,0-.63.51,2.05,2.05,0,0,0-.29.66l-.27.85a3.49,3.49,0,0,1-.65,1.18,4.71,4.71,0,0,1-1.25,1,7.77,7.77,0,0,1-2.39,1,2.67,2.67,0,0,1-1.88-.33c-.59-.33-.75-.71-.48-1.12A5.21,5.21,0,0,1,239.48,245.43Z"/><path class="cls-19" d="M116.84,191.81a54.39,54.39,0,0,0-2.47,10.65c.17,1.82,3.26,3.67,3.79,2.25.63-1.72,1.79-5.62,2.17-6.62a83.62,83.62,0,0,0,2.47-8.26c.17-3,1.69-8.16,3.68-10.23a2.76,2.76,0,0,0-3,.28,18.4,18.4,0,0,0-3.37,4.35C119.71,185.06,117.7,189.68,116.84,191.81Z"/><path class="cls-16" d="M101.09,238.32c-1.31,1.29-1.72,1.65-2.94,2.85-.71.69-.12,1.33,1.23,1.28a24.71,24.71,0,0,0,5.41-1.17,28.4,28.4,0,0,0,4-2.11,2.66,2.66,0,0,0,1.2-1.52v-2.14l-6.46.27S102.51,236.94,101.09,238.32Z"/><path class="cls-16" d="M112.47,245.08c-1.31,1.28-1.72,1.65-2.94,2.84-.71.69-.13,1.33,1.23,1.28a24.83,24.83,0,0,0,5.41-1.17,28.94,28.94,0,0,0,4-2.11,2.72,2.72,0,0,0,1.2-1.52v-3.77L115,242.54S113.89,243.69,112.47,245.08Z"/><path class="cls-19" d="M135.56,207.8l-12.92-5a37.1,37.1,0,0,1-6,4.39c-2.27,1.37-8.53,5.05-10.53,6.47-1.24.87-1.79,2.75-2.28,7-.79,7-1.37,15-1.37,15a5.61,5.61,0,0,0,4.56,1.95,12.26,12.26,0,0,0,4.25-.77l.49-16.12,10.58-6.11s-6,3.72-6.86,7a32.83,32.83,0,0,0-1,8c-.22,7.12-.3,11.78-.3,11.78s.47,2.36,3.64,2.34a7.28,7.28,0,0,0,4.43-2l.64-16.32s9.14-6.51,11.53-9.26C137.06,213.1,135.56,207.8,135.56,207.8Z"/><path class="cls-16" d="M124.89,180.29s-3.87,3.13-4.33,7.53c-.23,2.19.37,9.7.39,14.53-1.87,1.26-7.17,4.37-7.17,4.37s4.27,1.32,6,4.26a14.34,14.34,0,0,0,3.09-1.82,26.68,26.68,0,0,1-1.14,2.44c1.16.35,5.14-.57,8.84,1a10.11,10.11,0,0,0,6.26.88,20.27,20.27,0,0,0,.19-6.12c-.41-2.67-1.4-5.62-1.2-7.19.64-4.9,1.59-12.82,1.42-14.11-.29-2.17-5.2-4.52-5.2-4.52S128.5,178.87,124.89,180.29Z"/><path class="cls-19" d="M127.13,179.88s-2.26,0-4.17,3.72c-.68,1.33-1.14,2-1.14,2l1.14,1.11-1.62.78s-.58,5.66-.11,8c.51,2.59,3.14,7.3,3.14,7.3a66.71,66.71,0,0,1,2.46-6.6c.74-1.32,3.57-5,3.57-5L129,189.13l2.31-.75s3.26-4.08,2.92-5.31a4,4,0,0,0-2.85-2.78Z"/><path class="cls-33" d="M124.47,184.09a52.34,52.34,0,0,0-1.42,5.29c-.5,2.52.9,10.73.9,10.73s1.24-8,2.88-10.35a52.18,52.18,0,0,1,4.46-5.37S126.14,183.45,124.47,184.09Z"/><path class="cls-9" d="M125.43,184.61l-.28,2.14a6,6,0,0,0-1.54,2.73c-.27,1.5-.19,7.1-.19,7.1l.53,3.53.75-2.43s.58-3.33,1.08-5.39a13.58,13.58,0,0,1,.22-1.87,14.51,14.51,0,0,0,.42-3.1l1.34-1.6-1.28-1.49Z"/><path class="cls-37" d="M126.27,180.16l-.24,3.4a9.16,9.16,0,0,0,1.6,1.64c1.22-.38,4.07-3,4.07-3l-.95-5.27Z"/><path class="cls-18" d="M131.28,171.1a4.46,4.46,0,0,0-7.34.54c-2.51,3.72-.14,9.79,2.06,9.43a8.55,8.55,0,0,0,5.21-3.3C132.58,175.54,132.27,172.37,131.28,171.1Z"/><path class="cls-8" d="M126.2,181.09l.28,3.14-2.24.91S124,181.81,126.2,181.09Z"/><path class="cls-8" d="M131.36,180.29a16.46,16.46,0,0,1-2.07,2.43,8,8,0,0,1-2.81,1.51l.84,2.52a17.62,17.62,0,0,0,4.23-2.65S132.89,181.79,131.36,180.29Z"/><path class="cls-19" d="M123,172.88a3.71,3.71,0,0,0,3.34,1.88,8.12,8.12,0,0,0,3-.41l-.14,2.23a1.77,1.77,0,0,0,.61-.08c.22-.85.59-1.05,1-.69s.4,2,.4,2a5.75,5.75,0,0,0,1.77-4.09c0-1.6-1.4-5.05-4.32-5.41a5.39,5.39,0,0,0-5.72,2.72A2,2,0,0,0,123,172.88Z"/><rect class="cls-38" x="106.55" y="209.64" width="0.85" height="0.66"/><path class="cls-38" d="M118.72,217.66,107,210.87c-.61-.35-.54-1,.18-1.4l7.85-4.53a2.73,2.73,0,0,1,2.42-.1l11.75,6.79c.62.35.54,1-.17,1.4l-7.85,4.53A2.69,2.69,0,0,1,118.72,217.66Z"/><rect class="cls-38" x="129.05" y="211.57" width="0.53" height="0.65"/><path class="cls-33" d="M118.72,217,107,210.25c-.61-.35-.54-1,.18-1.39l7.85-4.54a2.73,2.73,0,0,1,2.42-.1L129.16,211c.62.36.54,1-.17,1.4l-7.85,4.53A2.69,2.69,0,0,1,118.72,217Z"/><polygon class="cls-38" points="116.44 204.45 108.15 209.22 120.5 216.32 128.81 211.55 116.44 204.45"/><polygon class="cls-33" points="115.73 204.37 115.1 204.73 127.44 211.82 128.1 211.47 115.73 204.37"/><polygon class="cls-33" points="125.15 211 124.52 211.37 126.39 212.43 127.04 212.08 125.15 211"/><polygon class="cls-33" points="123.1 209.81 122.47 210.18 123.78 210.94 124.44 210.58 123.1 209.81"/><polygon class="cls-33" points="121.47 208.88 120.83 209.25 122.14 210.01 122.8 209.65 121.47 208.88"/><polygon class="cls-33" points="119.84 207.95 119.2 208.32 120.52 209.07 121.17 208.72 119.84 207.95"/><polygon class="cls-33" points="123.76 212.77 123.12 213.13 124.05 213.67 124.7 213.31 123.76 212.77"/><polygon class="cls-33" points="122.41 211.98 121.78 212.35 122.7 212.88 123.36 212.53 122.41 211.98"/><polygon class="cls-33" points="120.75 211.04 120.12 211.41 121.43 212.17 122.09 211.82 120.75 211.04"/><polygon class="cls-33" points="122.67 213.39 122.04 213.76 122.96 214.29 123.62 213.94 122.67 213.39"/><polygon class="cls-33" points="121.33 212.61 120.69 212.98 121.61 213.51 122.27 213.16 121.33 212.61"/><polygon class="cls-33" points="121.52 214 120.89 214.37 121.81 214.9 122.47 214.55 121.52 214"/><polygon class="cls-33" points="120.17 213.22 119.54 213.58 120.46 214.12 121.12 213.76 120.17 213.22"/><polygon class="cls-33" points="119.67 211.67 119.03 212.04 120.34 212.8 121 212.44 119.67 211.67"/><polygon class="cls-33" points="119.17 210.12 118.54 210.48 119.85 211.24 120.51 210.89 119.17 210.12"/><polygon class="cls-33" points="117.55 209.18 116.91 209.55 118.22 210.31 118.88 209.96 117.55 209.18"/><polygon class="cls-33" points="123.69 211.43 123.06 211.79 125.24 213.04 125.9 212.69 123.69 211.43"/><polygon class="cls-33" points="121.96 210.42 121.33 210.79 122.64 211.54 123.29 211.19 121.96 210.42"/><polygon class="cls-33" points="120.32 209.49 119.69 209.86 121 210.62 121.66 210.26 120.32 209.49"/><polygon class="cls-33" points="118.7 208.56 118.06 208.93 119.38 209.68 120.03 209.33 118.7 208.56"/><path class="cls-18" d="M123.89,206.11s-1.92,1-3.14,1.6-4.83,3.72-4.06,4.44a6.35,6.35,0,0,0,3.18,1.43,6.39,6.39,0,0,0,1.94-1.68c.2-.3,2.54-1.19,3.22-2.22S123.89,206.11,123.89,206.11Z"/><path class="cls-4" d="M120.72,205.8l0,10a1,1,0,0,1-1.46.85l-11.77-6.74a1,1,0,0,1-.49-.84l0-10a1,1,0,0,1,1.45-.84L120.23,205A1,1,0,0,1,120.72,205.8Z"/><polygon class="cls-4" points="120.4 216.56 119.77 216.92 119.01 216.13 120.51 215.2 120.4 216.56"/><polygon class="cls-4" points="107.43 198.25 107 198.5 108.12 198.52 107.43 198.25"/><path class="cls-36" d="M120.23,206.08l0,10a1,1,0,0,1-1.45.85L107,210.17a1,1,0,0,1-.49-.83l0-10a1,1,0,0,1,1.45-.85l11.78,6.75A1,1,0,0,1,120.23,206.08Z"/><polygon class="cls-33" points="110.3 212.79 107.51 211.19 107.51 209.97 110.3 211.58 110.3 212.79"/><polygon class="cls-33" points="117.88 217.18 115.1 215.57 115.1 214.35 117.88 215.96 117.88 217.18"/><path class="cls-8" d="M114,208c0,.58-.52.76-1.15.39a2.33,2.33,0,0,1-1.16-1.72c0-.59.52-.76,1.16-.39A2.34,2.34,0,0,1,114,208Z"/><path class="cls-19" d="M139.44,196.77c.74-5.24.71-9.76-2.14-11.63-2.07-1.36-3.29,4.18-3.85,8.32-.14,1-1.08,5.57-1.3,6.65-1.39.33-8.9,5.21-9.84,6.11a9.47,9.47,0,0,1,2.49,4.61c3.12-.69,8-3.72,11.32-5.41C138.55,204.18,139.09,199.22,139.44,196.77Z"/><path class="cls-16" d="M224.48,271.4a28,28,0,0,0-6,2.5c-2.6,1.55-3.83,3.22-5.59,2.28s-2.67-7.08-2.67-7.08l15.22-2.75S226.37,270.24,224.48,271.4Z"/><path class="cls-18" d="M223.74,264.6s3.78,3.17,3.51,6.5c-.15,1.83.07,2.64-.22,4.9s-.05,9.91.08,12.72c.06,1.4,2.39,3.11,3.46,3.89s.61,1.84,1,2.33c.69,1-2.27,1.76-3.89.36s-4.28-2.46-4.39-4.78a60.23,60.23,0,0,0-1.38-10.6,30.39,30.39,0,0,1-.46-7.17c0-1.4-5.14-5.87-5.33-6.32C215.59,265.31,223.74,264.6,223.74,264.6Z"/><path class="cls-18" d="M218.63,270a5.42,5.42,0,0,1,1.45,4.64,24.76,24.76,0,0,0-.64,5.06c0,2.15-1,11.36-.86,14.17.08,2.06.73,4.08.84,5.31.06.65-.38,1.57-.34,2.25.08,1.2-2.83,1-3.73.56s-.8-6.44-.12-8.11a49.18,49.18,0,0,0-1.51-9.56c-.92-3.8.26-8.9-.52-9.84-1.59-1.9-4.9-3.54-5-5.47-.14-2.39,2.24-6.33,4.61-5.26C213.58,264.11,215.68,267.05,218.63,270Z"/><path class="cls-19" d="M201.3,258.5s-2.17,5.87-.16,9.5c1.66,3,11.71,8.18,11.71,8.18s.74-3.84,3.21-5.39c2.08-1.31,9.34-4.44,9.34-4.44L213,256.81A9,9,0,0,1,201.3,258.5Z"/><path class="cls-18" d="M219.32,254a26.82,26.82,0,0,1,2.59-1.1,34.54,34.54,0,0,0-1.6-3.67,38.14,38.14,0,0,0-2.25-3.88c-.75-1-3-4.17-3-4.17l-3.28,2.46s4,4.73,4.54,5.44a49.22,49.22,0,0,1,2.94,4.71A.91.91,0,0,1,219.32,254Z"/><path class="cls-16" d="M230.57,292.61a10.25,10.25,0,0,1,2.78,2.1c.92,1.14-.12,2.85-2.58,2.48-1.31-.19-3.05-1.59-3.75-2.11-1-.73-2.7-1.56-3.48-2.22s-.29-2.34-.29-2.34a3.59,3.59,0,0,0,1.21,1.68,15,15,0,0,0,3,1.78c1.53.54,2.6.91,3.19.2S230.57,292.61,230.57,292.61Z"/><path class="cls-16" d="M219.32,298.48a4.4,4.4,0,0,1-.43,2.49c-.6.86-2.14.92-3-.6a10.39,10.39,0,0,1-1-4.38,6.23,6.23,0,0,1,.34-2.11,1.69,1.69,0,0,0-.76,1.87c.29,1.3-.08,3.22,0,4.2.16,2.33.76,4.05,2.44,4.8,1.34.61,3.32.16,3.29-2.1A11.51,11.51,0,0,0,219.32,298.48Z"/><path class="cls-31" d="M212.37,244.3a5.58,5.58,0,0,0,1.35-.93,7.13,7.13,0,0,0,1.39-1.84s-1.19-4.43-4.61-5.77c-1.66-.65-3.84,1.19-3.84,1.19Z"/><path class="cls-8" d="M214.85,240.77l.5.92s-1.13,2.19-2.61,2.61-.72-.93-.72-.93S212.93,243.75,214.85,240.77Z"/><path class="cls-9" d="M197.89,243.34c.27-1.39,4.33-4.47,4.33-4.47l3.3,2.37a21.4,21.4,0,0,1,2.34,2.23h0a18,18,0,0,0-1.22-4.55,8.57,8.57,0,0,1,0-2.77s.32-.1.79-.2c.76.75,2.26,2.78,3.07,3.62s3.75,3.28,3.08,6a22.08,22.08,0,0,1-.84,2.55,12.23,12.23,0,0,0-.17,4.43,28.33,28.33,0,0,0,1.54,4.77s-2.88,3.69-6.16,3.7a10.88,10.88,0,0,1-6.67-2.55,62,62,0,0,0,.4-8.2S197,247.93,197.89,243.34Z"/><path class="cls-31" d="M208,238.27s2.39,2.73,2.21,3.81c-.61.58-2,1.72-2,1.72l-1.62-5.33Z"/><path class="cls-18" d="M212.85,260a46.5,46.5,0,0,0-7.16-4.55,7.51,7.51,0,0,1-1.67-3c-.52-1.45-1.38-3.53-1.38-3.53l-4.33,1.45s1.68,3.9,2.46,5.18a11.26,11.26,0,0,0,2.5,3.25c1.23.91,2.77,2,8.26,3.65A8.32,8.32,0,0,1,212.85,260Z"/><path class="cls-19" d="M211.47,229.42s.9,2.73.39,9a12.55,12.55,0,0,1-1.34,4.62s-1.35-3.74-3.29-5c-1.36-.87.68-2.5.68-2.5Z"/><path class="cls-20" d="M206.92,236.46a14.54,14.54,0,0,0,.56,3.6,6.94,6.94,0,0,1,.68,3.74,21.61,21.61,0,0,1-2.9-2.33c-.92-.8-3.33-2.35-3.33-2.35l.09-7Z"/><path class="cls-18" d="M204.1,228.14a4.2,4.2,0,0,1,6.55,2.24c1.41,4-2.19,8.93-4.11,8.09a8.11,8.11,0,0,1-4-4.24C201.87,231.87,202.9,229.06,204.1,228.14Z"/><path class="cls-31" d="M202,237.68a15.51,15.51,0,0,1,2.83,2.29c2.06,2.14,3.38,3.83,3.38,3.83a7.36,7.36,0,0,1-3.1.67c-2-1.91-3.68-3.07-4.37-4.35A10.5,10.5,0,0,1,202,237.68Z"/><path class="cls-31" d="M199,252a14.19,14.19,0,0,1-2-2.76c-.52-1.72-1.42-4.46,1.3-6.58,2.15-1.67,4.22,2.38,4.65,3.89a12.59,12.59,0,0,1,.36,4C202.63,251.34,200.49,252.57,199,252Z"/><path class="cls-8" d="M203.35,250.08a9.13,9.13,0,0,0,.19,1.13,5.42,5.42,0,0,1-2.4,1.3,7.46,7.46,0,0,1-1.77.28l-.63-1.14a9.47,9.47,0,0,0,2.4-.39A12.43,12.43,0,0,0,203.35,250.08Z"/><path class="cls-19" d="M207.23,229.87a9.22,9.22,0,0,1-1.16,4.92c-1.34,2.06-1.37,3.91-1.32,6,.08,3.66,1.06,4.75,1.06,4.75a8.15,8.15,0,0,1-5.1-6.95c-.48-5.17-.37-9.24,1-11.16,1.21-1.76,3.62-1.33,3.62-1.33s3.12-2.33,5.7,2.12a4,4,0,0,1,0,4.37A4.93,4.93,0,0,0,207.23,229.87Z"/><path class="cls-39" d="M225.16,248.7c-.1-.07-.29-.06-.56.06L219,252a4.5,4.5,0,0,0-1.8,1.64l-6.07,10.5c-.21.36-.22.6-.07.7h0l.6.35.28-.59,5.3-3.07a4.54,4.54,0,0,0,1.8-1.63l6.07-10.51,0-.07.14.13.48-.43-.57-.33Z"/><path class="cls-8" d="M225.19,249.09l-5.62,3.26a4.47,4.47,0,0,0-1.8,1.63l-6.06,10.5c-.37.63-.15.92.48.65l5.62-3.25a4.71,4.71,0,0,0,1.8-1.64l6.06-10.5C226,249.11,225.82,248.82,225.19,249.09Z"/><path class="cls-18" d="M222.87,254.6c-1.44.9-2.61,2.6-2.41,3.55s1.39.09,1.93-.77A3.07,3.07,0,0,0,222.87,254.6Z"/><path class="cls-18" d="M211.35,258.91s1.08.5,1.63.1a3,3,0,0,1,1.49-.65s-.49.74.19,1a2,2,0,0,0,1.75.08c.73-.19,1.34-.1.7,1.21a5.33,5.33,0,0,1-2.62,2.2,6.58,6.58,0,0,1-3.54-.53C208.87,261.67,211.35,258.91,211.35,258.91Z"/><path class="cls-19" d="M52.79,270.85S50.52,273.16,50,274s-.35,1.85,1,3,2.13.33,3.2-.83,3.88-3.38,4.43-4.3S52.79,270.85,52.79,270.85Z"/><path class="cls-16" d="M43.66,259.87a19.09,19.09,0,0,0-4.92,7.76,9.73,9.73,0,0,0,0,6.44c.32,1,2.41,2.56,5,2.56,3.34-.32,2.23-2.13,4.25-3.3,2.64-1.52,4.39-4.06,6.18-4.87,1.59-.72,3.49,1.2,6.13,1,2.14-.15,5.32-1.92,6.45-2.84a9.13,9.13,0,0,0,2.71-3.49c.62-1.27,1.25-2.28.81-3.42s-1-2.23-2.52-2.55c-5.9-1.27-13.47-.56-13.47-.56S44.8,259.14,43.66,259.87Z"/><path class="cls-21" d="M59.27,249.62c-2.38-5.13-2.88-12.86-2.88-12.86l.62-1s2.6-.29,4.9,4.36c1.35,2.73,2.21,5.76,3.51,7.69,1.94,2.89,4.34,3.92,6.55,5.83-.94.51-.77,3.94-3.91,2.81C62.74,254.57,59.89,252.68,59.27,249.62Z"/><path class="cls-19" d="M45.61,266.82s3.85.25,6,.31,3.87,0,3.87,0,3.09-3,4.64-4.37,3.07-2.46,3.07-2.46-4.14,1.15-4.92,1.75c-.54-1.25-1.47-3-1.47-3l-7.38,2.14a26.89,26.89,0,0,1,2.66,1.75c.88.77.49,1.4.49,1.4S47.54,265.57,45.61,266.82Z"/><path class="cls-17" d="M57,235.78s1.61.62,3.39,6.95c.58,2.06-.36,8.46-.38,13.18a3.37,3.37,0,0,1,1.37,1.19s-2.74,6-10.78,4.81a36.3,36.3,0,0,0-8.52-.21s-.24-.86.81-2.31c.84-1.15-.41-1.34-.33-1.93.12-.79.59-1,.91-2.19,1.2-4.68.45-11.62,1.47-14.12.81-2,5-3.48,5-3.48S53.49,234.39,57,235.78Z"/><path class="cls-20" d="M55.52,236.29l.22,3.32a8.78,8.78,0,0,1-1.55,1.6c-1.2-.37-4-3-4-3l.93-5.15Z"/><path class="cls-18" d="M49.7,228.43a4.35,4.35,0,0,1,7.1-1.08c3.2,3,1.94,9-.41,9.41a6.71,6.71,0,0,1-5.17-2C49.43,232.93,49,229.85,49.7,228.43Z"/><path class="cls-33" d="M55.6,237.57l-.29,2.69,2.18.89S57.74,238.28,55.6,237.57Z"/><path class="cls-33" d="M50.4,237.2a6.09,6.09,0,0,0,2.24,2.14,14.66,14.66,0,0,0,2.67.92l-.82,2.47a20.73,20.73,0,0,1-3.88-2.07S48.91,238.65,50.4,237.2Z"/><polygon class="cls-40" points="59.76 254.61 60.02 255.65 59.61 258.4 59.39 257.18 59.76 254.61"/><path class="cls-33" d="M72.21,250.85s-2.93,1.49-3.9,2.2a3.26,3.26,0,0,0-1.21,1.62,3.23,3.23,0,0,0-2.46-.73,36.81,36.81,0,0,0-4.88.67l.26,1,8,.82,5.26-5.1Z"/><polygon class="cls-14" points="73.65 250.91 67.68 255.59 66.08 264.09 72.05 259.41 73.65 250.91"/><polygon class="cls-13" points="67.68 255.59 66.08 264.09 57.79 263.77 59.39 255.27 67.68 255.59"/><polygon class="cls-23" points="73.32 250.72 73.65 250.91 67.68 255.59 67.36 255.39 73.32 250.72"/><polygon class="cls-23" points="59.27 255.07 59.39 255.27 67.68 255.59 67.36 255.39 59.27 255.07"/><polygon class="cls-41" points="59.27 255.07 59.39 255.27 57.79 263.77 57.66 263.58 59.27 255.07"/><path class="cls-40" d="M71.31,251.75s-1.37.87-2.06,1.4a15.7,15.7,0,0,0-1.57,1.46A4.62,4.62,0,0,1,69.1,253,9.81,9.81,0,0,1,71.31,251.75Z"/><path class="cls-40" d="M66.88,254.8a4.41,4.41,0,0,0-2.35-.45c-1.34.13-3.1.45-3.1.45s2.25-.15,3.22-.19A13.35,13.35,0,0,1,66.88,254.8Z"/><path class="cls-18" d="M73.13,253.66c.6.3.52,2.38-.7,3.2-1,.68-1.77,0-1-1.46A3.44,3.44,0,0,1,73.13,253.66Z"/><path class="cls-18" d="M56.7,258.48a4.84,4.84,0,0,1,2.18-1.35c0,.13-.24,1.27-.24,1.27a15.31,15.31,0,0,1,2.79.48c1.1.32,2.63.59,1.09,2.34-.56.63-2.44,1-5,1.08-1.15.05-4.22-.3-4.22-.3v-2.74S56,259.32,56.7,258.48Z"/><path class="cls-21" d="M54.49,259.21c-.77-.11-.65,1.42-.65,2.85-3.86.68-9-.42-11.2-3-.81-1-1.69-1.22-1.8-2.6-.3-3.81.75-8.57,1.23-10.67,1.15-5.06,2.48-5.66,4.55-6.39,1.09.36,3.52,1.69,2.78,5.77-.93,5.1-1.24,6.69-2.16,9.2a30.85,30.85,0,0,1,5.18,2.44C53.74,257.87,54.49,258.44,54.49,259.21Z"/><path class="cls-16" d="M50.59,226.23c1.49-3,5-2.67,6.72-.57s1.62,2,2.91,2.78c-2.86,3-6.52,1.51-7.82,1C53,231.29,52.23,233,52,233c-.39-.75-.78-.87-1.1-.43s0,1.95,0,1.95A5.59,5.59,0,0,1,48.36,231C48,229.48,47.85,227.08,50.59,226.23Z"/><path class="cls-19" d="M61.3,266.75s2.57-.77,3.81-1.24a3.15,3.15,0,0,1,2.7.22,23.6,23.6,0,0,1,3.92.66c1.44.47,2,1.28,2.32,3,.31,1.52-3.47,1.75-5.48,1.59s-4.47.86-5.82.34S61.3,266.75,61.3,266.75Z"/><path class="cls-16" d="M43.65,269.18s4.72-1.14,8.16-1.75,8.19-2,10-2.13a5.91,5.91,0,0,1,2.93,3.64,6.14,6.14,0,0,1-.54,3.57S56.82,273,54,274s-8.21,2.84-10.19,2.61C41.27,275.59,43.65,269.18,43.65,269.18Z"/><path class="cls-33" d="M55.31,259.07l-1.66-1.26a2.38,2.38,0,0,0-1.1,1.91,7.58,7.58,0,0,0,0,2.59H55A7.3,7.3,0,0,1,55.31,259.07Z"/></g></g></svg>